<svg width="271" height="183" viewBox="0 0 271 183" fill="none" xmlns="http://www.w3.org/2000/svg">
<rect y="9.37305" width="271" height="153.091" fill="#FAFAFA"/>
<path d="M22.3896 36.9468L1.82422 31.1815V160.902H269.174V49.4384L247.875 56.1646L228.044 27.3379L207.478 82.1086L186.913 108.053L166.347 88.8348L145.782 95.5611L125.217 82.1086L104.651 77.3042L84.0858 94.6002L63.5204 74.4215L42.955 62.8908L22.3896 36.9468Z" fill="#B4E1D6"/>
<path d="M22.3896 74.4825L1.82422 82.1642V160.902H269.174V56.2383L248.609 68.7211L228.044 61.0394L207.478 124.414L186.913 130.175L166.347 116.732L145.782 135.937L125.217 99.4482L104.651 110.011L84.0858 132.096L63.5204 87.9255L42.955 93.6868L22.3896 74.4825Z" fill="#84CBCD"/>
<path d="M22.3896 95.5787L1.82422 103.264V160.902H269.174V78.2873L248.609 77.3267L228.044 99.4212L207.478 151.295L186.913 153.217L166.347 127.279L145.782 141.689L125.217 118.634L104.651 128.24L84.0858 135.925L63.5204 128.24L42.955 103.264L22.3896 95.5787Z" fill="#64B3C7"/>
<path d="M22.3896 113.169L1.82422 109.351V160.901H269.174V128.444L248.609 115.078L228.044 132.262L207.478 156.128L186.913 157.083L166.347 147.536L145.782 155.174L125.217 141.809L104.651 137.035L84.0858 153.264L63.5204 149.446L42.955 137.99L22.3896 113.169Z" fill="#569DC1"/>
<g opacity="0.5">
<path d="M1.64648 10.9336V160.9" stroke="#EEEEEE" stroke-linecap="round" stroke-linejoin="round"/>
<path d="M22.2246 10.9336V160.9" stroke="#EEEEEE" stroke-linecap="round" stroke-linejoin="round"/>
<path d="M42.8047 10.9336V160.9" stroke="#EEEEEE" stroke-linecap="round" stroke-linejoin="round"/>
<path d="M63.3828 10.9336V160.9" stroke="#EEEEEE" stroke-linecap="round" stroke-linejoin="round"/>
<path d="M83.9629 10.9336V160.9" stroke="#EEEEEE" stroke-linecap="round" stroke-linejoin="round"/>
<path d="M104.543 10.9336V160.9" stroke="#EEEEEE" stroke-linecap="round" stroke-linejoin="round"/>
<path d="M125.123 10.9336V160.9" stroke="#EEEEEE" stroke-linecap="round" stroke-linejoin="round"/>
<path d="M269.176 10.9336L1.6474 10.9336" stroke="#EEEEEE" stroke-linecap="round" stroke-linejoin="round"/>
<path d="M269.176 160.9L1.6474 160.9" stroke="#EEEEEE" stroke-linecap="round" stroke-linejoin="round"/>
<path d="M269.176 85.9165L1.6474 85.9165" stroke="#EEEEEE" stroke-linecap="round" stroke-linejoin="round"/>
<path d="M145.701 10.9336V160.9" stroke="#EEEEEE" stroke-linecap="round" stroke-linejoin="round"/>
<path d="M166.279 10.9336V160.9" stroke="#EEEEEE" stroke-linecap="round" stroke-linejoin="round"/>
<path d="M186.857 10.9336V160.9" stroke="#EEEEEE" stroke-linecap="round" stroke-linejoin="round"/>
<path d="M207.438 10.9336V160.9" stroke="#EEEEEE" stroke-linecap="round" stroke-linejoin="round"/>
<path d="M228.016 10.9336V160.9" stroke="#EEEEEE" stroke-linecap="round" stroke-linejoin="round"/>
<path d="M248.596 10.9336V160.9" stroke="#EEEEEE" stroke-linecap="round" stroke-linejoin="round"/>
<path d="M269.176 10.9336V160.9" stroke="#EEEEEE" stroke-linecap="round" stroke-linejoin="round"/>
</g>
<path opacity="0.5" d="M6.02203 8.16H5.45703V5.165C5.4437 5.17833 5.37036 5.22333 5.23703 5.3C5.10703 5.37667 4.92703 5.47333 4.69703 5.59V5.065C4.85703 4.99167 5.00203 4.90667 5.13203 4.81C5.26203 4.71333 5.39036 4.59833 5.51703 4.465H5.88703C5.94036 4.465 5.97536 4.475 5.99203 4.495C6.01203 4.51167 6.02203 4.54667 6.02203 4.6V8.16ZM8.43941 7.775C8.59275 7.775 8.71608 7.72333 8.80941 7.62C8.90275 7.51333 8.97275 7.385 9.01941 7.235C9.06608 7.08167 9.09608 6.92 9.10941 6.75C9.12608 6.57667 9.13441 6.42167 9.13441 6.285C9.13441 6.195 9.13108 6.09667 9.12441 5.99C9.12108 5.88 9.10941 5.77 9.08941 5.66C9.07275 5.54667 9.04941 5.43833 9.01941 5.335C8.98941 5.22833 8.94775 5.135 8.89441 5.055C8.84441 4.97167 8.78108 4.90667 8.70441 4.86C8.63108 4.81 8.54275 4.785 8.43941 4.785C8.33608 4.785 8.24775 4.81 8.17441 4.86C8.10441 4.90667 8.04441 4.97167 7.99441 5.055C7.94441 5.135 7.90441 5.22833 7.87441 5.335C7.84775 5.43833 7.82608 5.54667 7.80941 5.66C7.79608 5.77 7.78608 5.88 7.77941 5.99C7.77608 6.09667 7.77441 6.195 7.77441 6.285C7.77441 6.375 7.77608 6.475 7.77941 6.585C7.78608 6.69167 7.79608 6.8 7.80941 6.91C7.82608 7.02 7.84775 7.12833 7.87441 7.235C7.90441 7.33833 7.94441 7.43 7.99441 7.51C8.04441 7.59 8.10441 7.655 8.17441 7.705C8.24775 7.75167 8.33608 7.775 8.43941 7.775ZM9.46941 7.62C9.37608 7.81 9.24608 7.96333 9.07941 8.08C8.91608 8.19667 8.70275 8.255 8.43941 8.255C8.17941 8.255 7.96775 8.195 7.80441 8.075C7.64441 7.95833 7.51775 7.80667 7.42441 7.62C7.33441 7.43 7.27275 7.21833 7.23941 6.985C7.20941 6.74833 7.19441 6.515 7.19441 6.285C7.19441 6.055 7.20941 5.82333 7.23941 5.59C7.27275 5.35333 7.33441 5.14167 7.42441 4.955C7.51441 4.765 7.64108 4.61 7.80441 4.49C7.96775 4.37 8.17941 4.31 8.43941 4.31C8.70275 4.31 8.91608 4.37 9.07941 4.49C9.24608 4.61 9.37608 4.765 9.46941 4.955C9.56275 5.14167 9.62608 5.35333 9.65941 5.59C9.69608 5.82333 9.71441 6.055 9.71441 6.285C9.71441 6.515 9.69608 6.74833 9.65941 6.985C9.62608 7.21833 9.56275 7.43 9.46941 7.62ZM11.2568 7.775C11.4101 7.775 11.5335 7.72333 11.6268 7.62C11.7201 7.51333 11.7901 7.385 11.8368 7.235C11.8835 7.08167 11.9135 6.92 11.9268 6.75C11.9435 6.57667 11.9518 6.42167 11.9518 6.285C11.9518 6.195 11.9485 6.09667 11.9418 5.99C11.9385 5.88 11.9268 5.77 11.9068 5.66C11.8901 5.54667 11.8668 5.43833 11.8368 5.335C11.8068 5.22833 11.7651 5.135 11.7118 5.055C11.6618 4.97167 11.5985 4.90667 11.5218 4.86C11.4485 4.81 11.3601 4.785 11.2568 4.785C11.1535 4.785 11.0651 4.81 10.9918 4.86C10.9218 4.90667 10.8618 4.97167 10.8118 5.055C10.7618 5.135 10.7218 5.22833 10.6918 5.335C10.6651 5.43833 10.6435 5.54667 10.6268 5.66C10.6135 5.77 10.6035 5.88 10.5968 5.99C10.5935 6.09667 10.5918 6.195 10.5918 6.285C10.5918 6.375 10.5935 6.475 10.5968 6.585C10.6035 6.69167 10.6135 6.8 10.6268 6.91C10.6435 7.02 10.6651 7.12833 10.6918 7.235C10.7218 7.33833 10.7618 7.43 10.8118 7.51C10.8618 7.59 10.9218 7.655 10.9918 7.705C11.0651 7.75167 11.1535 7.775 11.2568 7.775ZM12.2868 7.62C12.1935 7.81 12.0635 7.96333 11.8968 8.08C11.7335 8.19667 11.5201 8.255 11.2568 8.255C10.9968 8.255 10.7851 8.195 10.6218 8.075C10.4618 7.95833 10.3351 7.80667 10.2418 7.62C10.1518 7.43 10.0901 7.21833 10.0568 6.985C10.0268 6.74833 10.0118 6.515 10.0118 6.285C10.0118 6.055 10.0268 5.82333 10.0568 5.59C10.0901 5.35333 10.1518 5.14167 10.2418 4.955C10.3318 4.765 10.4585 4.61 10.6218 4.49C10.7851 4.37 10.9968 4.31 11.2568 4.31C11.5201 4.31 11.7335 4.37 11.8968 4.49C12.0635 4.61 12.1935 4.765 12.2868 4.955C12.3801 5.14167 12.4435 5.35333 12.4768 5.59C12.5135 5.82333 12.5318 6.055 12.5318 6.285C12.5318 6.515 12.5135 6.74833 12.4768 6.985C12.4435 7.21833 12.3801 7.43 12.2868 7.62Z" fill="#484C5D"/>
<path opacity="0.5" d="M4.99203 82.1329C5.0287 82.3529 5.1037 82.5129 5.21703 82.6129C5.33036 82.7129 5.47703 82.7629 5.65703 82.7629C5.84703 82.7629 6.00203 82.6929 6.12203 82.5529C6.24203 82.4129 6.30203 82.2079 6.30203 81.9379C6.30203 81.6479 6.24203 81.4379 6.12203 81.3079C6.00536 81.1746 5.8537 81.1079 5.66703 81.1079C5.52703 81.1079 5.4037 81.1446 5.29703 81.2179C5.1937 81.2879 5.12203 81.3879 5.08203 81.5179C5.07536 81.5446 5.0637 81.5746 5.04703 81.6079C5.0337 81.6379 5.00036 81.6529 4.94703 81.6529H4.64703C4.5937 81.6529 4.55703 81.6429 4.53703 81.6229C4.52036 81.5996 4.51203 81.5646 4.51203 81.5179L4.56703 79.5829C4.56703 79.5296 4.57536 79.4946 4.59203 79.4779C4.61203 79.4579 4.6487 79.4479 4.70203 79.4479H6.68203V79.9179H5.11703L5.06203 80.9079C5.12536 80.8312 5.21536 80.7696 5.33203 80.7229C5.45203 80.6729 5.59203 80.6479 5.75203 80.6479C5.90203 80.6479 6.04536 80.6762 6.18203 80.7329C6.3187 80.7862 6.43703 80.8662 6.53703 80.9729C6.64036 81.0796 6.72203 81.2146 6.78203 81.3779C6.84203 81.5379 6.87203 81.7229 6.87203 81.9329C6.87203 82.1162 6.84203 82.2879 6.78203 82.4479C6.72536 82.6046 6.6437 82.7412 6.53703 82.8579C6.43036 82.9712 6.30203 83.0612 6.15203 83.1279C6.00203 83.1946 5.83536 83.2279 5.65203 83.2279C5.4887 83.2279 5.33536 83.2046 5.19203 83.1579C5.0487 83.1112 4.92203 83.0412 4.81203 82.9479C4.70203 82.8546 4.6137 82.7412 4.54703 82.6079C4.48036 82.4712 4.44203 82.3129 4.43203 82.1329H4.99203ZM8.43941 82.7579C8.59275 82.7579 8.71608 82.7062 8.80941 82.6029C8.90275 82.4962 8.97275 82.3679 9.01941 82.2179C9.06608 82.0646 9.09608 81.9029 9.10941 81.7329C9.12608 81.5596 9.13441 81.4046 9.13441 81.2679C9.13441 81.1779 9.13108 81.0796 9.12441 80.9729C9.12108 80.8629 9.10941 80.7529 9.08941 80.6429C9.07275 80.5296 9.04941 80.4212 9.01941 80.3179C8.98941 80.2112 8.94775 80.1179 8.89441 80.0379C8.84441 79.9546 8.78108 79.8896 8.70441 79.8429C8.63108 79.7929 8.54275 79.7679 8.43941 79.7679C8.33608 79.7679 8.24775 79.7929 8.17441 79.8429C8.10441 79.8896 8.04441 79.9546 7.99441 80.0379C7.94441 80.1179 7.90441 80.2112 7.87441 80.3179C7.84775 80.4212 7.82608 80.5296 7.80941 80.6429C7.79608 80.7529 7.78608 80.8629 7.77941 80.9729C7.77608 81.0796 7.77441 81.1779 7.77441 81.2679C7.77441 81.3579 7.77608 81.4579 7.77941 81.5679C7.78608 81.6746 7.79608 81.7829 7.80941 81.8929C7.82608 82.0029 7.84775 82.1112 7.87441 82.2179C7.90441 82.3212 7.94441 82.4129 7.99441 82.4929C8.04441 82.5729 8.10441 82.6379 8.17441 82.6879C8.24775 82.7346 8.33608 82.7579 8.43941 82.7579ZM9.46941 82.6029C9.37608 82.7929 9.24608 82.9462 9.07941 83.0629C8.91608 83.1796 8.70275 83.2379 8.43941 83.2379C8.17941 83.2379 7.96775 83.1779 7.80441 83.0579C7.64441 82.9412 7.51775 82.7896 7.42441 82.6029C7.33441 82.4129 7.27275 82.2012 7.23941 81.9679C7.20941 81.7312 7.19441 81.4979 7.19441 81.2679C7.19441 81.0379 7.20941 80.8062 7.23941 80.5729C7.27275 80.3362 7.33441 80.1246 7.42441 79.9379C7.51441 79.7479 7.64108 79.5929 7.80441 79.4729C7.96775 79.3529 8.17941 79.2929 8.43941 79.2929C8.70275 79.2929 8.91608 79.3529 9.07941 79.4729C9.24608 79.5929 9.37608 79.7479 9.46941 79.9379C9.56275 80.1246 9.62608 80.3362 9.65941 80.5729C9.69608 80.8062 9.71441 81.0379 9.71441 81.2679C9.71441 81.4979 9.69608 81.7312 9.65941 81.9679C9.62608 82.2012 9.56275 82.4129 9.46941 82.6029Z" fill="#484C5D"/>
<path opacity="0.5" d="M5.62203 157.742C5.77536 157.742 5.8987 157.69 5.99203 157.587C6.08536 157.48 6.15536 157.352 6.20203 157.202C6.2487 157.048 6.2787 156.887 6.29203 156.717C6.3087 156.543 6.31703 156.388 6.31703 156.252C6.31703 156.162 6.3137 156.063 6.30703 155.957C6.3037 155.847 6.29203 155.737 6.27203 155.627C6.25536 155.513 6.23203 155.405 6.20203 155.302C6.17203 155.195 6.13036 155.102 6.07703 155.022C6.02703 154.938 5.9637 154.873 5.88703 154.827C5.8137 154.777 5.72536 154.752 5.62203 154.752C5.5187 154.752 5.43036 154.777 5.35703 154.827C5.28703 154.873 5.22703 154.938 5.17703 155.022C5.12703 155.102 5.08703 155.195 5.05703 155.302C5.03036 155.405 5.0087 155.513 4.99203 155.627C4.9787 155.737 4.9687 155.847 4.96203 155.957C4.9587 156.063 4.95703 156.162 4.95703 156.252C4.95703 156.342 4.9587 156.442 4.96203 156.552C4.9687 156.658 4.9787 156.767 4.99203 156.877C5.0087 156.987 5.03036 157.095 5.05703 157.202C5.08703 157.305 5.12703 157.397 5.17703 157.477C5.22703 157.557 5.28703 157.622 5.35703 157.672C5.43036 157.718 5.5187 157.742 5.62203 157.742ZM6.65203 157.587C6.5587 157.777 6.4287 157.93 6.26203 158.047C6.0987 158.163 5.88536 158.222 5.62203 158.222C5.36203 158.222 5.15036 158.162 4.98703 158.042C4.82703 157.925 4.70036 157.773 4.60703 157.587C4.51703 157.397 4.45536 157.185 4.42203 156.952C4.39203 156.715 4.37703 156.482 4.37703 156.252C4.37703 156.022 4.39203 155.79 4.42203 155.557C4.45536 155.32 4.51703 155.108 4.60703 154.922C4.69703 154.732 4.8237 154.577 4.98703 154.457C5.15036 154.337 5.36203 154.277 5.62203 154.277C5.88536 154.277 6.0987 154.337 6.26203 154.457C6.4287 154.577 6.5587 154.732 6.65203 154.922C6.74536 155.108 6.8087 155.32 6.84203 155.557C6.8787 155.79 6.89703 156.022 6.89703 156.252C6.89703 156.482 6.8787 156.715 6.84203 156.952C6.8087 157.185 6.74536 157.397 6.65203 157.587Z" fill="#484C5D"/>
<circle cx="32.573" cy="176.573" r="2.57301" fill="#569DC1"/>
<path d="M40.974 179.26H40.3321V174.027C40.1859 174.185 40.0044 174.334 39.7877 174.474C39.5711 174.615 39.33 174.753 39.0646 174.889V174.271C39.3084 174.163 39.5359 174.03 39.7471 173.873C39.9638 173.711 40.1669 173.529 40.3565 173.329H40.8196C40.8792 173.329 40.9198 173.34 40.9415 173.361C40.9632 173.383 40.974 173.424 40.974 173.483V179.26ZM46.316 173.524H44.1629V172.979H46.316V173.524ZM46.9497 178.512C46.5597 178.269 46.2239 177.984 45.9422 177.659C45.6606 177.334 45.4304 176.952 45.2516 176.514C44.8833 177.402 44.2983 178.122 43.4966 178.675L42.9441 178.212C44.2333 177.454 44.8887 176.46 44.9104 175.23V174.897H43.3341V174.336H47.1529V174.897H45.5847V175.23C45.6226 176.454 46.2293 177.394 47.4047 178.049L46.9497 178.512ZM48.7372 180.064L48.1035 180.056V172.857H48.7372V175.644H49.8097V176.237H48.7372V180.064ZM57.0094 173.296H54.3606V172.776H57.0094V173.296ZM58.9919 177.156H52.3944V176.619H58.9919V177.156ZM58.1062 180.105H57.4562V178.447H53.1906V177.911H57.9356C58.0006 177.911 58.044 177.925 58.0656 177.952C58.0927 177.974 58.1062 178.017 58.1062 178.082V180.105ZM58.2037 176.156C57.9762 176.118 57.7433 176.07 57.505 176.01C57.2721 175.945 57.0419 175.864 56.8144 175.766C56.5869 175.669 56.3756 175.552 56.1806 175.417C55.991 175.276 55.8312 175.114 55.7012 174.929C55.5821 175.103 55.425 175.257 55.23 175.392C55.035 175.522 54.8237 175.639 54.5962 175.742C54.3633 175.839 54.125 175.923 53.8812 175.994C53.6375 176.064 53.4019 176.118 53.1744 176.156L52.7437 175.652C53.0037 175.62 53.2692 175.571 53.54 175.506C53.8108 175.441 54.0627 175.36 54.2956 175.262C54.5285 175.16 54.7317 175.04 54.905 174.905C55.0837 174.764 55.211 174.602 55.2869 174.417H53.15V173.906H58.22V174.417H56.0912C56.1617 174.602 56.2835 174.764 56.4569 174.905C56.6356 175.046 56.8469 175.168 57.0906 175.271C57.3235 175.368 57.5727 175.449 57.8381 175.514C58.109 175.579 58.369 175.625 58.6181 175.652L58.2037 176.156ZM63.5831 176.782C63.4422 176.722 63.2879 176.644 63.1199 176.546C62.952 176.443 62.7868 176.327 62.6243 176.197C62.4618 176.067 62.3074 175.921 62.1612 175.758C62.0149 175.596 61.8931 175.417 61.7956 175.222C61.7306 175.411 61.6385 175.593 61.5193 175.766C61.4001 175.934 61.262 176.094 61.1049 176.246C60.9479 176.397 60.7745 176.538 60.5849 176.668C60.4008 176.793 60.2085 176.904 60.0081 177.001L59.5287 176.571C59.7887 176.468 60.0351 176.338 60.2681 176.181C60.501 176.018 60.7041 175.829 60.8774 175.612C61.0508 175.401 61.1889 175.162 61.2918 174.897C61.4001 174.631 61.4543 174.336 61.4543 174.011V173.735H60.0243V173.191H63.5424V173.735H62.1287V174.027C62.1287 174.325 62.1801 174.596 62.2831 174.84C62.386 175.084 62.5241 175.303 62.6974 175.498C62.8708 175.688 63.0685 175.853 63.2906 175.994C63.5127 176.129 63.7456 176.235 63.9893 176.311L63.5831 176.782ZM65.5981 177.221H64.9643V175.035H63.4693V174.499H64.9643V172.857H65.5981V177.221ZM65.7281 178.724C65.7281 179.173 65.5033 179.528 65.0537 179.788C64.6041 180.048 64.0083 180.178 63.2662 180.178C62.8924 180.178 62.5539 180.143 62.2506 180.072C61.9526 180.008 61.6981 179.913 61.4868 179.788C61.2701 179.664 61.1049 179.512 60.9912 179.333C60.8774 179.154 60.8206 178.951 60.8206 178.724C60.8206 178.507 60.8774 178.309 60.9912 178.131C61.1104 177.946 61.2783 177.792 61.4949 177.667C61.7116 177.537 61.9662 177.437 62.2587 177.367C62.5566 177.296 62.8924 177.261 63.2662 177.261C64.0083 177.261 64.6041 177.397 65.0537 177.667C65.5033 177.938 65.7281 178.29 65.7281 178.724ZM64.5418 179.423C64.6989 179.341 64.8235 179.241 64.9156 179.122C65.0077 179.008 65.0537 178.878 65.0537 178.732C65.0537 178.445 64.8831 178.215 64.5418 178.041C64.2114 177.873 63.7862 177.789 63.2662 177.789C62.757 177.789 62.3372 177.873 62.0068 178.041C61.8497 178.117 61.7251 178.215 61.6331 178.334C61.5464 178.447 61.5031 178.577 61.5031 178.724C61.5031 178.87 61.5464 179.003 61.6331 179.122C61.7251 179.241 61.8524 179.341 62.0149 179.423C62.3291 179.59 62.7462 179.674 63.2662 179.674C63.7862 179.674 64.2114 179.59 64.5418 179.423Z" fill="#484C5D"/>
<circle cx="90.573" cy="176.573" r="2.57301" fill="#64B3C7"/>
<path d="M100.195 179.26H96.6284C96.5797 179.26 96.5472 179.252 96.5309 179.236C96.5201 179.219 96.5147 179.187 96.5147 179.138V178.651C96.6393 178.531 96.7964 178.377 96.9859 178.187C97.1809 177.998 97.3841 177.789 97.5953 177.562C97.812 177.329 98.0259 177.088 98.2372 176.839C98.4539 176.59 98.6461 176.343 98.8141 176.099C98.9874 175.85 99.1282 175.615 99.2366 175.392C99.3449 175.17 99.3991 174.975 99.3991 174.807C99.4045 174.45 99.3016 174.185 99.0903 174.011C98.8845 173.838 98.6191 173.751 98.2941 173.751C97.9799 173.751 97.7226 173.857 97.5222 174.068C97.3272 174.279 97.2297 174.564 97.2297 174.921H96.5634C96.5634 174.656 96.6068 174.417 96.6934 174.206C96.7855 173.995 96.9101 173.814 97.0672 173.662C97.2243 173.51 97.4084 173.394 97.6197 173.312C97.8309 173.231 98.0611 173.191 98.3103 173.191C98.5595 173.191 98.7897 173.226 99.0009 173.296C99.2176 173.361 99.4045 173.459 99.5616 173.589C99.7186 173.719 99.8405 173.881 99.9272 174.076C100.019 174.271 100.065 174.499 100.065 174.759C100.065 174.981 100.017 175.214 99.9191 175.457C99.8216 175.701 99.6916 175.948 99.5291 176.197C99.372 176.441 99.1905 176.684 98.9847 176.928C98.7843 177.166 98.5784 177.394 98.3672 177.611C98.1614 177.827 97.9609 178.03 97.7659 178.22C97.5709 178.404 97.4003 178.564 97.2541 178.699H100.195V179.26ZM104.302 173.524H102.149V172.979H104.302V173.524ZM104.936 178.512C104.546 178.269 104.21 177.984 103.929 177.659C103.647 177.334 103.417 176.952 103.238 176.514C102.87 177.402 102.285 178.122 101.483 178.675L100.93 178.212C102.22 177.454 102.875 176.46 102.897 175.23V174.897H101.32V174.336H105.139V174.897H103.571V175.23C103.609 176.454 104.216 177.394 105.391 178.049L104.936 178.512ZM106.724 180.064L106.09 180.056V172.857H106.724V175.644H107.796V176.237H106.724V180.064ZM114.996 173.296H112.347V172.776H114.996V173.296ZM116.978 177.156H110.381V176.619H116.978V177.156ZM116.093 180.105H115.443V178.447H111.177V177.911H115.922C115.987 177.911 116.03 177.925 116.052 177.952C116.079 177.974 116.093 178.017 116.093 178.082V180.105ZM116.19 176.156C115.963 176.118 115.73 176.07 115.491 176.01C115.258 175.945 115.028 175.864 114.801 175.766C114.573 175.669 114.362 175.552 114.167 175.417C113.977 175.276 113.818 175.114 113.688 174.929C113.568 175.103 113.411 175.257 113.216 175.392C113.021 175.522 112.81 175.639 112.583 175.742C112.35 175.839 112.111 175.923 111.868 175.994C111.624 176.064 111.388 176.118 111.161 176.156L110.73 175.652C110.99 175.62 111.255 175.571 111.526 175.506C111.797 175.441 112.049 175.36 112.282 175.262C112.515 175.16 112.718 175.04 112.891 174.905C113.07 174.764 113.197 174.602 113.273 174.417H111.136V173.906H116.206V174.417H114.078C114.148 174.602 114.27 174.764 114.443 174.905C114.622 175.046 114.833 175.168 115.077 175.271C115.31 175.368 115.559 175.449 115.824 175.514C116.095 175.579 116.355 175.625 116.604 175.652L116.19 176.156ZM121.569 176.782C121.429 176.722 121.274 176.644 121.106 176.546C120.938 176.443 120.773 176.327 120.611 176.197C120.448 176.067 120.294 175.921 120.148 175.758C120.001 175.596 119.879 175.417 119.782 175.222C119.717 175.411 119.625 175.593 119.506 175.766C119.386 175.934 119.248 176.094 119.091 176.246C118.934 176.397 118.761 176.538 118.571 176.668C118.387 176.793 118.195 176.904 117.994 177.001L117.515 176.571C117.775 176.468 118.021 176.338 118.254 176.181C118.487 176.018 118.69 175.829 118.864 175.612C119.037 175.401 119.175 175.162 119.278 174.897C119.386 174.631 119.441 174.336 119.441 174.011V173.735H118.011V173.191H121.529V173.735H120.115V174.027C120.115 174.325 120.166 174.596 120.269 174.84C120.372 175.084 120.51 175.303 120.684 175.498C120.857 175.688 121.055 175.853 121.277 175.994C121.499 176.129 121.732 176.235 121.976 176.311L121.569 176.782ZM123.584 177.221H122.951V175.035H121.456V174.499H122.951V172.857H123.584V177.221ZM123.714 178.724C123.714 179.173 123.49 179.528 123.04 179.788C122.59 180.048 121.995 180.178 121.253 180.178C120.879 180.178 120.54 180.143 120.237 180.072C119.939 180.008 119.684 179.913 119.473 179.788C119.256 179.664 119.091 179.512 118.978 179.333C118.864 179.154 118.807 178.951 118.807 178.724C118.807 178.507 118.864 178.309 118.978 178.131C119.097 177.946 119.265 177.792 119.481 177.667C119.698 177.537 119.953 177.437 120.245 177.367C120.543 177.296 120.879 177.261 121.253 177.261C121.995 177.261 122.59 177.397 123.04 177.667C123.49 177.938 123.714 178.29 123.714 178.724ZM122.528 179.423C122.685 179.341 122.81 179.241 122.902 179.122C122.994 179.008 123.04 178.878 123.04 178.732C123.04 178.445 122.869 178.215 122.528 178.041C122.198 177.873 121.773 177.789 121.253 177.789C120.743 177.789 120.324 177.873 119.993 178.041C119.836 178.117 119.711 178.215 119.619 178.334C119.533 178.447 119.489 178.577 119.489 178.724C119.489 178.87 119.533 179.003 119.619 179.122C119.711 179.241 119.839 179.341 120.001 179.423C120.315 179.59 120.733 179.674 121.253 179.674C121.773 179.674 122.198 179.59 122.528 179.423Z" fill="#484C5D"/>
<circle cx="148.573" cy="176.573" r="2.57301" fill="#84CBCD"/>
<path d="M155.032 177.651C155.124 178.442 155.555 178.837 156.324 178.837C156.73 178.837 157.047 178.732 157.275 178.521C157.508 178.309 157.624 178.009 157.624 177.619C157.624 177.418 157.586 177.248 157.51 177.107C157.434 176.961 157.334 176.841 157.21 176.749C157.085 176.657 156.941 176.59 156.779 176.546C156.616 176.497 156.451 176.47 156.283 176.465H155.958C155.899 176.465 155.861 176.46 155.845 176.449C155.834 176.432 155.828 176.395 155.828 176.335V176.034C155.828 175.969 155.834 175.926 155.845 175.904C155.861 175.883 155.899 175.872 155.958 175.872H156.226C156.394 175.866 156.554 175.845 156.706 175.807C156.858 175.764 156.99 175.701 157.104 175.62C157.223 175.533 157.318 175.425 157.388 175.295C157.459 175.165 157.494 175.005 157.494 174.816C157.494 174.469 157.38 174.206 157.153 174.027C156.931 173.843 156.649 173.751 156.308 173.751C155.587 173.751 155.192 174.109 155.121 174.824H154.471C154.477 174.575 154.526 174.35 154.618 174.149C154.71 173.944 154.837 173.77 155 173.629C155.162 173.489 155.354 173.38 155.576 173.304C155.804 173.229 156.056 173.191 156.332 173.191C156.576 173.191 156.806 173.223 157.023 173.288C157.239 173.348 157.432 173.442 157.6 173.572C157.768 173.702 157.9 173.868 157.998 174.068C158.095 174.269 158.144 174.507 158.144 174.783C158.144 174.956 158.114 175.122 158.055 175.279C158 175.43 157.919 175.569 157.811 175.693C157.708 175.818 157.581 175.923 157.429 176.01C157.283 176.097 157.12 176.156 156.941 176.189C157.142 176.216 157.323 176.273 157.486 176.359C157.648 176.446 157.786 176.554 157.9 176.684C158.019 176.814 158.111 176.966 158.176 177.139C158.241 177.313 158.274 177.497 158.274 177.692C158.274 177.995 158.217 178.255 158.103 178.472C157.995 178.683 157.849 178.859 157.665 179C157.486 179.135 157.277 179.236 157.039 179.301C156.801 179.366 156.554 179.398 156.3 179.398C156.007 179.398 155.744 179.358 155.511 179.276C155.279 179.2 155.081 179.087 154.918 178.935C154.756 178.783 154.629 178.599 154.536 178.382C154.444 178.166 154.396 177.922 154.39 177.651H155.032ZM162.316 173.524H160.163V172.979H162.316V173.524ZM162.95 178.512C162.56 178.269 162.224 177.984 161.942 177.659C161.661 177.334 161.43 176.952 161.252 176.514C160.883 177.402 160.298 178.122 159.497 178.675L158.944 178.212C160.233 177.454 160.889 176.46 160.91 175.23V174.897H159.334V174.336H163.153V174.897H161.585V175.23C161.623 176.454 162.229 177.394 163.405 178.049L162.95 178.512ZM164.737 180.064L164.103 180.056V172.857H164.737V175.644H165.81V176.237H164.737V180.064ZM173.009 173.296H170.361V172.776H173.009V173.296ZM174.992 177.156H168.394V176.619H174.992V177.156ZM174.106 180.105H173.456V178.447H169.191V177.911H173.936C174.001 177.911 174.044 177.925 174.066 177.952C174.093 177.974 174.106 178.017 174.106 178.082V180.105ZM174.204 176.156C173.976 176.118 173.743 176.07 173.505 176.01C173.272 175.945 173.042 175.864 172.814 175.766C172.587 175.669 172.376 175.552 172.181 175.417C171.991 175.276 171.831 175.114 171.701 174.929C171.582 175.103 171.425 175.257 171.23 175.392C171.035 175.522 170.824 175.639 170.596 175.742C170.363 175.839 170.125 175.923 169.881 175.994C169.637 176.064 169.402 176.118 169.174 176.156L168.744 175.652C169.004 175.62 169.269 175.571 169.54 175.506C169.811 175.441 170.063 175.36 170.296 175.262C170.529 175.16 170.732 175.04 170.905 174.905C171.084 174.764 171.211 174.602 171.287 174.417H169.15V173.906H174.22V174.417H172.091C172.162 174.602 172.284 174.764 172.457 174.905C172.636 175.046 172.847 175.168 173.091 175.271C173.324 175.368 173.573 175.449 173.838 175.514C174.109 175.579 174.369 175.625 174.618 175.652L174.204 176.156ZM179.583 176.782C179.442 176.722 179.288 176.644 179.12 176.546C178.952 176.443 178.787 176.327 178.624 176.197C178.462 176.067 178.307 175.921 178.161 175.758C178.015 175.596 177.893 175.417 177.796 175.222C177.731 175.411 177.638 175.593 177.519 175.766C177.4 175.934 177.262 176.094 177.105 176.246C176.948 176.397 176.775 176.538 176.585 176.668C176.401 176.793 176.208 176.904 176.008 177.001L175.529 176.571C175.789 176.468 176.035 176.338 176.268 176.181C176.501 176.018 176.704 175.829 176.877 175.612C177.051 175.401 177.189 175.162 177.292 174.897C177.4 174.631 177.454 174.336 177.454 174.011V173.735H176.024V173.191H179.542V173.735H178.129V174.027C178.129 174.325 178.18 174.596 178.283 174.84C178.386 175.084 178.524 175.303 178.697 175.498C178.871 175.688 179.068 175.853 179.291 175.994C179.513 176.129 179.746 176.235 179.989 176.311L179.583 176.782ZM181.598 177.221H180.964V175.035H179.469V174.499H180.964V172.857H181.598V177.221ZM181.728 178.724C181.728 179.173 181.503 179.528 181.054 179.788C180.604 180.048 180.008 180.178 179.266 180.178C178.892 180.178 178.554 180.143 178.251 180.072C177.953 180.008 177.698 179.913 177.487 179.788C177.27 179.664 177.105 179.512 176.991 179.333C176.877 179.154 176.821 178.951 176.821 178.724C176.821 178.507 176.877 178.309 176.991 178.131C177.11 177.946 177.278 177.792 177.495 177.667C177.712 177.537 177.966 177.437 178.259 177.367C178.557 177.296 178.892 177.261 179.266 177.261C180.008 177.261 180.604 177.397 181.054 177.667C181.503 177.938 181.728 178.29 181.728 178.724ZM180.542 179.423C180.699 179.341 180.823 179.241 180.916 179.122C181.008 179.008 181.054 178.878 181.054 178.732C181.054 178.445 180.883 178.215 180.542 178.041C180.211 177.873 179.786 177.789 179.266 177.789C178.757 177.789 178.337 177.873 178.007 178.041C177.85 178.117 177.725 178.215 177.633 178.334C177.546 178.447 177.503 178.577 177.503 178.724C177.503 178.87 177.546 179.003 177.633 179.122C177.725 179.241 177.852 179.341 178.015 179.423C178.329 179.59 178.746 179.674 179.266 179.674C179.786 179.674 180.211 179.59 180.542 179.423Z" fill="#484C5D"/>
<circle cx="206.573" cy="176.573" r="2.57301" fill="#B4E1D6"/>
<path d="M215.352 177.399V174.71L215.368 173.962L213.272 177.399H215.352ZM215.969 179.26H215.336V177.96H212.809C212.706 177.96 212.654 177.909 212.654 177.806V177.464C212.654 177.389 212.679 177.313 212.728 177.237L215.1 173.345C215.133 173.275 215.187 173.239 215.263 173.239H215.815C215.875 173.239 215.915 173.25 215.937 173.272C215.959 173.294 215.969 173.334 215.969 173.394V177.399H216.855V177.96H215.969V179.26ZM220.669 173.524H218.516V172.979H220.669V173.524ZM221.303 178.512C220.913 178.269 220.577 177.984 220.296 177.659C220.014 177.334 219.784 176.952 219.605 176.514C219.237 177.402 218.652 178.122 217.85 178.675L217.298 178.212C218.587 177.454 219.242 176.46 219.264 175.23V174.897H217.688V174.336H221.506V174.897H219.938V175.23C219.976 176.454 220.583 177.394 221.758 178.049L221.303 178.512ZM223.091 180.064L222.457 180.056V172.857H223.091V175.644H224.163V176.237H223.091V180.064ZM231.363 173.296H228.714V172.776H231.363V173.296ZM233.345 177.156H226.748V176.619H233.345V177.156ZM232.46 180.105H231.81V178.447H227.544V177.911H232.289C232.354 177.911 232.397 177.925 232.419 177.952C232.446 177.974 232.46 178.017 232.46 178.082V180.105ZM232.557 176.156C232.33 176.118 232.097 176.07 231.859 176.01C231.626 175.945 231.395 175.864 231.168 175.766C230.94 175.669 230.729 175.552 230.534 175.417C230.345 175.276 230.185 175.114 230.055 174.929C229.936 175.103 229.779 175.257 229.584 175.392C229.389 175.522 229.177 175.639 228.95 175.742C228.717 175.839 228.479 175.923 228.235 175.994C227.991 176.064 227.755 176.118 227.528 176.156L227.097 175.652C227.357 175.62 227.623 175.571 227.894 175.506C228.164 175.441 228.416 175.36 228.649 175.262C228.882 175.16 229.085 175.04 229.259 174.905C229.437 174.764 229.565 174.602 229.64 174.417H227.504V173.906H232.574V174.417H230.445C230.515 174.602 230.637 174.764 230.81 174.905C230.989 175.046 231.2 175.168 231.444 175.271C231.677 175.368 231.926 175.449 232.192 175.514C232.462 175.579 232.722 175.625 232.972 175.652L232.557 176.156ZM237.937 176.782C237.796 176.722 237.641 176.644 237.473 176.546C237.306 176.443 237.14 176.327 236.978 176.197C236.815 176.067 236.661 175.921 236.515 175.758C236.368 175.596 236.247 175.417 236.149 175.222C236.084 175.411 235.992 175.593 235.873 175.766C235.754 175.934 235.616 176.094 235.458 176.246C235.301 176.397 235.128 176.538 234.938 176.668C234.754 176.793 234.562 176.904 234.362 177.001L233.882 176.571C234.142 176.468 234.389 176.338 234.622 176.181C234.854 176.018 235.058 175.829 235.231 175.612C235.404 175.401 235.542 175.162 235.645 174.897C235.754 174.631 235.808 174.336 235.808 174.011V173.735H234.378V173.191H237.896V173.735H236.482V174.027C236.482 174.325 236.534 174.596 236.637 174.84C236.739 175.084 236.878 175.303 237.051 175.498C237.224 175.688 237.422 175.853 237.644 175.994C237.866 176.129 238.099 176.235 238.343 176.311L237.937 176.782ZM239.952 177.221H239.318V175.035H237.823V174.499H239.318V172.857H239.952V177.221ZM240.082 178.724C240.082 179.173 239.857 179.528 239.407 179.788C238.958 180.048 238.362 180.178 237.62 180.178C237.246 180.178 236.907 180.143 236.604 180.072C236.306 180.008 236.052 179.913 235.84 179.788C235.624 179.664 235.458 179.512 235.345 179.333C235.231 179.154 235.174 178.951 235.174 178.724C235.174 178.507 235.231 178.309 235.345 178.131C235.464 177.946 235.632 177.792 235.848 177.667C236.065 177.537 236.32 177.437 236.612 177.367C236.91 177.296 237.246 177.261 237.62 177.261C238.362 177.261 238.958 177.397 239.407 177.667C239.857 177.938 240.082 178.29 240.082 178.724ZM238.895 179.423C239.052 179.341 239.177 179.241 239.269 179.122C239.361 179.008 239.407 178.878 239.407 178.732C239.407 178.445 239.237 178.215 238.895 178.041C238.565 177.873 238.14 177.789 237.62 177.789C237.111 177.789 236.691 177.873 236.36 178.041C236.203 178.117 236.079 178.215 235.987 178.334C235.9 178.447 235.857 178.577 235.857 178.724C235.857 178.87 235.9 179.003 235.987 179.122C236.079 179.241 236.206 179.341 236.368 179.423C236.683 179.59 237.1 179.674 237.62 179.674C238.14 179.674 238.565 179.59 238.895 179.423Z" fill="#484C5D"/>
</svg>
