<svg width="294" height="81" viewBox="0 0 294 81" fill="none" xmlns="http://www.w3.org/2000/svg">
<g clip-path="url(#clip0_322_4622)">
<path d="M95 80V1C95 0.447715 94.5523 0 94 0C93.4477 0 93 0.447715 93 0.999999V80C93 80.5523 93.4477 81 94 81C94.5523 81 95 80.5523 95 80Z" fill="#BBBBBB"/>
<path d="M204.365 35H209.757L207.047 39.695L204.365 44.3898L201.682 39.695L199 35H204.365Z" fill="#454545"/>
<g clip-path="url(#clip1_322_4622)">
<path d="M38 5C45.1201 5 52.0804 7.11136 58.0005 11.0671C63.9207 15.0228 68.5349 20.6453 71.2597 27.2234C73.9844 33.8015 74.6974 41.0399 73.3083 48.0233C71.9192 55.0066 68.4905 61.4212 63.4559 66.4558C58.4212 71.4905 52.0066 74.9192 45.0233 76.3083C38.04 77.6973 30.8016 76.9844 24.2234 74.2597C17.6453 71.5349 12.0228 66.9207 8.06711 61.0005C4.11138 55.0804 2.00002 48.1201 2.00002 41C2.00002 31.4522 5.79286 22.2955 12.5442 15.5442C19.2955 8.79285 28.4522 5 38 5ZM38 3C30.4843 3 23.1374 5.22866 16.8883 9.40415C10.6393 13.5796 5.76872 19.5144 2.89259 26.458C0.0164647 33.4016 -0.736062 41.0422 0.730176 48.4134C2.19641 55.7847 5.81556 62.5557 11.13 67.8701C16.4444 73.1844 23.2153 76.8036 30.5866 78.2698C37.9579 79.7361 45.5984 78.9836 52.542 76.1074C59.4856 73.2313 65.4204 68.3607 69.5959 62.1117C73.7714 55.8626 76 48.5157 76 41C76 30.9218 71.9965 21.2563 64.8701 14.1299C57.7437 7.00356 48.0782 3 38 3V3Z" fill="#454545"/>
<path d="M37.8891 68.31C35.4891 68.31 32.9691 67.12 30.3991 64.76C27.403 62.1658 25.2567 58.7302 24.2391 54.9C23.8662 53.4368 23.2619 52.0425 22.4491 50.77C22.1415 50.2601 21.8644 49.7325 21.6191 49.19C20.1591 45.79 19.9991 42.14 19.9991 39V31.6C19.9428 29.2197 20.363 26.8521 21.235 24.6366C22.1069 22.421 23.4131 20.4022 25.0767 18.6988C26.7402 16.9954 28.7276 15.6418 30.9219 14.7176C33.1162 13.7935 35.4732 13.3174 37.8541 13.3174C40.2351 13.3174 42.5921 13.7935 44.7864 14.7176C46.9807 15.6418 48.968 16.9954 50.6316 18.6988C52.2952 20.4022 53.6013 22.421 54.4733 24.6366C55.3453 26.8521 55.7655 29.2197 55.7091 31.6V39C55.7091 42.15 55.5891 45.8 54.1291 49.2C53.8843 49.7446 53.6037 50.2724 53.2891 50.78C52.4846 52.0569 51.8808 53.4498 51.4991 54.91C50.4856 58.742 48.3386 62.1786 45.3391 64.77C42.8191 67.12 40.2991 68.31 37.8891 68.31ZM37.8891 16.06C33.7729 16.0653 29.8269 17.7035 26.9172 20.6151C24.0075 23.5266 22.3718 27.4737 22.3691 31.59V39C22.3691 41.92 22.4791 45.29 23.7591 48.28C23.9716 48.7358 24.2087 49.1798 24.4691 49.61C25.3762 51.081 26.0508 52.6832 26.4691 54.36C27.3984 57.7461 29.3253 60.7741 31.9991 63.05C34.0991 65 36.0891 66 37.8891 66C39.6891 66 41.6791 65 43.8091 63.06C46.4604 60.7754 48.3658 57.7484 49.2791 54.37C49.6978 52.6933 50.3724 51.0912 51.2791 49.62C51.5471 49.1854 51.7875 48.7345 51.9991 48.27C53.2791 45.27 53.3891 41.91 53.3891 38.99V31.59C53.3839 27.478 51.7501 23.5354 48.8453 20.625C45.9405 17.7146 42.0011 16.0732 37.8891 16.06Z" fill="#454545"/>
<path d="M37.8906 53.7301C37.4007 53.7316 36.9156 53.633 36.4651 53.4404C36.0146 53.2478 35.6081 52.9653 35.2706 52.6101C34.933 52.2531 34.6705 51.8319 34.4987 51.3716C34.327 50.9112 34.2494 50.421 34.2706 49.9301L34.3506 48.2401C34.5006 45.3601 34.6506 42.3701 34.3506 41.6601C33.5305 41.5289 32.6968 41.5054 31.8706 41.5901C29.8006 41.6601 27.2306 41.7701 25.5406 40.4101C25.3252 40.2086 25.1939 39.9333 25.1729 39.6391C25.1519 39.3449 25.2427 39.0537 25.4273 38.8236C25.6118 38.5936 25.8764 38.4417 26.1682 38.3984C26.4599 38.3551 26.7572 38.4236 27.0006 38.5901C28.0006 39.4001 30.1006 39.3201 31.7806 39.2501C33.4606 39.1801 34.7806 39.1401 35.7306 39.7701C37.1106 40.7101 36.9906 43.1101 36.7306 48.3601L36.6006 50.0001C36.5925 50.175 36.6198 50.3497 36.6809 50.5137C36.742 50.6778 36.8355 50.8278 36.956 50.9548C37.0765 51.0818 37.2214 51.1832 37.3819 51.2528C37.5425 51.3225 37.7155 51.359 37.8906 51.3601C38.0527 51.3451 38.2161 51.364 38.3704 51.4158C38.5247 51.4675 38.6665 51.5508 38.7868 51.6605C38.9071 51.7701 39.0032 51.9036 39.0689 52.0525C39.1347 52.2014 39.1686 52.3624 39.1686 52.5251C39.1686 52.6879 39.1347 52.8489 39.0689 52.9977C39.0032 53.1466 38.9071 53.2802 38.7868 53.3898C38.6665 53.4994 38.5247 53.5828 38.3704 53.6345C38.2161 53.6862 38.0527 53.7052 37.8906 53.6901V53.7301Z" fill="#454545"/>
<path d="M40.7507 41.8898C40.573 41.891 40.3975 41.8509 40.2378 41.7729C40.0782 41.6948 39.9389 41.5808 39.8307 41.4398C39.7367 41.3197 39.6672 41.1822 39.6264 41.0353C39.5855 40.8883 39.574 40.7347 39.5926 40.5833C39.6112 40.4319 39.6595 40.2857 39.7346 40.1529C39.8098 40.0202 39.9104 39.9036 40.0307 39.8098C41.1407 38.9998 43.0007 38.9998 44.8707 38.9998C46.2689 39.0977 47.6726 38.9175 49.0007 38.4698C49.2744 38.3332 49.5907 38.3092 49.8819 38.403C50.173 38.4968 50.4159 38.7009 50.5584 38.9715C50.7009 39.2422 50.7318 39.5579 50.6444 39.851C50.5569 40.1442 50.3582 40.3914 50.0907 40.5398C48.6607 41.2798 46.7307 41.2798 44.8607 41.2798C43.5507 41.2798 41.9307 41.2798 41.4607 41.6498C41.2551 41.8023 41.0067 41.8863 40.7507 41.8898Z" fill="#454545"/>
<path d="M26.4102 44.4301C26.4102 44.5982 26.46 44.7625 26.5534 44.9023C26.6468 45.0421 26.7796 45.151 26.9349 45.2154C27.0902 45.2797 27.2611 45.2965 27.426 45.2637C27.5909 45.2309 27.7423 45.15 27.8612 45.0311C27.9801 44.9122 28.061 44.7608 28.0938 44.5959C28.1266 44.431 28.1098 44.2601 28.0455 44.1048C27.9811 43.9495 27.8722 43.8167 27.7324 43.7233C27.5926 43.6299 27.4283 43.5801 27.2602 43.5801C27.0347 43.5801 26.8185 43.6696 26.6591 43.829C26.4997 43.9884 26.4102 44.2046 26.4102 44.4301Z" fill="#FE3347"/>
<path d="M29.0898 44.4301C29.0898 44.5982 29.1397 44.7625 29.2331 44.9023C29.3265 45.0421 29.4592 45.151 29.6146 45.2154C29.7699 45.2797 29.9408 45.2965 30.1057 45.2637C30.2706 45.2309 30.422 45.15 30.5409 45.0311C30.6598 44.9122 30.7407 44.7608 30.7735 44.5959C30.8063 44.431 30.7895 44.2601 30.7251 44.1048C30.6608 43.9495 30.5519 43.8167 30.4121 43.7233C30.2723 43.6299 30.108 43.5801 29.9398 43.5801C29.7144 43.5801 29.4982 43.6696 29.3388 43.829C29.1794 43.9884 29.0898 44.2046 29.0898 44.4301Z" fill="#FE3347"/>
<path d="M31.7793 44.4301C31.7793 44.5987 31.8294 44.7634 31.9233 44.9034C32.0171 45.0434 32.1505 45.1523 32.3064 45.2163C32.4623 45.2804 32.6337 45.2966 32.7988 45.263C32.964 45.2294 33.1154 45.1474 33.2339 45.0276C33.3523 44.9077 33.4325 44.7553 33.4642 44.5897C33.4958 44.4242 33.4776 44.253 33.4117 44.0979C33.3458 43.9427 33.2353 43.8107 33.0942 43.7185C32.9531 43.6263 32.7878 43.5782 32.6193 43.5801C32.3956 43.5828 32.182 43.6735 32.0247 43.8326C31.8675 43.9917 31.7793 44.2064 31.7793 44.4301Z" fill="#FE3347"/>
<path d="M34.4609 44.4301C34.4609 44.5982 34.5108 44.7625 34.6042 44.9023C34.6976 45.0421 34.8303 45.151 34.9857 45.2154C35.141 45.2797 35.3119 45.2965 35.4768 45.2637C35.6416 45.2309 35.7931 45.15 35.912 45.0311C36.0309 44.9122 36.1118 44.7608 36.1446 44.5959C36.1774 44.431 36.1606 44.2601 36.0962 44.1048C36.0319 43.9495 35.923 43.8167 35.7832 43.7233C35.6434 43.6299 35.4791 43.5801 35.3109 43.5801C35.0855 43.5801 34.8693 43.6696 34.7099 43.829C34.5505 43.9884 34.4609 44.2046 34.4609 44.4301Z" fill="#FE3347"/>
<path d="M37.1406 44.4301C37.1406 44.5982 37.1905 44.7625 37.2839 44.9023C37.3773 45.0421 37.51 45.151 37.6653 45.2154C37.8207 45.2797 37.9916 45.2965 38.1565 45.2637C38.3213 45.2309 38.4728 45.15 38.5917 45.0311C38.7105 44.9122 38.7915 44.7608 38.8243 44.5959C38.8571 44.431 38.8403 44.2601 38.7759 44.1048C38.7116 43.9495 38.6026 43.8167 38.4629 43.7233C38.3231 43.6299 38.1587 43.5801 37.9906 43.5801C37.7652 43.5801 37.549 43.6696 37.3896 43.829C37.2302 43.9884 37.1406 44.2046 37.1406 44.4301Z" fill="#FE3347"/>
<path d="M39.8203 44.4301C39.8203 44.5982 39.8702 44.7625 39.9636 44.9023C40.057 45.0421 40.1897 45.151 40.345 45.2154C40.5003 45.2797 40.6713 45.2965 40.8361 45.2637C41.001 45.2309 41.1525 45.15 41.2714 45.0311C41.3902 44.9122 41.4712 44.7608 41.504 44.5959C41.5368 44.431 41.5199 44.2601 41.4556 44.1048C41.3913 43.9495 41.2823 43.8167 41.1425 43.7233C41.0028 43.6299 40.8384 43.5801 40.6703 43.5801C40.4449 43.5801 40.2287 43.6696 40.0693 43.829C39.9099 43.9884 39.8203 44.2046 39.8203 44.4301Z" fill="#FE3347"/>
<path d="M42.5 44.4301C42.5 44.5982 42.5499 44.7625 42.6432 44.9023C42.7366 45.0421 42.8694 45.151 43.0247 45.2154C43.18 45.2797 43.3509 45.2965 43.5158 45.2637C43.6807 45.2309 43.8322 45.15 43.951 45.0311C44.0699 44.9122 44.1509 44.7608 44.1837 44.5959C44.2165 44.431 44.1996 44.2601 44.1353 44.1048C44.071 43.9495 43.962 43.8167 43.8222 43.7233C43.6825 43.6299 43.5181 43.5801 43.35 43.5801C43.1254 43.5827 42.9107 43.6731 42.7518 43.8319C42.593 43.9908 42.5026 44.2054 42.5 44.4301Z" fill="#FE3347"/>
<path d="M45.1895 44.4301C45.1895 44.5982 45.2393 44.7625 45.3327 44.9023C45.4261 45.0421 45.5589 45.151 45.7142 45.2154C45.8695 45.2797 46.0404 45.2965 46.2053 45.2637C46.3702 45.2309 46.5216 45.15 46.6405 45.0311C46.7594 44.9122 46.8403 44.7608 46.8731 44.5959C46.9059 44.431 46.8891 44.2601 46.8248 44.1048C46.7604 43.9495 46.6515 43.8167 46.5117 43.7233C46.3719 43.6299 46.2076 43.5801 46.0395 43.5801C45.814 43.5801 45.5978 43.6696 45.4384 43.829C45.279 43.9884 45.1895 44.2046 45.1895 44.4301Z" fill="#FE3347"/>
<path d="M47.8691 44.4301C47.8691 44.5982 47.919 44.7625 48.0124 44.9023C48.1058 45.0421 48.2385 45.151 48.3939 45.2154C48.5492 45.2797 48.7201 45.2965 48.885 45.2637C49.0499 45.2309 49.2013 45.15 49.3202 45.0311C49.4391 44.9122 49.52 44.7608 49.5528 44.5959C49.5856 44.431 49.5688 44.2601 49.5044 44.1048C49.4401 43.9495 49.3312 43.8167 49.1914 43.7233C49.0516 43.6299 48.8873 43.5801 48.7191 43.5801C48.6075 43.5801 48.497 43.6021 48.3939 43.6448C48.2907 43.6875 48.197 43.7501 48.1181 43.829C48.0392 43.908 47.9766 44.0017 47.9338 44.1048C47.8911 44.2079 47.8691 44.3185 47.8691 44.4301Z" fill="#FE3347"/>
<path d="M24.4406 40.4C24.4999 40.3989 24.5588 40.4099 24.6138 40.4323C24.6688 40.4546 24.7187 40.4878 24.7606 40.53L25.2806 41.05C25.3614 41.1369 25.4063 41.2512 25.4063 41.37C25.4063 41.4887 25.3614 41.603 25.2806 41.69L22.5406 44.42L25.2906 47.18C25.3329 47.2218 25.3665 47.2717 25.3894 47.3266C25.4124 47.3815 25.4242 47.4404 25.4242 47.5C25.4242 47.5595 25.4124 47.6184 25.3894 47.6734C25.3665 47.7283 25.3329 47.7781 25.2906 47.82L24.7806 48.34C24.6936 48.4208 24.5793 48.4657 24.4606 48.4657C24.3418 48.4657 24.2275 48.4208 24.1406 48.34L21.1406 45.29L20.6306 44.78C20.5445 44.6937 20.4961 44.5768 20.4961 44.455C20.4961 44.3331 20.5445 44.2162 20.6306 44.13L24.2006 40.56C24.2608 40.4817 24.3452 40.4255 24.4406 40.4Z" fill="#FE3347"/>
<path d="M51.5405 48.4601C51.4811 48.4611 51.4222 48.4501 51.3672 48.4278C51.3122 48.4054 51.2623 48.3722 51.2205 48.3301L50.7005 47.8201C50.6196 47.7331 50.5747 47.6188 50.5747 47.5001C50.5747 47.3813 50.6196 47.267 50.7005 47.1801L53.4404 44.4401L50.6805 41.6801C50.5996 41.5931 50.5547 41.4788 50.5547 41.3601C50.5547 41.2413 50.5996 41.127 50.6805 41.0401L51.2005 40.5301C51.2874 40.4492 51.4017 40.4043 51.5205 40.4043C51.6392 40.4043 51.7535 40.4492 51.8405 40.5301L54.8405 43.5301L55.3504 44.0501C55.3928 44.0919 55.4264 44.1417 55.4493 44.1967C55.4723 44.2516 55.4841 44.3105 55.4841 44.3701C55.4841 44.4296 55.4723 44.4885 55.4493 44.5434C55.4264 44.5984 55.3928 44.6482 55.3504 44.6901L51.7804 48.2601C51.7269 48.3532 51.6418 48.4242 51.5405 48.4601Z" fill="#FE3347"/>
</g>
<path d="M124.99 79.834H123.898V67.416H124.99V79.834ZM123.436 76.936C122.363 77.0667 121.243 77.16 120.076 77.216C118.909 77.272 117.649 77.3 116.296 77.3H114.938V76.32H118.48V74.066H119.572V76.306C119.871 76.306 120.188 76.2967 120.524 76.278C120.869 76.2593 121.21 76.236 121.546 76.208C121.891 76.18 122.223 76.152 122.54 76.124C122.867 76.0867 123.165 76.0447 123.436 75.998V76.936ZM120.734 68.564H117.276V67.64H120.734V68.564ZM122.204 70.706H119.656V70.734C119.656 71.098 119.754 71.4247 119.95 71.714C120.155 72.0033 120.403 72.26 120.692 72.484C120.991 72.7267 121.317 72.9273 121.672 73.086C122.027 73.2447 122.363 73.366 122.68 73.45C122.549 73.5713 122.423 73.7067 122.302 73.856C122.181 74.0053 122.078 74.136 121.994 74.248C121.733 74.164 121.462 74.0567 121.182 73.926C120.902 73.7953 120.636 73.646 120.384 73.478C120.123 73.31 119.88 73.1187 119.656 72.904C119.432 72.68 119.236 72.4233 119.068 72.134C118.732 72.7407 118.354 73.2027 117.934 73.52C117.654 73.744 117.351 73.9447 117.024 74.122C116.707 74.29 116.38 74.4487 116.044 74.598C115.932 74.486 115.792 74.3507 115.624 74.192C115.456 74.024 115.316 73.8933 115.204 73.8C115.633 73.6693 116.058 73.4873 116.478 73.254C116.907 73.0207 117.281 72.7453 117.598 72.428C118.121 71.952 118.41 71.378 118.466 70.706H115.904V69.768H122.204V70.706ZM136.681 74.626C136.233 74.458 135.785 74.2527 135.337 74.01C134.898 73.758 134.483 73.4733 134.091 73.156C133.699 72.8293 133.344 72.4793 133.027 72.106C132.719 71.7327 132.476 71.322 132.299 70.874C132.103 71.3127 131.851 71.7233 131.543 72.106C131.244 72.4793 130.904 72.8247 130.521 73.142C130.138 73.4593 129.723 73.744 129.275 73.996C128.836 74.248 128.379 74.4627 127.903 74.64L127.077 73.786C127.637 73.618 128.192 73.38 128.743 73.072C129.294 72.764 129.784 72.4 130.213 71.98C130.661 71.56 131.016 71.098 131.277 70.594C131.548 70.0807 131.683 69.53 131.683 68.942V67.92H132.873V68.942C132.873 69.5113 133.008 70.0573 133.279 70.58C133.559 71.0933 133.923 71.5647 134.371 71.994C134.819 72.414 135.309 72.7827 135.841 73.1C136.382 73.408 136.919 73.6367 137.451 73.786L136.681 74.626ZM137.983 78.252H126.587V77.3H131.711V74.178H132.845V77.3H137.983V78.252Z" fill="#454545"/>
<path d="M198.795 79.6878C198.472 80.1984 197.925 80.5892 197.154 80.8602C196.393 81.1416 195.46 81.2823 194.356 81.2823C193.616 81.2823 192.949 81.2197 192.355 81.0947C191.771 80.9696 191.271 80.7872 190.854 80.5476C190.448 80.3079 190.135 80.0161 189.916 79.6722C189.697 79.3387 189.588 78.9583 189.588 78.531C189.588 78.1142 189.697 77.7338 189.916 77.3899C190.135 77.046 190.453 76.7594 190.87 76.5302C191.286 76.2905 191.787 76.1081 192.37 75.983C192.954 75.8476 193.616 75.7798 194.356 75.7798C195.815 75.7798 196.977 76.0299 197.841 76.5302C198.706 77.0304 199.139 77.7026 199.139 78.5467C199.139 78.9844 199.024 79.3647 198.795 79.6878ZM196.482 74.201C195.731 74.3261 194.939 74.4146 194.105 74.4667C193.272 74.5084 192.433 74.5293 191.589 74.5293H187.681V73.4819H189.385L189.306 68.8549H188.072V67.8232H195.544V68.8549H194.231L194.168 73.4194C194.606 73.3986 195.007 73.3725 195.372 73.3413C195.736 73.2996 196.106 73.2475 196.482 73.1849V74.201ZM194.356 80.2974C195.293 80.2974 196.127 80.1463 196.857 79.8441C197.513 79.5523 197.841 79.1251 197.841 78.5623C197.841 77.9996 197.513 77.5619 196.857 77.2492C196.2 76.9366 195.366 76.7803 194.356 76.7803C193.407 76.7803 192.574 76.9314 191.854 77.2336C191.208 77.5358 190.885 77.9631 190.885 78.5154C190.885 79.0782 191.208 79.5159 191.854 79.8285C192.49 80.1411 193.324 80.2974 194.356 80.2974ZM199.014 75.7329H197.779V72.4502H195.606V71.4498H197.779V70.1836H195.606V69.1832H197.779V67.1823H199.014V75.7329ZM190.557 73.4819H192.214C192.475 73.4819 192.725 73.4767 192.964 73.4663L193.058 68.8549H190.494L190.557 73.4819ZM210.426 78.1402H209.191V74.1072H206.675V78.1402H205.455V74.1072H200.953V73.0442H210.317C210.379 72.7003 210.442 72.3356 210.504 71.95C210.567 71.5644 210.624 71.1788 210.676 70.7933C210.739 70.4077 210.786 70.0325 210.817 69.6678C210.859 69.303 210.89 68.9643 210.911 68.6517H202.407V67.5887H211.849C211.974 67.5887 212.057 67.6148 212.099 67.6669C212.151 67.7086 212.177 67.7919 212.177 67.917C212.146 68.3234 212.109 68.7507 212.068 69.1988C212.026 69.6469 211.974 70.095 211.911 70.5431C211.849 70.9913 211.781 71.4289 211.708 71.8562C211.646 72.2835 211.578 72.6795 211.505 73.0442H213.631V74.1072H210.426V78.1402ZM212.427 80.7508H203.001C202.876 80.7508 202.787 80.7247 202.735 80.6726C202.694 80.6309 202.673 80.5476 202.673 80.4225V76.28H203.876V79.6878H212.427V80.7508Z" fill="#454545"/>
<path d="M279.007 81.0478H277.788V67.1823H279.007V81.0478ZM277.272 77.812C276.073 77.9579 274.823 78.0621 273.52 78.1246C272.217 78.1871 270.81 78.2184 269.299 78.2184H267.783V77.1242H271.738V74.6074H272.957V77.1085C273.291 77.1085 273.645 77.0981 274.02 77.0773C274.406 77.0564 274.786 77.0304 275.161 76.9991C275.547 76.9679 275.917 76.9366 276.271 76.9053C276.636 76.8636 276.969 76.8167 277.272 76.7646V77.812ZM274.255 68.4641H270.394V67.4324H274.255V68.4641ZM275.896 70.8558H273.051V70.887C273.051 71.2935 273.16 71.6582 273.379 71.9813C273.609 72.3043 273.885 72.5909 274.208 72.841C274.541 73.112 274.906 73.336 275.302 73.5132C275.698 73.6904 276.073 73.8258 276.428 73.9196C276.282 74.0551 276.141 74.2062 276.005 74.373C275.87 74.5397 275.755 74.6856 275.662 74.8107C275.37 74.7169 275.068 74.597 274.755 74.4511C274.442 74.3052 274.145 74.1385 273.864 73.9509C273.572 73.7633 273.301 73.5497 273.051 73.31C272.801 73.0599 272.582 72.7733 272.395 72.4502C272.019 73.1276 271.597 73.6435 271.128 73.9978C270.816 74.2479 270.477 74.472 270.112 74.67C269.758 74.8575 269.393 75.0347 269.018 75.2014C268.893 75.0764 268.737 74.9253 268.549 74.7481C268.361 74.5605 268.205 74.4146 268.08 74.3104C268.559 74.1645 269.034 73.9613 269.503 73.7008C269.982 73.4403 270.399 73.1328 270.753 72.7785C271.337 72.247 271.66 71.6061 271.722 70.8558H268.862V69.8084H275.896V70.8558ZM287.59 77.1398C286.965 77.244 286.251 77.3326 285.448 77.4055C284.656 77.4681 283.854 77.4993 283.041 77.4993H282.306C282.171 77.4993 282.082 77.4785 282.04 77.4368C281.999 77.3951 281.978 77.3118 281.978 77.1867V68.3859C281.978 68.2609 281.999 68.1775 282.04 68.1358C282.093 68.0837 282.181 68.0577 282.306 68.0577H286.683V69.105H283.197V76.3738H283.494C283.776 76.3738 284.099 76.3686 284.463 76.3582C284.828 76.3478 285.198 76.3269 285.573 76.2957C285.948 76.2644 286.308 76.2332 286.652 76.2019C287.006 76.1602 287.319 76.1133 287.59 76.0612V77.1398ZM292.53 81.0321H291.326V73.3256H289.481V80.3756H288.293V67.4168H289.481V72.1376H291.326V67.1823H292.53V81.0321Z" fill="#454545"/>
<rect x="114" y="47" width="180" height="14" rx="7" fill="#BBBBBB"/>
<path d="M197 54C197 50.134 200.134 47 204 47C207.866 47 211 50.134 211 54C211 57.866 207.866 61 204 61C200.134 61 197 57.866 197 54Z" fill="#FF7A00"/>
<rect x="202" y="44" width="4" height="20" rx="2" fill="#454545"/>
<rect x="114.5" y="0.5" width="179" height="32" rx="16" stroke="#454545"/>
<rect x="114" width="92" height="33" rx="16.5" fill="#454545"/>
<path d="M142.499 16.6573H141.083V12.8564H137.874C137.814 13.3584 137.664 13.8126 137.425 14.219C137.198 14.6134 136.905 14.96 136.547 15.2589C136.188 15.5457 135.776 15.7728 135.31 15.9401C134.856 16.0955 134.378 16.1732 133.876 16.1732C133.326 16.1732 132.806 16.0836 132.316 15.9043C131.838 15.713 131.419 15.4561 131.061 15.1334C130.69 14.7987 130.397 14.4043 130.182 13.9501C129.979 13.4839 129.877 12.976 129.877 12.4261C129.877 11.8763 129.979 11.3684 130.182 10.9022C130.397 10.4241 130.684 10.0177 131.043 9.68307C131.401 9.3484 131.82 9.08545 132.298 8.89421C132.776 8.70297 133.302 8.60735 133.876 8.60735C134.342 8.60735 134.79 8.68505 135.22 8.84043C135.662 8.98385 136.057 9.18705 136.403 9.45C136.75 9.71295 137.043 10.0357 137.282 10.4181C137.533 10.7887 137.706 11.195 137.802 11.6373H141.083V8.446H142.499V16.6573ZM133.876 14.972C134.652 14.972 135.286 14.727 135.776 14.2369C136.266 13.711 136.511 13.1015 136.511 12.4082C136.511 11.6911 136.26 11.0815 135.758 10.5795C135.256 10.0655 134.629 9.80857 133.876 9.80857C133.493 9.80857 133.14 9.88028 132.818 10.0237C132.495 10.1671 132.214 10.3584 131.975 10.5974C131.748 10.8365 131.569 11.1114 131.437 11.4221C131.306 11.7329 131.24 12.0616 131.24 12.4082C131.24 13.1015 131.485 13.711 131.975 14.2369C132.501 14.727 133.135 14.972 133.876 14.972ZM142.84 24.1873H132.531C132.387 24.1873 132.286 24.1574 132.226 24.0976C132.178 24.0498 132.154 23.9542 132.154 23.8108V20.6554C132.154 20.5119 132.178 20.4163 132.226 20.3685C132.286 20.3087 132.387 20.2789 132.531 20.2789H140.939V18.6653H132.154V17.4999H142.087C142.23 17.4999 142.326 17.5298 142.374 17.5896C142.433 17.6374 142.463 17.733 142.463 17.8764V20.996C142.463 21.1394 142.433 21.241 142.374 21.3008C142.326 21.3486 142.23 21.3725 142.087 21.3725H133.678V23.0399H142.84V24.1873ZM157.847 24.1873H147.216C147.072 24.1873 146.971 24.1574 146.911 24.0976C146.863 24.0498 146.839 23.9542 146.839 23.8108V20.494C146.839 20.3506 146.863 20.255 146.911 20.2071C146.971 20.1474 147.072 20.1175 147.216 20.1175H155.947V18.3426H146.839V17.1951H151.321V15.0437H144.867V13.8425H155.732C155.792 13.5556 155.851 13.2449 155.911 12.9102C155.971 12.5636 156.031 12.223 156.09 11.8883C156.138 11.5417 156.18 11.213 156.216 10.9022C156.252 10.5915 156.282 10.3165 156.305 10.0775H146.588V8.87628H157.399C157.543 8.87628 157.638 8.90616 157.686 8.96593C157.746 9.01374 157.776 9.10935 157.776 9.25278C157.74 9.58745 157.698 9.952 157.65 10.3464C157.614 10.7409 157.566 11.1413 157.507 11.5476C157.459 11.954 157.399 12.3544 157.327 12.7489C157.268 13.1433 157.202 13.5078 157.13 13.8425H159.389V15.0437H152.827V17.1951H157.094C157.238 17.1951 157.333 17.225 157.381 17.2848C157.441 17.3326 157.471 17.4282 157.471 17.5716V20.8705C157.471 21.0139 157.441 21.1155 157.381 21.1753C157.333 21.2231 157.238 21.247 157.094 21.247H148.363V23.0399H157.847V24.1873ZM170.739 19.5617C170.393 19.6454 169.986 19.729 169.52 19.8127C169.066 19.8844 168.582 19.9502 168.068 20.0099C166.992 20.1534 165.904 20.2251 164.805 20.2251H162.295C162.151 20.2251 162.05 20.2012 161.99 20.1534C161.942 20.0936 161.918 19.992 161.918 19.8486V9.10935H163.353V18.9342H165.02C166.215 18.9342 167.303 18.8625 168.283 18.7191C169.275 18.5756 170.094 18.4322 170.739 18.2888V19.5617ZM173.608 24.3307H172.209V14.3086H167.781V13.0716H172.209V8.446H173.608V24.3307ZM183.362 19.1673V14.5776H178.862V19.1673H183.362ZM184.743 20.0279C184.743 20.1713 184.713 20.2729 184.653 20.3326C184.605 20.3805 184.51 20.4044 184.366 20.4044H177.822C177.679 20.4044 177.577 20.3805 177.517 20.3326C177.47 20.2729 177.446 20.1713 177.446 20.0279V9.21693H178.862V13.3226H183.362V9.21693H184.743V20.0279ZM189.314 24.3307H187.916V8.446H189.314V24.3307Z" fill="white"/>
<path d="M230.618 22.5737H229.202V11.0277C228.879 11.3743 228.479 11.703 228.001 12.0138C227.523 12.3245 226.991 12.6293 226.405 12.9281V11.5656C226.943 11.3265 227.445 11.0337 227.911 10.6871C228.389 10.3285 228.837 9.92809 229.256 9.48586H230.278C230.409 9.48586 230.499 9.50976 230.547 9.55757C230.594 9.60538 230.618 9.69502 230.618 9.8265V22.5737ZM236.956 19.3824C237.075 20.1115 237.38 20.6793 237.87 21.0856C238.372 21.4801 238.988 21.6773 239.717 21.6773C240.087 21.6773 240.434 21.6056 240.757 21.4621C241.091 21.3068 241.372 21.0856 241.599 20.7988C241.838 20.5119 242.023 20.1713 242.155 19.7769C242.298 19.3705 242.37 18.9163 242.37 18.4143C242.37 17.3027 242.119 16.478 241.617 15.9401C241.127 15.3903 240.5 15.1154 239.735 15.1154C239.125 15.1154 238.599 15.2648 238.157 15.5636C237.715 15.8625 237.416 16.2808 237.26 16.8186C237.225 16.9143 237.189 16.992 237.153 17.0517C237.117 17.0995 237.033 17.1234 236.902 17.1234H236.041C235.934 17.1234 235.868 17.1115 235.844 17.0876C235.82 17.0517 235.808 16.974 235.808 16.8545L236.005 9.8265C236.017 9.69502 236.041 9.60538 236.077 9.55757C236.113 9.50976 236.185 9.48586 236.292 9.48586H243.123V10.705H237.386L237.135 15.1154C237.41 14.733 237.798 14.4401 238.3 14.2369C238.814 14.0337 239.394 13.9321 240.039 13.9321C240.553 13.9321 241.037 14.0278 241.492 14.219C241.958 14.3983 242.358 14.6732 242.693 15.0437C243.039 15.4023 243.308 15.8625 243.5 16.4242C243.703 16.986 243.804 17.6434 243.804 18.3964C243.804 19.0537 243.703 19.6573 243.5 20.2071C243.308 20.757 243.033 21.2291 242.675 21.6235C242.316 22.0179 241.88 22.3227 241.366 22.5379C240.852 22.765 240.284 22.8785 239.663 22.8785C239.101 22.8785 238.575 22.8008 238.085 22.6454C237.595 22.502 237.165 22.2809 236.794 21.9821C236.436 21.6833 236.143 21.3187 235.916 20.8884C235.701 20.4462 235.575 19.9442 235.539 19.3824H236.956ZM253.064 19.6334C252.909 20.757 252.502 21.5876 251.845 22.1255C251.199 22.6753 250.369 22.9502 249.353 22.9502C248.672 22.9502 248.074 22.8187 247.56 22.5558C247.058 22.2928 246.64 21.9402 246.305 21.498C245.97 21.0438 245.719 20.5239 245.552 19.9382C245.385 19.3525 245.301 18.743 245.301 18.1095C245.301 17.488 245.385 16.8844 245.552 16.2987C245.731 15.713 245.994 15.1991 246.341 14.7569C246.687 14.3027 247.118 13.9441 247.632 13.6811C248.158 13.4062 248.761 13.2688 249.442 13.2688C249.921 13.2688 250.375 13.3465 250.805 13.5019C251.235 13.6453 251.612 13.8545 251.935 14.1294C252.257 14.4043 252.514 14.7449 252.705 15.1513C252.909 15.5577 253.022 16.0178 253.046 16.5318H251.576C251.54 15.7788 251.325 15.2409 250.931 14.9182C250.536 14.5835 249.98 14.4162 249.263 14.4162C248.881 14.4162 248.534 14.5118 248.223 14.7031C247.925 14.8824 247.668 15.1393 247.452 15.474C247.237 15.7967 247.07 16.1852 246.95 16.6394C246.831 17.0816 246.771 17.5657 246.771 18.0916C246.771 18.6175 246.831 19.1075 246.95 19.5617C247.07 20.004 247.237 20.3924 247.452 20.7271C247.668 21.0617 247.925 21.3247 248.223 21.5159C248.534 21.6952 248.881 21.7849 249.263 21.7849C249.921 21.7849 250.446 21.6175 250.841 21.2829C251.247 20.9362 251.492 20.3864 251.576 19.6334H253.064ZM267.691 22.6634H266.347V16.9979C266.347 16.1015 266.197 15.4501 265.898 15.0437C265.612 14.6254 265.092 14.4162 264.339 14.4162C264.088 14.4162 263.831 14.47 263.568 14.5776C263.317 14.6732 263.084 14.8226 262.868 15.0258C262.665 15.217 262.486 15.462 262.331 15.7609C262.187 16.0597 262.092 16.4063 262.044 16.8007V22.6634H260.735V16.9979C260.735 16.1015 260.58 15.4501 260.269 15.0437C259.97 14.6254 259.456 14.4162 258.727 14.4162C258.44 14.4162 258.153 14.482 257.866 14.6134C257.58 14.733 257.323 14.9182 257.095 15.1692C256.88 15.4083 256.701 15.713 256.558 16.0836C256.426 16.4541 256.36 16.8844 256.36 17.3744V22.6634H255.07V13.5556H256.396L256.36 14.721C256.779 14.1831 257.203 13.8066 257.633 13.5915C258.076 13.3764 258.584 13.2688 259.157 13.2688C260.556 13.2688 261.446 13.8604 261.829 15.0437L261.972 14.721C262.378 14.1831 262.803 13.8066 263.245 13.5915C263.699 13.3764 264.213 13.2688 264.787 13.2688C265.767 13.2688 266.496 13.5556 266.974 14.1294C267.452 14.7031 267.691 15.5338 267.691 16.6214V22.6634Z" fill="#454545"/>
</g>
<defs>
<clipPath id="clip0_322_4622">
<rect width="294" height="81" fill="white"/>
</clipPath>
<clipPath id="clip1_322_4622">
<rect width="76" height="76" fill="white" transform="translate(0 3)"/>
</clipPath>
</defs>
</svg>
