<svg width="294" height="81" viewBox="0 0 294 81" fill="none" xmlns="http://www.w3.org/2000/svg">
<g clip-path="url(#clip0_377_2780)">
<path d="M95 80V1C95 0.447715 94.5523 0 94 0C93.4477 0 93 0.447715 93 0.999999V80C93 80.5523 93.4477 81 94 81C94.5523 81 95 80.5523 95 80Z" fill="#BBBBBB"/>
<path d="M198.365 35H203.757L201.047 39.695L198.365 44.3898L195.682 39.695L193 35H198.365Z" fill="#454545"/>
<g clip-path="url(#clip1_377_2780)">
<circle cx="38" cy="41" r="37" fill="#454545"/>
<path d="M37.9966 79.1621C30.4805 79.1635 23.1328 76.9361 16.8826 72.7617C10.6324 68.5872 5.76029 62.6532 2.88245 55.7099C0.00461428 48.7666 -0.749752 41.1258 0.714738 33.7538C2.17923 26.3818 5.79681 19.6096 11.11 14.2935C16.4233 8.97739 23.1935 5.35616 30.5648 3.88769C37.936 2.41922 45.5771 3.16946 52.522 6.04355C59.4668 8.91764 65.4035 13.7865 69.5813 20.0345C73.7592 26.2825 75.9905 33.629 75.9932 41.145C75.9878 51.2226 71.9835 60.8861 64.8595 68.0139C57.7355 75.1417 48.0741 79.1513 37.9966 79.1621V79.1621ZM37.9966 5.53563C30.9488 5.53564 24.0593 7.62581 18.1995 11.5418C12.3398 15.4578 7.77304 21.0236 5.0769 27.5353C2.38076 34.047 1.67637 41.2121 3.05282 48.1242C4.42927 55.0362 7.82473 61.3849 12.8097 66.367C17.7947 71.3491 24.1453 74.7409 31.0581 76.1134C37.971 77.4858 45.1357 76.7773 51.6458 74.0774C58.156 71.3775 63.7192 66.8076 67.6318 60.9455C71.5444 55.0835 73.6306 48.1928 73.6265 41.145C73.6102 31.7023 69.8505 22.6512 63.1715 15.9761C56.4926 9.301 47.4394 5.54648 37.9966 5.53563V5.53563Z" fill="#454545"/>
<path d="M65.1526 32.2529C64.7353 31.5699 64.1868 30.9764 63.5387 30.5068C62.8906 30.0372 62.1558 29.7007 61.3768 29.5169L57.7721 28.6619C56.7905 28.4267 55.7659 28.4384 54.7899 28.6961C49.6051 17.9914 41.9237 14.8381 36.3696 14.0789C32.6748 13.5806 28.9153 13.922 25.3707 15.0775C24.1744 15.4217 23.0256 15.9134 21.9507 16.5413C20.3232 17.4139 19.0172 18.7839 18.2235 20.4513C17.4298 22.1187 17.1899 23.9962 17.5388 25.8096C17.5388 25.8643 17.5388 25.9122 17.573 25.9669C17.6072 26.0216 17.573 26.1379 17.573 26.1858V26.3568C18.2571 31.9246 19.7755 41.8359 22.8604 45.5911C23.4146 46.4082 23.7642 47.3466 23.8796 48.3271C23.948 48.6554 24.0164 49.0111 24.0985 49.3257C24.3515 50.3723 24.5636 51.1931 24.7209 51.7608C24.7551 51.8703 28.0794 62.9033 28.825 68.2864C28.9371 69.109 29.3053 69.8754 29.8774 70.477C30.4495 71.0786 31.1965 71.4848 32.0124 71.638C33.6086 71.92 35.2276 72.0529 36.8484 72.0348C36.9646 72.0348 37.3272 72.0348 37.847 72.0348C39.2522 72.0483 40.6544 71.9014 42.0263 71.597C42.6867 71.4428 43.28 71.0803 43.7185 70.5629C44.157 70.0456 44.4175 69.4009 44.4614 68.7242C44.4889 68.3418 44.4496 67.9576 44.3451 67.5887C45.0245 67.5386 45.6827 67.3301 46.2671 66.9799C46.3978 66.8987 46.5083 66.7887 46.59 66.6583C46.6718 66.5279 46.7228 66.3806 46.7391 66.2276L47.2111 61.2959L48.4354 44.7019V44.654C48.5312 40.7688 51.0483 39.2777 52.1154 38.8194C52.8459 39.6621 53.8299 40.2453 54.9198 40.4815L58.5314 41.3365C58.99 41.4506 59.4609 41.508 59.9336 41.5075C61.016 41.5111 62.0798 41.226 63.0154 40.6815C63.951 40.1371 64.7244 39.3531 65.2561 38.4102C65.7878 37.4674 66.0585 36.3998 66.0403 35.3175C66.0221 34.2352 65.7157 33.1774 65.1526 32.2529ZM41.3491 44.6129L40.9182 53.5803C40.8076 55.9762 40.8373 58.3767 41.0071 60.7692L41.2123 63.7172C41.2343 64.2155 41.3053 64.7104 41.4244 65.1947L40.5762 64.9279C40.1636 64.8181 39.7609 64.674 39.3723 64.497L39.1603 64.4013C37.4469 63.4096 36.1788 61.7988 35.6171 59.9005L33.1137 30.4129C35.1657 31.3022 38.9346 32.9711 41.9579 34.5991C41.6501 38.2311 41.2876 43.0671 41.3149 44.6266L41.3491 44.6129ZM63.9213 36.4049C63.6665 37.4576 63.0057 38.3669 62.0832 38.9345C61.1606 39.5022 60.0511 39.6821 58.9965 39.435L55.3918 38.58C54.5226 38.3838 53.7642 37.8562 53.2782 37.1094C53.1583 36.9457 52.9908 36.8231 52.7986 36.7582C52.6064 36.6933 52.3989 36.6893 52.2043 36.7469C52.159 36.7402 52.1129 36.7402 52.0675 36.7469C50.1796 37.2462 46.5955 39.5376 46.445 44.6061L45.2206 61.1659L44.7965 65.523C44.499 65.6569 44.1621 65.674 43.8526 65.5709C43.4832 65.3725 43.237 64.6475 43.1686 63.5736L42.9634 60.6392C42.7992 58.3263 42.7718 56.0058 42.8813 53.6897L43.3122 44.6882V44.6198C43.2643 42.513 44.092 32.9369 44.3588 30.8439C44.3715 30.5902 44.2877 30.3411 44.1244 30.1467C43.961 29.9522 43.73 29.8268 43.478 29.7956C43.2259 29.7644 42.9714 29.8298 42.7655 29.9786C42.5597 30.1273 42.4178 30.3485 42.3683 30.5976C42.3204 30.9875 42.252 31.6236 42.1768 32.4171C37.8196 30.1394 32.4297 27.9232 32.375 27.9026C32.2168 27.8364 32.0442 27.8123 31.874 27.8327C31.7037 27.8531 31.5417 27.9172 31.4037 28.0189C31.2656 28.1203 31.1556 28.2551 31.0838 28.4106C31.012 28.5661 30.9809 28.7373 30.9933 28.9081L33.6472 60.133C33.644 60.1809 33.644 60.2289 33.6472 60.2767C33.9671 61.4862 34.5227 62.6206 35.2821 63.6148C36.0416 64.6091 36.9899 65.4435 38.0727 66.0702L38.1958 66.1523C38.7416 66.4523 39.323 66.6821 39.9264 66.8363C40.4599 67.0005 41.0687 67.192 41.6638 67.4314C41.9066 67.5273 42.1122 67.6988 42.2501 67.9205C42.388 68.1422 42.4511 68.4024 42.4299 68.6626C42.4139 68.9149 42.3166 69.1552 42.1526 69.3476C41.9886 69.5399 41.7667 69.674 41.5201 69.7297C40.0046 70.0432 38.4558 70.165 36.9099 70.0922H36.8484C35.3424 70.1116 33.8378 69.9902 32.3544 69.7297C31.9508 69.6569 31.5805 69.4582 31.2966 69.1621C31.0128 68.866 30.83 68.4876 30.7744 68.0812C30.0357 62.575 26.8071 51.8497 26.6293 51.2546C26.4514 50.6596 26.2736 49.8866 26.0205 48.888C25.9453 48.5939 25.8837 48.2929 25.8222 47.9714C25.6564 46.6645 25.1648 45.4203 24.3926 44.353C22.3406 41.8974 20.6032 35.2626 19.543 26.1584V25.9874C19.5281 25.8494 19.5053 25.7124 19.4746 25.577V25.4471C19.212 24.0535 19.4024 22.6126 20.0178 21.335C20.6332 20.0575 21.6413 19.0104 22.8946 18.3471C23.8378 17.7862 24.8493 17.3494 25.9042 17.0475L26.0274 17.0064C29.3068 15.9561 32.7791 15.6499 36.1917 16.1104C43.4969 17.1295 49.14 21.6577 52.9772 29.5648C52.3703 29.973 51.842 30.4874 51.4177 31.0833C51.2635 31.2992 51.2014 31.5674 51.245 31.8291C51.2886 32.0908 51.4344 32.3245 51.6503 32.4787C51.8661 32.6329 52.1344 32.695 52.3961 32.6514C52.6578 32.6078 52.8914 32.462 53.0456 32.2461C53.5159 31.5818 54.1749 31.0741 54.9371 30.7887C55.6994 30.5033 56.5298 30.4534 57.3207 30.6455L60.9254 31.5005C61.9779 31.754 62.8877 32.413 63.4565 33.3342C64.0254 34.2553 64.2072 35.3639 63.9624 36.4185L63.9213 36.4049Z" fill="white"/>
<path d="M22.8044 30.8847C23.0377 30.8861 23.2661 30.818 23.4606 30.6893C23.6551 30.5605 23.807 30.3769 23.8969 30.1616C23.9868 29.9463 24.0106 29.7092 23.9655 29.4804C23.9203 29.2515 23.8081 29.0413 23.6432 28.8763C23.4782 28.7114 23.268 28.5992 23.0391 28.554C22.8102 28.5088 22.5731 28.5327 22.3579 28.6226C22.1426 28.7125 21.959 28.8643 21.8302 29.0589C21.7014 29.2534 21.6334 29.4818 21.6348 29.715C21.6366 30.0247 21.7604 30.3212 21.9793 30.5401C22.1983 30.7591 22.4948 30.8829 22.8044 30.8847Z" fill="#E81D2B"/>
<path d="M23.5085 34.5786C23.7415 34.5786 23.9693 34.5094 24.1629 34.3798C24.3565 34.2502 24.5073 34.0661 24.5961 33.8507C24.685 33.6353 24.7079 33.3984 24.6619 33.17C24.616 32.9416 24.5032 32.732 24.338 32.5678C24.1728 32.4035 23.9625 32.292 23.7339 32.2474C23.5052 32.2027 23.2684 32.227 23.0536 32.3171C22.8387 32.4072 22.6554 32.5591 22.527 32.7534C22.3985 32.9478 22.3307 33.1759 22.3321 33.4089C22.3339 33.7198 22.4586 34.0173 22.6791 34.2364C22.8995 34.4556 23.1977 34.5786 23.5085 34.5786Z" fill="#E81D2B"/>
<path d="M24.3982 38.2861C24.6312 38.2874 24.8593 38.2196 25.0537 38.0911C25.248 37.9627 25.3999 37.7794 25.49 37.5646C25.5801 37.3497 25.6044 37.1129 25.5597 36.8843C25.5151 36.6556 25.4036 36.4453 25.2394 36.2801C25.0751 36.1149 24.8655 36.0022 24.6371 35.9562C24.4087 35.9103 24.1718 35.9332 23.9564 36.022C23.741 36.1108 23.5569 36.2616 23.4273 36.4552C23.2977 36.6489 23.2285 36.8766 23.2285 37.1096C23.2276 37.2638 23.2572 37.4166 23.3156 37.5593C23.374 37.702 23.46 37.8317 23.5687 37.9411C23.6774 38.0504 23.8066 38.1372 23.949 38.1964C24.0913 38.2556 24.244 38.2861 24.3982 38.2861V38.2861Z" fill="#E81D2B"/>
<path d="M25.1501 41.9931C25.3831 41.9945 25.6112 41.9266 25.8056 41.7982C26 41.6697 26.1518 41.4865 26.2419 41.2716C26.332 41.0567 26.3563 40.82 26.3117 40.5913C26.2671 40.3626 26.1556 40.1524 25.9913 39.9872C25.8271 39.8219 25.6174 39.7092 25.389 39.6632C25.1606 39.6173 24.9237 39.6402 24.7084 39.729C24.493 39.8179 24.3088 39.9687 24.1793 40.1623C24.0497 40.3559 23.9805 40.5836 23.9805 40.8166C23.9796 40.9708 24.0092 41.1236 24.0676 41.2663C24.1259 41.409 24.2119 41.5388 24.3206 41.6481C24.4293 41.7574 24.5586 41.8442 24.701 41.9034C24.8433 41.9626 24.996 41.9931 25.1501 41.9931V41.9931Z" fill="#E81D2B"/>
<path opacity="0.5" d="M19.337 42.048C22.0644 42.048 24.2755 39.8369 24.2755 37.1094C24.2755 34.382 22.0644 32.1709 19.337 32.1709C16.6095 32.1709 14.3984 34.382 14.3984 37.1094C14.3984 39.8369 16.6095 42.048 19.337 42.048Z" fill="#E81D2B"/>
<path opacity="0.2" d="M19.3235 44.0039C17.9596 44.0053 16.6258 43.6021 15.4911 42.8453C14.3564 42.0885 13.4716 41.0122 12.9487 39.7524C12.4258 38.4927 12.2883 37.1061 12.5535 35.7682C12.8188 34.4303 13.4749 33.2012 14.4389 32.2362C15.4029 31.2713 16.6314 30.6139 17.969 30.3473C19.3067 30.0807 20.6934 30.2169 21.9536 30.7385C23.2139 31.2602 24.2911 32.1439 25.049 33.2779C25.8069 34.4119 26.2115 35.7452 26.2115 37.1091C26.2097 38.936 25.4836 40.6877 24.1924 41.9801C22.9013 43.2725 21.1504 44.0003 19.3235 44.0039V44.0039ZM19.3235 31.5687C18.2298 31.5673 17.1603 31.8905 16.2504 32.4973C15.3405 33.104 14.6311 33.9671 14.2119 34.9773C13.7928 35.9875 13.6827 37.0993 13.8958 38.172C14.1088 39.2447 14.6353 40.2301 15.4087 41.0035C16.182 41.7768 17.1674 42.3033 18.2401 42.5164C19.3129 42.7294 20.4247 42.6194 21.4348 42.2002C22.445 41.7811 23.3081 41.0716 23.9149 40.1617C24.5216 39.2518 24.8448 38.1823 24.8434 37.0886C24.8416 35.6252 24.2595 34.2222 23.2247 33.1874C22.1899 32.1526 20.7869 31.5705 19.3235 31.5687Z" fill="#E6202C"/>
<path d="M19.3374 39.5581C20.6898 39.5581 21.7862 38.4618 21.7862 37.1094C21.7862 35.757 20.6898 34.6606 19.3374 34.6606C17.985 34.6606 16.8887 35.757 16.8887 37.1094C16.8887 38.4618 17.985 39.5581 19.3374 39.5581Z" fill="#E81D2B"/>
</g>
<path d="M121.462 74.178C121.219 74.0753 120.953 73.94 120.664 73.772C120.375 73.5947 120.09 73.394 119.81 73.17C119.53 72.946 119.264 72.694 119.012 72.414C118.76 72.134 118.55 71.826 118.382 71.49C118.27 71.8167 118.111 72.1293 117.906 72.428C117.701 72.7173 117.463 72.9927 117.192 73.254C116.921 73.5153 116.623 73.758 116.296 73.982C115.979 74.1967 115.647 74.388 115.302 74.556L114.476 73.814C114.924 73.6367 115.349 73.4127 115.75 73.142C116.151 72.862 116.501 72.5353 116.8 72.162C117.099 71.798 117.337 71.3873 117.514 70.93C117.701 70.4727 117.794 69.964 117.794 69.404V68.928H115.33V67.99H121.392V68.928H118.956V69.432C118.956 69.9453 119.045 70.412 119.222 70.832C119.399 71.252 119.637 71.63 119.936 71.966C120.235 72.2927 120.575 72.5773 120.958 72.82C121.341 73.0533 121.742 73.2353 122.162 73.366L121.462 74.178ZM124.934 74.934H123.842V71.168H121.266V70.244H123.842V67.416H124.934V74.934ZM125.158 77.524C125.158 78.2987 124.771 78.91 123.996 79.358C123.221 79.806 122.195 80.03 120.916 80.03C120.272 80.03 119.689 79.9693 119.166 79.848C118.653 79.736 118.214 79.5727 117.85 79.358C117.477 79.1433 117.192 78.882 116.996 78.574C116.8 78.266 116.702 77.916 116.702 77.524C116.702 77.1507 116.8 76.81 116.996 76.502C117.201 76.1847 117.491 75.9187 117.864 75.704C118.237 75.48 118.676 75.3073 119.18 75.186C119.693 75.0647 120.272 75.004 120.916 75.004C122.195 75.004 123.221 75.2373 123.996 75.704C124.771 76.1707 125.158 76.7773 125.158 77.524ZM123.114 78.728C123.385 78.588 123.599 78.4153 123.758 78.21C123.917 78.014 123.996 77.79 123.996 77.538C123.996 77.0433 123.702 76.6467 123.114 76.348C122.545 76.0587 121.812 75.914 120.916 75.914C120.039 75.914 119.315 76.0587 118.746 76.348C118.475 76.4787 118.261 76.6467 118.102 76.852C117.953 77.048 117.878 77.272 117.878 77.524C117.878 77.776 117.953 78.0047 118.102 78.21C118.261 78.4153 118.48 78.588 118.76 78.728C119.301 79.0173 120.02 79.162 120.916 79.162C121.812 79.162 122.545 79.0173 123.114 78.728ZM133.293 73.898C133.032 73.7673 132.752 73.6133 132.453 73.436C132.164 73.2587 131.879 73.0533 131.599 72.82C131.319 72.596 131.058 72.344 130.815 72.064C130.572 71.784 130.372 71.476 130.213 71.14C130.082 71.4947 129.905 71.826 129.681 72.134C129.457 72.442 129.205 72.7313 128.925 73.002C128.645 73.2633 128.346 73.5013 128.029 73.716C127.721 73.9307 127.413 74.1173 127.105 74.276L126.251 73.492C126.727 73.2773 127.166 73.03 127.567 72.75C127.978 72.4607 128.337 72.12 128.645 71.728C128.944 71.3547 129.177 70.9347 129.345 70.468C129.522 69.992 129.611 69.46 129.611 68.872V67.724H130.773V68.886C130.773 69.418 130.862 69.908 131.039 70.356C131.216 70.7947 131.454 71.1867 131.753 71.532C132.052 71.8867 132.397 72.19 132.789 72.442C133.181 72.6847 133.587 72.8807 134.007 73.03L133.293 73.898ZM136.429 74.906H135.337V67.416H136.429V70.314H138.165V71.266H136.429V74.906ZM136.709 77.566C136.709 78.35 136.331 78.9567 135.575 79.386C134.819 79.834 133.797 80.058 132.509 80.058C131.23 80.058 130.208 79.834 129.443 79.386C128.687 78.938 128.309 78.3313 128.309 77.566C128.309 77.1927 128.407 76.852 128.603 76.544C128.808 76.2267 129.093 75.9607 129.457 75.746C129.821 75.5313 130.255 75.3633 130.759 75.242C131.272 75.1207 131.851 75.06 132.495 75.06C133.802 75.06 134.824 75.2887 135.561 75.746C136.326 76.2033 136.709 76.81 136.709 77.566ZM132.495 79.19C133.382 79.19 134.11 79.0453 134.679 78.756C135.258 78.476 135.547 78.084 135.547 77.58C135.547 77.076 135.258 76.684 134.679 76.404C134.11 76.1147 133.382 75.97 132.495 75.97C132.066 75.97 131.664 76.0073 131.291 76.082C130.927 76.1567 130.61 76.2593 130.339 76.39C129.77 76.6793 129.485 77.0713 129.485 77.566C129.485 77.818 129.56 78.042 129.709 78.238C129.868 78.4433 130.082 78.616 130.353 78.756C130.894 79.0453 131.608 79.19 132.495 79.19Z" fill="#454545"/>
<path d="M198.561 73.607C198.154 73.5132 197.711 73.3777 197.232 73.2006C196.763 73.0234 196.304 72.8046 195.856 72.544C195.408 72.2835 194.986 71.9761 194.59 71.6217C194.204 71.2674 193.897 70.8558 193.668 70.3868C193.418 70.8245 193.11 71.2153 192.745 71.5592C192.381 71.9031 191.98 72.2053 191.542 72.4659C191.104 72.7368 190.646 72.9661 190.166 73.1537C189.697 73.3308 189.228 73.4819 188.759 73.607L187.868 72.6691C188.525 72.5336 189.15 72.346 189.744 72.1063C190.338 71.8666 190.87 71.5853 191.339 71.2622C191.808 70.9287 192.178 70.5536 192.448 70.1367C192.73 69.7199 192.897 69.2561 192.949 68.7455H188.869V67.6825H198.435V68.7611H194.34C194.382 69.3239 194.564 69.8189 194.887 70.2461C195.221 70.6734 195.627 71.0486 196.106 71.3716C196.607 71.7051 197.138 71.9813 197.701 72.2001C198.274 72.4085 198.831 72.5649 199.373 72.6691L198.561 73.607ZM199.999 76.0456H194.309V81.0634H193.042V76.0456H187.321V74.9826H199.999V76.0456ZM209.441 71.1059C209.441 71.5332 209.353 71.9865 209.176 72.4659C208.999 72.8931 208.759 73.2579 208.457 73.5601C208.134 73.8727 207.748 74.1228 207.3 74.3104C206.862 74.4876 206.372 74.5762 205.83 74.5762C205.257 74.5762 204.747 74.4876 204.299 74.3104C203.85 74.1228 203.47 73.8727 203.157 73.5601C202.845 73.2475 202.605 72.8827 202.438 72.4659C202.282 72.0386 202.204 71.5853 202.204 71.1059C202.204 70.6369 202.282 70.194 202.438 69.7772C202.605 69.3603 202.845 68.9956 203.157 68.6829C203.47 68.3703 203.85 68.1202 204.299 67.9326C204.747 67.745 205.257 67.6512 205.83 67.6512C206.393 67.6512 206.899 67.745 207.347 67.9326C207.795 68.1202 208.175 68.3703 208.488 68.6829C208.79 68.9956 209.025 69.3603 209.191 69.7772C209.358 70.194 209.441 70.6369 209.441 71.1059ZM205.83 73.5288C206.633 73.5288 207.232 73.2944 207.628 72.8254C208.014 72.346 208.207 71.7729 208.207 71.1059C208.207 70.4598 208.009 69.8918 207.613 69.402C207.227 68.9226 206.633 68.6829 205.83 68.6829C205.049 68.6829 204.45 68.9226 204.033 69.402C203.626 69.8918 203.423 70.4598 203.423 71.1059C203.423 71.7624 203.621 72.3356 204.017 72.8254C204.403 73.2944 205.007 73.5288 205.83 73.5288ZM210.911 77.4368C209.869 77.5931 208.696 77.7182 207.394 77.812C206.091 77.8953 204.642 77.937 203.048 77.937H201.485V76.8584H203.048L205.674 76.8272C205.935 76.8272 206.273 76.8167 206.69 76.7959C207.118 76.7646 207.581 76.7282 208.081 76.6865C208.582 76.6448 209.077 76.5979 209.567 76.5458C210.056 76.4937 210.504 76.4364 210.911 76.3738V77.4368ZM212.677 81.0321H211.458V67.1823H212.677V81.0321Z" fill="#454545"/>
<path d="M275.49 70.4025C275.49 70.861 275.406 71.2518 275.24 71.5748C275.073 71.9604 274.849 72.2783 274.567 72.5284C274.265 72.7993 273.9 73.013 273.473 73.1693C273.046 73.3256 272.561 73.4038 272.019 73.4038C271.457 73.4038 270.962 73.3256 270.534 73.1693C270.117 73.013 269.758 72.7993 269.456 72.5284C269.153 72.2574 268.924 71.9396 268.768 71.5748C268.612 71.2101 268.533 70.8193 268.533 70.4025C268.533 69.996 268.612 69.6104 268.768 69.2457C268.924 68.8809 269.148 68.5579 269.44 68.2765C269.742 67.9951 270.107 67.7711 270.534 67.6043C270.962 67.4376 271.457 67.3542 272.019 67.3542C272.561 67.3542 273.046 67.4376 273.473 67.6043C273.911 67.7711 274.276 67.9951 274.567 68.2765C274.87 68.5579 275.099 68.8809 275.255 69.2457C275.411 69.6104 275.49 69.996 275.49 70.4025ZM274.317 70.3868C274.317 69.8553 274.13 69.3864 273.754 68.98C273.4 68.5631 272.822 68.3547 272.019 68.3547C271.238 68.3547 270.659 68.5631 270.284 68.98C269.909 69.3864 269.721 69.8553 269.721 70.3868C269.721 70.8975 269.904 71.3664 270.269 71.7937C270.644 72.2001 271.227 72.4033 272.019 72.4033C272.811 72.4033 273.39 72.2001 273.754 71.7937C274.13 71.3873 274.317 70.9183 274.317 70.3868ZM278.897 81.0321H277.662V67.1823H278.897V81.0321ZM272.41 80.7351H271.238V75.9049H267.658V74.8263H271.66C271.931 74.8263 272.301 74.8211 272.77 74.8107C273.239 74.7898 273.739 74.7638 274.27 74.7325C274.802 74.7012 275.312 74.6648 275.802 74.6231C276.302 74.5814 276.714 74.5345 277.037 74.4824V75.5141C276.381 75.6287 275.656 75.7121 274.864 75.7642C274.083 75.8163 273.265 75.858 272.41 75.8893V80.7351ZM289.262 69.8553H281.321V68.8862H289.262V69.8553ZM287.308 68.1046H283.197V67.1354H287.308V68.1046ZM281.822 72.8254C281.822 72.1168 282.139 71.554 282.775 71.1372C283.411 70.6995 284.245 70.4806 285.276 70.4806C286.287 70.4806 287.116 70.6995 287.762 71.1372C288.408 71.5644 288.731 72.1272 288.731 72.8254C288.731 73.1797 288.642 73.5028 288.465 73.7946C288.288 74.0864 288.048 74.3365 287.746 74.5449C287.1 74.9826 286.277 75.2014 285.276 75.2014C284.255 75.2014 283.427 74.9826 282.791 74.5449C282.489 74.3365 282.249 74.0864 282.072 73.7946C281.905 73.5028 281.822 73.1797 281.822 72.8254ZM286.871 73.8884C287.256 73.6278 287.449 73.2735 287.449 72.8254C287.449 72.3877 287.256 72.0438 286.871 71.7937C286.496 71.5332 285.964 71.4029 285.276 71.4029C284.588 71.4029 284.052 71.5332 283.666 71.7937C283.291 72.0438 283.103 72.3877 283.103 72.8254C283.103 73.2631 283.291 73.6174 283.666 73.8884C284.052 74.1489 284.588 74.2792 285.276 74.2792C285.985 74.2792 286.516 74.1489 286.871 73.8884ZM292.608 75.5922H291.404V72.7472H289.2V71.6843H291.404V67.1823H292.608V75.5922ZM291.388 79.8754V77.343H284.823V79.8754H291.388ZM292.592 80.5632C292.592 80.6882 292.566 80.7716 292.514 80.8133C292.472 80.8654 292.389 80.8915 292.264 80.8915H283.932C283.807 80.8915 283.718 80.8654 283.666 80.8133C283.625 80.7716 283.604 80.6882 283.604 80.5632V76.6865C283.604 76.5614 283.625 76.4781 283.666 76.4364C283.718 76.3843 283.807 76.3582 283.932 76.3582H292.264C292.389 76.3582 292.472 76.3843 292.514 76.4364C292.566 76.4781 292.592 76.5614 292.592 76.6865V80.5632Z" fill="#454545"/>
<rect x="114" y="47" width="180" height="14" rx="7" fill="#BBBBBB"/>
<rect x="114.5" y="0.5" width="179" height="32" rx="16" fill="#C4C4C4" stroke="#454545"/>
<rect x="114" width="92" height="33" rx="16.5" fill="#454545"/>
<path d="M127.268 12.5337H118.196V11.2966H127.268V12.5337ZM125.08 9.93407H120.419V8.73286H125.08V9.93407ZM126.407 19.1314C126.204 19.5856 125.929 19.986 125.582 20.3326C125.236 20.6673 124.823 20.9303 124.345 21.1215C123.867 21.3127 123.341 21.4084 122.768 21.4084C122.194 21.4084 121.662 21.3127 121.172 21.1215C120.694 20.9303 120.281 20.6673 119.935 20.3326C119.588 19.986 119.313 19.5856 119.11 19.1314C118.919 18.6653 118.823 18.1454 118.823 17.5716C118.823 16.9979 118.919 16.484 119.11 16.0298C119.301 15.5636 119.57 15.1632 119.917 14.8286C120.264 14.4939 120.676 14.2369 121.154 14.0576C121.644 13.8664 122.182 13.7708 122.768 13.7708C123.353 13.7708 123.885 13.8664 124.363 14.0576C124.853 14.2369 125.272 14.4939 125.618 14.8286C125.965 15.1632 126.234 15.5636 126.425 16.0298C126.616 16.484 126.712 16.9979 126.712 17.5716C126.712 18.0736 126.61 18.5936 126.407 19.1314ZM122.768 20.1713C123.556 20.1713 124.166 19.9263 124.596 19.4362C125.038 18.9462 125.26 18.3246 125.26 17.5716C125.26 16.8067 125.038 16.1852 124.596 15.7071C124.166 15.229 123.556 14.9899 122.768 14.9899C121.979 14.9899 121.363 15.229 120.921 15.7071C120.491 16.1852 120.275 16.8067 120.275 17.5716C120.275 18.3246 120.491 18.9462 120.921 19.4362C121.363 19.9263 121.979 20.1713 122.768 20.1713ZM131.104 24.3307H129.706V16.3166H127.088V15.0258H129.706V8.446H131.104V24.3307ZM138.564 15.5636V12.7847H134.153V15.5636H138.564ZM144.785 17.9302H143.351V13.3584H139.926V16.4063C139.926 16.5497 139.897 16.6513 139.837 16.7111C139.789 16.7589 139.693 16.7828 139.55 16.7828H133.132C132.988 16.7828 132.886 16.7589 132.827 16.7111C132.779 16.6513 132.755 16.5497 132.755 16.4063V8.98386H134.153V11.5835H138.564V8.98386H139.926V12.1034H143.351V8.446H144.785V17.9302ZM144.785 24.4383H143.351V20.0279H134.189V18.8087H144.409C144.552 18.8087 144.648 18.8386 144.695 18.8984C144.755 18.9462 144.785 19.0418 144.785 19.1852V24.4383ZM155.024 20.745C154.605 20.4701 154.199 20.1593 153.804 19.8127C153.41 19.4661 153.022 19.0836 152.639 18.6653C151.886 17.8406 151.324 16.8784 150.954 15.7788C150.786 16.3166 150.553 16.8485 150.255 17.3744C149.956 17.8884 149.615 18.3844 149.233 18.8625C148.862 19.3286 148.462 19.7589 148.031 20.1534C147.613 20.5478 147.207 20.8884 146.812 21.1753L145.647 20.1892C147.081 19.2928 148.199 18.1573 149 16.7828C149.812 15.4083 150.219 13.7887 150.219 11.9241V10.5616H146.794V9.36035H155.149V10.5616H151.689V12.1572C151.689 13.8903 152.041 15.3724 152.747 16.6035C153.452 17.8226 154.551 18.8625 156.045 19.7231L155.024 20.745ZM159.201 24.3666H157.785V8.48186H159.201V24.3666ZM161.372 12.3006C161.372 11.1891 161.874 10.2926 162.878 9.61135C163.858 8.91812 165.238 8.5715 167.019 8.5715C167.892 8.5715 168.674 8.66114 169.368 8.84043C170.073 9.00776 170.665 9.25278 171.143 9.5755C171.633 9.89821 172.003 10.2926 172.254 10.7588C172.517 11.213 172.649 11.7269 172.649 12.3006C172.649 13.4122 172.153 14.3086 171.161 14.9899C170.168 15.6593 168.788 15.9939 167.019 15.9939C166.147 15.9939 165.364 15.9103 164.67 15.7429C163.977 15.5636 163.38 15.3126 162.878 14.9899C161.874 14.3325 161.372 13.4361 161.372 12.3006ZM171.143 12.3006C171.143 11.4759 170.754 10.8484 169.977 10.4181C169.212 9.9759 168.226 9.75478 167.019 9.75478C166.398 9.75478 165.83 9.81455 165.316 9.93407C164.814 10.0416 164.378 10.203 164.007 10.4181C163.648 10.6333 163.368 10.9022 163.164 11.2249C162.973 11.5357 162.878 11.8943 162.878 12.3006C162.878 12.707 162.979 13.0656 163.182 13.3764C163.397 13.6871 163.69 13.9501 164.061 14.1652C164.431 14.3804 164.868 14.5417 165.37 14.6493C165.884 14.7569 166.433 14.8106 167.019 14.8106C168.202 14.8106 169.182 14.5955 169.959 14.1652C170.748 13.723 171.143 13.1015 171.143 12.3006ZM170.479 24.3307H169.063V18.737H165.011V24.2052H163.577V18.737H159.74V17.5179H174.28V18.737H170.479V24.3307ZM187.118 20.1175H185.72V15.1871H182.17C181.811 15.7728 181.327 16.2449 180.718 16.6035C180.108 16.9501 179.409 17.1234 178.62 17.1234C177.999 17.1234 177.431 17.0159 176.917 16.8007C176.403 16.5736 175.967 16.2629 175.608 15.8684C175.238 15.486 174.951 15.0377 174.748 14.5238C174.544 14.0098 174.443 13.46 174.443 12.8744C174.443 12.2887 174.544 11.7389 174.748 11.2249C174.951 10.711 175.238 10.2568 175.608 9.86235C175.967 9.47988 176.403 9.17509 176.917 8.948C177.431 8.7209 177.999 8.60735 178.62 8.60735C179.337 8.60735 179.989 8.76274 180.574 9.0735C181.16 9.38426 181.638 9.79662 182.009 10.3106H185.72V8.446H187.118V20.1175ZM185.72 13.9859V11.5118H182.618C182.75 12.0377 182.815 12.4919 182.815 12.8744C182.815 13.0656 182.797 13.2568 182.762 13.4481C182.738 13.6274 182.708 13.8066 182.672 13.9859H185.72ZM178.62 15.8326C179.469 15.8326 180.138 15.5457 180.628 14.972C181.106 14.4222 181.345 13.723 181.345 12.8744C181.345 12.0496 181.106 11.3445 180.628 10.7588C180.15 10.1731 179.481 9.88028 178.62 9.88028C177.76 9.88028 177.09 10.1731 176.612 10.7588C176.134 11.3445 175.895 12.0496 175.895 12.8744C175.895 13.723 176.134 14.4222 176.612 14.972C177.09 15.5457 177.76 15.8326 178.62 15.8326ZM187.549 24.008H177.186C177.042 24.008 176.941 23.9781 176.881 23.9184C176.833 23.8705 176.809 23.7749 176.809 23.6315V18.8266H178.262V22.7889H187.549V24.008ZM196.873 16.8007C196.526 16.6453 196.161 16.4541 195.779 16.227C195.408 15.988 195.044 15.725 194.685 15.4381C194.327 15.1393 193.992 14.8166 193.681 14.47C193.371 14.1114 193.108 13.717 192.892 13.2867C192.725 13.7409 192.498 14.1652 192.211 14.5596C191.936 14.9541 191.62 15.3186 191.261 15.6533C190.914 15.988 190.538 16.2927 190.131 16.5676C189.737 16.8306 189.343 17.0577 188.948 17.2489L187.855 16.2808C188.428 16.0298 188.972 15.719 189.486 15.3485C190.012 14.978 190.472 14.5596 190.867 14.0935C191.249 13.6154 191.554 13.0835 191.781 12.4979C192.02 11.9122 192.139 11.2608 192.139 10.5436V8.84043H193.628V10.3823C193.628 11.0636 193.741 11.6911 193.968 12.2648C194.195 12.8265 194.5 13.3345 194.883 13.7887C195.265 14.231 195.707 14.6134 196.209 14.9361C196.711 15.2589 197.237 15.5099 197.787 15.6891L196.873 16.8007ZM201.265 18.0378H199.867V12.6771H196.335V11.458H199.867V8.446H201.265V18.0378ZM201.57 21.4442C201.57 22.4243 201.074 23.1952 200.082 23.757C199.09 24.3307 197.757 24.6176 196.084 24.6176C195.235 24.6176 194.47 24.5399 193.789 24.3845C193.12 24.2411 192.546 24.0319 192.068 23.757C191.602 23.4821 191.243 23.1474 190.992 22.753C190.741 22.3586 190.616 21.9163 190.616 21.4263C190.616 20.4581 191.106 19.6812 192.086 19.0956C193.066 18.5099 194.398 18.2171 196.084 18.2171C197.757 18.2171 199.09 18.5159 200.082 19.1135C201.074 19.7111 201.57 20.488 201.57 21.4442ZM200.082 21.4621C200.082 20.8287 199.705 20.3207 198.952 19.9382C198.116 19.5557 197.159 19.3645 196.084 19.3645C194.9 19.3645 193.944 19.5438 193.215 19.9024C192.474 20.2609 192.104 20.7629 192.104 21.4084C192.104 22.0418 192.474 22.5498 193.215 22.9323C193.944 23.3028 194.9 23.4881 196.084 23.4881C197.243 23.4881 198.199 23.3088 198.952 22.9502C199.705 22.5916 200.082 22.0956 200.082 21.4621Z" fill="white"/>
<path d="M238.086 22.5737H236.669V11.0277C236.347 11.3743 235.946 11.703 235.468 12.0138C234.99 12.3245 234.458 12.6293 233.872 12.9281V11.5656C234.41 11.3265 234.912 11.0337 235.378 10.6871C235.857 10.3285 236.305 9.92809 236.723 9.48586H237.745C237.876 9.48586 237.966 9.50976 238.014 9.55757C238.062 9.60538 238.086 9.69502 238.086 9.8265V22.5737ZM246.072 22.5737H244.477L249.389 10.7229H242.809V9.48586H250.555C250.782 9.48586 250.895 9.5994 250.895 9.8265V10.5078C250.895 10.6034 250.877 10.693 250.841 10.7767C250.818 10.8604 250.788 10.9381 250.752 11.0098L246.072 22.5737ZM254.005 19.0239C254.209 20.7689 255.159 21.6414 256.856 21.6414C257.752 21.6414 258.452 21.4084 258.954 20.9422C259.468 20.4761 259.725 19.8127 259.725 18.9521C259.725 18.5099 259.641 18.1334 259.474 17.8226C259.306 17.4999 259.085 17.237 258.81 17.0338C258.535 16.8306 258.219 16.6812 257.86 16.5856C257.501 16.478 257.137 16.4182 256.766 16.4063H256.049C255.918 16.4063 255.834 16.3943 255.798 16.3704C255.774 16.3346 255.762 16.2509 255.762 16.1194V15.4561C255.762 15.3126 255.774 15.217 255.798 15.1692C255.834 15.1214 255.918 15.0975 256.049 15.0975H256.641C257.011 15.0855 257.364 15.0377 257.699 14.9541C258.033 14.8585 258.326 14.721 258.577 14.5417C258.84 14.3505 259.049 14.1114 259.205 13.8246C259.36 13.5377 259.438 13.1851 259.438 12.7668C259.438 12.0018 259.187 11.4221 258.685 11.0277C258.195 10.6213 257.573 10.4181 256.82 10.4181C255.231 10.4181 254.358 11.207 254.203 12.7847H252.768C252.78 12.2349 252.888 11.7389 253.091 11.2966C253.294 10.8425 253.575 10.46 253.934 10.1492C254.292 9.83845 254.717 9.5994 255.207 9.43207C255.709 9.26474 256.264 9.18107 256.874 9.18107C257.412 9.18107 257.92 9.25278 258.398 9.39621C258.876 9.52769 259.3 9.73686 259.671 10.0237C260.041 10.3106 260.334 10.6751 260.549 11.1174C260.764 11.5596 260.872 12.0855 260.872 12.6951C260.872 13.0775 260.806 13.4421 260.675 13.7887C260.555 14.1234 260.376 14.4282 260.137 14.7031C259.91 14.978 259.629 15.211 259.294 15.4023C258.972 15.5935 258.613 15.725 258.219 15.7967C258.661 15.8565 259.061 15.982 259.42 16.1732C259.778 16.3645 260.083 16.6035 260.334 16.8904C260.597 17.1772 260.8 17.5119 260.944 17.8944C261.087 18.2768 261.159 18.6832 261.159 19.1135C261.159 19.7828 261.033 20.3565 260.782 20.8346C260.543 21.3008 260.221 21.6892 259.814 22C259.42 22.2988 258.96 22.5199 258.434 22.6634C257.908 22.8068 257.364 22.8785 256.802 22.8785C256.157 22.8785 255.577 22.7889 255.063 22.6096C254.549 22.4422 254.113 22.1912 253.754 21.8566C253.396 21.5219 253.115 21.1155 252.912 20.6374C252.709 20.1593 252.601 19.6215 252.589 19.0239H254.005Z" fill="#454545"/>
<rect x="114" y="47" width="95" height="14" rx="7" fill="#FF7A00"/>
<circle cx="265.5" cy="8.5" r="2" stroke="#454545"/>
</g>
<defs>
<clipPath id="clip0_377_2780">
<rect width="294" height="81" fill="white"/>
</clipPath>
<clipPath id="clip1_377_2780">
<rect width="76" height="76" fill="white" transform="translate(0 3.16211)"/>
</clipPath>
</defs>
</svg>
