<svg width="294" height="81" viewBox="0 0 294 81" fill="none" xmlns="http://www.w3.org/2000/svg">
<g clip-path="url(#clip0_322_4659)">
<path d="M95 80V1C95 0.447715 94.5523 0 94 0C93.4477 0 93 0.447715 93 0.999999V80C93 80.5523 93.4477 81 94 81C94.5523 81 95 80.5523 95 80Z" fill="#BBBBBB"/>
<path d="M186.365 35H191.757L189.047 39.695L186.365 44.3898L183.682 39.695L181 35H186.365Z" fill="#454545"/>
<g clip-path="url(#clip1_322_4659)">
<path d="M38 79C30.4843 79 23.1374 76.7714 16.8883 72.5959C10.6393 68.4204 5.76872 62.4856 2.89259 55.542C0.0164647 48.5984 -0.736062 40.9579 0.730176 33.5866C2.19641 26.2153 5.81556 19.4444 11.13 14.13C16.4444 8.81556 23.2153 5.19641 30.5866 3.73018C37.9579 2.26394 45.5984 3.01646 52.542 5.89259C59.4856 8.76872 65.4204 13.6393 69.5959 19.8883C73.7714 26.1374 76 33.4843 76 41C76 51.0782 71.9965 60.7437 64.8701 67.8701C57.7437 74.9965 48.0782 79 38 79ZM38 5.37002C30.9531 5.37002 24.0644 7.45968 18.205 11.3748C12.3457 15.2898 7.77894 20.8545 5.08219 27.365C2.38544 33.8755 1.67985 41.0395 3.05464 47.9511C4.42943 54.8626 7.82286 61.2113 12.8058 66.1942C17.7887 71.1772 24.1374 74.5706 31.0489 75.9454C37.9605 77.3202 45.1245 76.6146 51.635 73.9178C58.1456 71.2211 63.7102 66.6543 67.6253 60.795C71.5404 54.9357 73.63 48.047 73.63 41C73.6194 31.5536 69.8622 22.4971 63.1825 15.8175C56.5029 9.13787 47.4464 5.3806 38 5.37002Z" fill="#454545"/>
<path d="M39.1205 23.7001C38.953 23.7009 38.7877 23.6635 38.6369 23.5907C38.4861 23.5179 38.354 23.4117 38.2505 23.2801C38.1546 23.4149 38.0268 23.5239 37.8784 23.5972C37.7301 23.6705 37.5658 23.7058 37.4005 23.7001C35.5705 23.7001 33.1505 21.1201 33.1505 19.1701V15.4601C33.1505 13.9701 33.0805 11.0601 37.2205 10.3701C37.9068 10.2002 38.6242 10.2002 39.3105 10.3701C43.4505 11.0601 43.4005 13.9701 43.3805 15.2101V19.2101C43.3805 21.1201 41.0005 23.7001 39.1205 23.7001ZM38.2605 12.4701C38.0322 12.4813 37.8051 12.5081 37.5805 12.5501C35.3205 12.9301 35.3405 13.9201 35.3605 15.1801V19.1801C35.5001 19.6912 35.7522 20.1648 36.0982 20.5662C36.4442 20.9675 36.8754 21.2866 37.3605 21.5001C37.5218 21.5115 37.6791 21.5565 37.822 21.6323C37.9649 21.7081 38.0904 21.8129 38.1905 21.9401C38.2924 21.8029 38.4251 21.6916 38.578 21.6151C38.7309 21.5387 38.8996 21.4993 39.0705 21.5001C39.564 21.2914 40.0044 20.9747 40.3592 20.5731C40.714 20.1716 40.9742 19.6955 41.1205 19.1801V15.1801C41.1205 13.9201 41.1205 12.9301 38.8905 12.5501C38.6823 12.5102 38.4719 12.4835 38.2605 12.4701Z" fill="#454545"/>
<path d="M37.2398 77.9101H31.0498V72.1601C31.0664 67.3468 30.6582 62.5415 29.8298 57.8001C29.1008 52.9617 29.4422 48.0222 30.8298 43.3301C31.432 38.9417 30.7076 34.4735 28.7498 30.5001C27.7498 30.4101 26.8698 30.4101 25.8698 30.4101C23.1207 30.4292 20.3737 30.2521 17.6498 29.8801C14.9034 30.2787 12.1048 30.1222 9.41984 29.4201C7.83275 28.9964 6.19147 28.811 4.54984 28.8701H4.33984L4.14984 28.8001C3.66933 28.768 3.19156 28.8945 2.78984 29.1601C2.71984 29.1601 2.67984 29.2701 2.58984 29.4201C2.49085 29.6178 2.3502 29.7916 2.17757 29.9297C2.00494 30.0678 1.80443 30.1669 1.58984 30.2201L1.91984 31.3901L2.22984 30.2901L2.31984 29.0901C1.97984 28.3601 3.01984 28.0901 3.58984 27.2501C4.15984 26.4101 2.22984 25.0001 4.91984 25.0001C7.20984 24.4401 16.3698 24.4401 18.4898 24.5001C22.7668 24.6285 27.0451 24.2932 31.2498 23.5001C31.9045 23.3709 32.5165 23.08 33.03 22.6538C33.5435 22.2276 33.9422 21.6797 34.1898 21.0601C34.2235 20.9115 34.2874 20.7714 34.3775 20.6486C34.4677 20.5258 34.5821 20.4228 34.7137 20.3462C34.8454 20.2695 34.9914 20.2207 35.1427 20.2029C35.294 20.1851 35.4474 20.1986 35.5932 20.2427C35.7391 20.2867 35.8743 20.3603 35.9905 20.4588C36.1066 20.5574 36.2013 20.6788 36.2685 20.8155C36.3357 20.9522 36.3741 21.1013 36.3812 21.2535C36.3883 21.4057 36.364 21.5577 36.3098 21.7001C35.9483 22.7075 35.3332 23.6048 34.524 24.3055C33.7148 25.0061 32.7387 25.4864 31.6898 25.7001C27.3179 26.5328 22.8685 26.8882 18.4198 26.7601C15.8798 26.6801 11.2498 26.7601 8.22984 26.9001C8.82984 27.0101 9.36984 27.1401 9.91984 27.2601C12.4489 27.9182 15.0845 28.0611 17.6698 27.6801C24.6698 28.5201 26.1498 27.9801 29.4898 28.3401L29.8798 28.3901L30.1598 28.6601C31.0798 29.5901 34.2398 36.7401 32.9398 43.8801C31.6388 48.2736 31.3179 52.899 31.9998 57.4301C32.8489 62.2938 33.2672 67.2229 33.2498 72.1601V75.7001H35.1198C35.2198 74.0201 35.3798 71.9901 35.5498 69.8101C36.0598 63.3401 36.6898 55.2901 36.0198 52.6201C35.9034 52.0518 35.912 51.465 36.0449 50.9003C36.1779 50.3357 36.4321 49.8067 36.7898 49.3501C36.9591 49.121 37.1652 48.9216 37.3998 48.7601C37.5225 48.6437 37.6698 48.5563 37.8307 48.5044C37.9917 48.4524 38.1623 48.4373 38.3298 48.4601C38.586 48.4716 38.833 48.5586 39.0398 48.7101C39.2979 48.8795 39.5274 49.0888 39.7198 49.3301C40.072 49.7916 40.322 50.3227 40.453 50.8883C40.584 51.4538 40.5932 52.0407 40.4798 52.6101C39.8098 55.2801 40.4798 63.3401 40.9498 69.8101C41.1198 71.9801 41.2798 74.0101 41.3798 75.6901H43.2498V72.1601C43.2325 67.2229 43.6508 62.2938 44.4998 57.4301C45.1988 52.9438 44.9017 48.3587 43.6298 44.0001C42.2898 36.7201 45.4398 29.5601 46.3698 28.6301L46.6398 28.3501H47.0298C50.3098 27.9901 52.8998 28.5301 59.5198 27.6901C63.7098 28.1101 64.9799 27.6901 66.3298 27.3001C66.7798 27.1601 67.2398 27.0201 67.7798 26.9001C65.2998 26.7401 61.5898 26.6701 59.0298 26.7601C54.2763 26.8839 49.5223 26.5288 44.8398 25.7001C43.7892 25.488 42.811 25.0083 42 24.3076C41.1889 23.6069 40.5723 22.7088 40.2098 21.7001C40.1334 21.4137 40.1736 21.1086 40.3217 20.8518C40.4698 20.595 40.7137 20.4074 40.9998 20.3301C41.139 20.2874 41.2853 20.273 41.4302 20.2877C41.575 20.3025 41.7154 20.3461 41.8431 20.416C41.9708 20.4859 42.0832 20.5807 42.1737 20.6947C42.2641 20.8088 42.3308 20.9398 42.3698 21.0801C42.6188 21.6979 43.0181 22.2437 43.5316 22.6681C44.045 23.0924 44.6562 23.3819 45.3098 23.5101C49.8286 24.2976 54.4146 24.6326 58.9998 24.5101C61.5098 24.4301 68.6999 24.4601 70.7898 25.0101C73.4198 24.8801 72.1898 26.1201 72.6998 26.8701C73.2098 27.6201 73.9598 28.6501 73.6199 29.3801V30.5001L74.0698 31.0401V30.2001C73.8551 30.144 73.6549 30.0427 73.4824 29.903C73.31 29.7633 73.1693 29.5885 73.0698 29.3901C72.9799 29.2401 72.9398 29.1701 72.8699 29.1401C72.463 28.8533 71.9638 28.7285 71.4698 28.7901H71.1098C69.7102 28.6935 68.3055 28.8806 66.9799 29.3401C65.4699 29.8101 63.9098 30.2901 59.5398 29.8101C56.6997 30.1932 53.8356 30.3703 50.9698 30.3401C49.8198 30.3401 48.7998 30.3401 47.7598 30.4201C45.8085 34.456 45.1118 38.9842 45.7598 43.4201C47.1038 48.0662 47.4212 52.9491 46.6898 57.7301C45.8614 62.4749 45.4532 67.2835 45.4698 72.1001V77.8501H39.2898V76.7901C39.1498 75.0001 38.9998 72.6001 38.7598 70.0001C38.5798 67.8101 38.4098 65.5201 38.2598 63.3301C38.1198 65.5301 37.9398 67.8101 37.7698 70.0101C37.5598 72.6301 37.3698 75.0101 37.2898 76.8801L37.2398 77.9101ZM38.2398 51.2401C38.1399 51.5082 38.1123 51.7979 38.1598 52.0801C38.1598 52.2001 38.2198 52.3201 38.2398 52.4401C38.2398 52.3101 38.2898 52.1901 38.3198 52.0801C38.384 51.8004 38.3631 51.5078 38.2598 51.2401H38.2398Z" fill="#454545"/>
<path d="M41.9396 27.5999C41.9376 27.369 41.8673 27.1438 41.7375 26.9527C41.6078 26.7616 41.4244 26.6132 41.2104 26.5262C40.9965 26.4391 40.7615 26.4174 40.5352 26.4637C40.3089 26.5099 40.1014 26.6221 39.9388 26.7862C39.7762 26.9502 39.6657 27.1587 39.6214 27.3853C39.577 27.612 39.6008 27.8468 39.6896 28.06C39.7785 28.2732 39.9284 28.4553 40.1206 28.5834C40.3128 28.7116 40.5386 28.7799 40.7696 28.7799C40.9241 28.7799 41.077 28.7494 41.2196 28.6899C41.3622 28.6305 41.4917 28.5434 41.6004 28.4337C41.7092 28.324 41.7952 28.1939 41.8534 28.0508C41.9116 27.9076 41.9409 27.7544 41.9396 27.5999Z" fill="#FE3347"/>
<path d="M46.7409 27.5999C46.7409 27.3665 46.6717 27.1384 46.542 26.9444C46.4123 26.7503 46.228 26.5991 46.0124 26.5097C45.7968 26.4204 45.5596 26.3971 45.3307 26.4426C45.1018 26.4881 44.8915 26.6005 44.7265 26.7655C44.5614 26.9306 44.4491 27.1408 44.4035 27.3697C44.358 27.5986 44.3814 27.8359 44.4707 28.0515C44.56 28.2671 44.7112 28.4514 44.9053 28.5811C45.0993 28.7107 45.3275 28.7799 45.5609 28.7799C45.8738 28.7799 46.174 28.6556 46.3952 28.4343C46.6165 28.213 46.7409 27.9129 46.7409 27.5999Z" fill="#FE3347"/>
<path d="M51.5294 27.5999C51.5274 27.369 51.4571 27.1438 51.3274 26.9527C51.1976 26.7616 51.0142 26.6132 50.8003 26.5262C50.5863 26.4391 50.3514 26.4174 50.1251 26.4637C49.8988 26.5099 49.6913 26.6221 49.5286 26.7862C49.366 26.9502 49.2556 27.1587 49.2112 27.3853C49.1669 27.612 49.1906 27.8468 49.2795 28.06C49.3683 28.2732 49.5183 28.4553 49.7104 28.5834C49.9026 28.7116 50.1284 28.7799 50.3594 28.7799C50.5139 28.7799 50.6669 28.7494 50.8095 28.6899C50.9521 28.6305 51.0815 28.5434 51.1903 28.4337C51.2991 28.324 51.385 28.1939 51.4432 28.0508C51.5014 27.9076 51.5307 27.7544 51.5294 27.5999Z" fill="#FE3347"/>
<path d="M56.3307 27.5999C56.3307 27.3665 56.2615 27.1384 56.1318 26.9444C56.0022 26.7503 55.8179 26.5991 55.6023 26.5097C55.3867 26.4204 55.1494 26.3971 54.9205 26.4426C54.6916 26.4881 54.4813 26.6005 54.3163 26.7655C54.1513 26.9306 54.0389 27.1408 53.9934 27.3697C53.9478 27.5986 53.9712 27.8359 54.0605 28.0515C54.1498 28.2671 54.3011 28.4514 54.4951 28.5811C54.6892 28.7107 54.9173 28.7799 55.1507 28.7799C55.4637 28.7799 55.7638 28.6556 55.9851 28.4343C56.2064 28.213 56.3307 27.9129 56.3307 27.5999Z" fill="#FE3347"/>
<path d="M61.1192 27.5999C61.117 27.3668 61.0453 27.1397 60.9132 26.9477C60.7811 26.7557 60.5946 26.6075 60.3778 26.5222C60.1609 26.4368 59.9235 26.4182 59.6959 26.4687C59.4684 26.5191 59.2611 26.6364 59.1007 26.8055C58.9402 26.9745 58.8339 27.1876 58.7954 27.4175C58.7569 27.6473 58.7879 27.8834 58.8844 28.0956C58.9809 28.3077 59.1386 28.4861 59.3373 28.6081C59.5359 28.73 59.7664 28.7898 59.9992 28.7799C60.3025 28.7669 60.5889 28.6366 60.7979 28.4164C61.0069 28.1962 61.1221 27.9034 61.1192 27.5999Z" fill="#FE3347"/>
<path d="M37.1491 27.6C37.149 27.3654 37.079 27.1361 36.9479 26.9414C36.8169 26.7468 36.6308 26.5956 36.4134 26.5073C36.1961 26.4189 35.9573 26.3974 35.7276 26.4454C35.4979 26.4934 35.2878 26.6088 35.124 26.7768C34.9602 26.9449 34.8503 27.1579 34.8082 27.3888C34.7661 27.6196 34.7938 27.8577 34.8877 28.0728C34.9817 28.2878 35.1376 28.4699 35.3355 28.5959C35.5335 28.7219 35.7645 28.786 35.9991 28.78C36.3068 28.7722 36.5993 28.6444 36.8141 28.424C37.029 28.2035 37.1492 27.9079 37.1491 27.6Z" fill="#FE3347"/>
<path d="M32.3497 27.5999C32.3477 27.369 32.2775 27.1438 32.1477 26.9527C32.0179 26.7616 31.8345 26.6132 31.6206 26.5262C31.4066 26.4391 31.1717 26.4174 30.9454 26.4637C30.7191 26.5099 30.5116 26.6221 30.3489 26.7862C30.1863 26.9502 30.0759 27.1587 30.0315 27.3853C29.9872 27.612 30.0109 27.8468 30.0998 28.06C30.1886 28.2732 30.3386 28.4553 30.5308 28.5834C30.7229 28.7116 30.9487 28.7799 31.1797 28.7799C31.3342 28.7799 31.4872 28.7494 31.6298 28.6899C31.7724 28.6305 31.9018 28.5434 32.0106 28.4337C32.1194 28.324 32.2053 28.1939 32.2635 28.0508C32.3218 27.9076 32.351 27.7544 32.3497 27.5999Z" fill="#FE3347"/>
<path d="M27.5592 27.5999C27.5592 27.3665 27.49 27.1384 27.3604 26.9444C27.2307 26.7503 27.0464 26.5991 26.8308 26.5097C26.6152 26.4204 26.3779 26.3971 26.149 26.4426C25.9201 26.4881 25.7099 26.6005 25.5448 26.7655C25.3798 26.9306 25.2674 27.1408 25.2219 27.3697C25.1764 27.5986 25.1997 27.8359 25.289 28.0515C25.3784 28.2671 25.5296 28.4514 25.7236 28.5811C25.9177 28.7107 26.1458 28.7799 26.3792 28.7799C26.6922 28.7799 26.9923 28.6556 27.2136 28.4343C27.4349 28.213 27.5592 27.9129 27.5592 27.5999Z" fill="#FE3347"/>
<path d="M22.7599 27.5999C22.7579 27.369 22.6876 27.1438 22.5579 26.9527C22.4281 26.7616 22.2447 26.6132 22.0307 26.5262C21.8168 26.4391 21.5819 26.4174 21.3556 26.4637C21.1293 26.5099 20.9217 26.6221 20.7591 26.7862C20.5965 26.9502 20.486 27.1587 20.4417 27.3853C20.3973 27.612 20.4211 27.8468 20.5099 28.06C20.5988 28.2732 20.7487 28.4553 20.9409 28.5834C21.1331 28.7116 21.3589 28.7799 21.5899 28.7799C21.7444 28.7799 21.8973 28.7494 22.0399 28.6899C22.1825 28.6305 22.312 28.5434 22.4207 28.4337C22.5295 28.324 22.6155 28.1939 22.6737 28.0508C22.7319 27.9076 22.7612 27.7544 22.7599 27.5999Z" fill="#FE3347"/>
<path d="M18.0006 27.5999C18.0006 27.3665 17.9314 27.1384 17.8018 26.9444C17.6721 26.7503 17.4878 26.5991 17.2722 26.5097C17.0566 26.4204 16.8193 26.3971 16.5904 26.4426C16.3615 26.4881 16.1513 26.6005 15.9862 26.7655C15.8212 26.9306 15.7088 27.1408 15.6633 27.3697C15.6178 27.5986 15.6411 27.8359 15.7304 28.0515C15.8198 28.2671 15.971 28.4514 16.1651 28.5811C16.3591 28.7107 16.5872 28.7799 16.8206 28.7799C17.1336 28.7799 17.4337 28.6556 17.655 28.4343C17.8763 28.213 18.0006 27.9129 18.0006 27.5999Z" fill="#FE3347"/>
<path d="M12.1809 23.5698C12.3029 23.5723 12.42 23.6184 12.5109 23.6998L13.0209 24.2198C13.0632 24.2617 13.0968 24.3115 13.1197 24.3664C13.1427 24.4214 13.1545 24.4803 13.1545 24.5398C13.1545 24.5994 13.1427 24.6583 13.1197 24.7132C13.0968 24.7681 13.0632 24.818 13.0209 24.8598L10.2809 27.5998L13.0009 30.3498C13.0824 30.4384 13.1276 30.5544 13.1276 30.6748C13.1276 30.7952 13.0824 30.9112 13.0009 30.9998L12.4809 31.5098C12.3939 31.5907 12.2796 31.6356 12.1609 31.6356C12.0422 31.6356 11.9278 31.5907 11.8409 31.5098L8.84088 28.5098L8.33088 27.9998C8.28855 27.958 8.25495 27.9081 8.23201 27.8532C8.20908 27.7983 8.19727 27.7393 8.19727 27.6798C8.19727 27.6203 8.20908 27.5614 8.23201 27.5064C8.25495 27.4515 8.28855 27.4017 8.33088 27.3598L11.9009 23.7798C11.9659 23.6784 12.0653 23.6038 12.1809 23.5698Z" fill="#FE3347"/>
<path d="M64.5606 31.6402C64.5007 31.6394 64.4415 31.6266 64.3865 31.6025C64.3315 31.5785 64.2819 31.5437 64.2406 31.5002L63.7206 31.0002C63.6398 30.9133 63.5949 30.799 63.5949 30.6802C63.5949 30.5615 63.6398 30.4472 63.7206 30.3602L66.4606 27.6202L63.7106 24.8702C63.6245 24.784 63.5762 24.6671 63.5762 24.5452C63.5762 24.4234 63.6245 24.3065 63.7106 24.2202L64.2206 23.7102C64.3076 23.6294 64.4219 23.5845 64.5406 23.5845C64.6594 23.5845 64.7737 23.6294 64.8606 23.7102L67.8606 26.7102L68.3706 27.2302C68.413 27.2721 68.4466 27.3219 68.4695 27.3768C68.4924 27.4318 68.5042 27.4907 68.5042 27.5502C68.5042 27.6098 68.4924 27.6687 68.4695 27.7236C68.4466 27.7786 68.413 27.8284 68.3706 27.8702L64.8806 31.5002C64.7959 31.5863 64.6813 31.6364 64.5606 31.6402Z" fill="#FE3347"/>
</g>
<path d="M124.99 79.834H123.898V67.416H124.99V79.834ZM123.436 76.936C122.363 77.0667 121.243 77.16 120.076 77.216C118.909 77.272 117.649 77.3 116.296 77.3H114.938V76.32H118.48V74.066H119.572V76.306C119.871 76.306 120.188 76.2967 120.524 76.278C120.869 76.2593 121.21 76.236 121.546 76.208C121.891 76.18 122.223 76.152 122.54 76.124C122.867 76.0867 123.165 76.0447 123.436 75.998V76.936ZM120.734 68.564H117.276V67.64H120.734V68.564ZM122.204 70.706H119.656V70.734C119.656 71.098 119.754 71.4247 119.95 71.714C120.155 72.0033 120.403 72.26 120.692 72.484C120.991 72.7267 121.317 72.9273 121.672 73.086C122.027 73.2447 122.363 73.366 122.68 73.45C122.549 73.5713 122.423 73.7067 122.302 73.856C122.181 74.0053 122.078 74.136 121.994 74.248C121.733 74.164 121.462 74.0567 121.182 73.926C120.902 73.7953 120.636 73.646 120.384 73.478C120.123 73.31 119.88 73.1187 119.656 72.904C119.432 72.68 119.236 72.4233 119.068 72.134C118.732 72.7407 118.354 73.2027 117.934 73.52C117.654 73.744 117.351 73.9447 117.024 74.122C116.707 74.29 116.38 74.4487 116.044 74.598C115.932 74.486 115.792 74.3507 115.624 74.192C115.456 74.024 115.316 73.8933 115.204 73.8C115.633 73.6693 116.058 73.4873 116.478 73.254C116.907 73.0207 117.281 72.7453 117.598 72.428C118.121 71.952 118.41 71.378 118.466 70.706H115.904V69.768H122.204V70.706ZM136.681 74.626C136.233 74.458 135.785 74.2527 135.337 74.01C134.898 73.758 134.483 73.4733 134.091 73.156C133.699 72.8293 133.344 72.4793 133.027 72.106C132.719 71.7327 132.476 71.322 132.299 70.874C132.103 71.3127 131.851 71.7233 131.543 72.106C131.244 72.4793 130.904 72.8247 130.521 73.142C130.138 73.4593 129.723 73.744 129.275 73.996C128.836 74.248 128.379 74.4627 127.903 74.64L127.077 73.786C127.637 73.618 128.192 73.38 128.743 73.072C129.294 72.764 129.784 72.4 130.213 71.98C130.661 71.56 131.016 71.098 131.277 70.594C131.548 70.0807 131.683 69.53 131.683 68.942V67.92H132.873V68.942C132.873 69.5113 133.008 70.0573 133.279 70.58C133.559 71.0933 133.923 71.5647 134.371 71.994C134.819 72.414 135.309 72.7827 135.841 73.1C136.382 73.408 136.919 73.6367 137.451 73.786L136.681 74.626ZM137.983 78.252H126.587V77.3H131.711V74.178H132.845V77.3H137.983V78.252Z" fill="#454545"/>
<path d="M198.795 79.6878C198.472 80.1984 197.925 80.5892 197.154 80.8602C196.393 81.1416 195.46 81.2823 194.356 81.2823C193.616 81.2823 192.949 81.2197 192.355 81.0947C191.771 80.9696 191.271 80.7872 190.854 80.5476C190.448 80.3079 190.135 80.0161 189.916 79.6722C189.697 79.3387 189.588 78.9583 189.588 78.531C189.588 78.1142 189.697 77.7338 189.916 77.3899C190.135 77.046 190.453 76.7594 190.87 76.5302C191.286 76.2905 191.787 76.1081 192.37 75.983C192.954 75.8476 193.616 75.7798 194.356 75.7798C195.815 75.7798 196.977 76.0299 197.841 76.5302C198.706 77.0304 199.139 77.7026 199.139 78.5467C199.139 78.9844 199.024 79.3647 198.795 79.6878ZM196.482 74.201C195.731 74.3261 194.939 74.4146 194.105 74.4667C193.272 74.5084 192.433 74.5293 191.589 74.5293H187.681V73.4819H189.385L189.306 68.8549H188.072V67.8232H195.544V68.8549H194.231L194.168 73.4194C194.606 73.3986 195.007 73.3725 195.372 73.3413C195.736 73.2996 196.106 73.2475 196.482 73.1849V74.201ZM194.356 80.2974C195.293 80.2974 196.127 80.1463 196.857 79.8441C197.513 79.5523 197.841 79.1251 197.841 78.5623C197.841 77.9996 197.513 77.5619 196.857 77.2492C196.2 76.9366 195.366 76.7803 194.356 76.7803C193.407 76.7803 192.574 76.9314 191.854 77.2336C191.208 77.5358 190.885 77.9631 190.885 78.5154C190.885 79.0782 191.208 79.5159 191.854 79.8285C192.49 80.1411 193.324 80.2974 194.356 80.2974ZM199.014 75.7329H197.779V72.4502H195.606V71.4498H197.779V70.1836H195.606V69.1832H197.779V67.1823H199.014V75.7329ZM190.557 73.4819H192.214C192.475 73.4819 192.725 73.4767 192.964 73.4663L193.058 68.8549H190.494L190.557 73.4819ZM210.426 78.1402H209.191V74.1072H206.675V78.1402H205.455V74.1072H200.953V73.0442H210.317C210.379 72.7003 210.442 72.3356 210.504 71.95C210.567 71.5644 210.624 71.1788 210.676 70.7933C210.739 70.4077 210.786 70.0325 210.817 69.6678C210.859 69.303 210.89 68.9643 210.911 68.6517H202.407V67.5887H211.849C211.974 67.5887 212.057 67.6148 212.099 67.6669C212.151 67.7086 212.177 67.7919 212.177 67.917C212.146 68.3234 212.109 68.7507 212.068 69.1988C212.026 69.6469 211.974 70.095 211.911 70.5431C211.849 70.9913 211.781 71.4289 211.708 71.8562C211.646 72.2835 211.578 72.6795 211.505 73.0442H213.631V74.1072H210.426V78.1402ZM212.427 80.7508H203.001C202.876 80.7508 202.787 80.7247 202.735 80.6726C202.694 80.6309 202.673 80.5476 202.673 80.4225V76.28H203.876V79.6878H212.427V80.7508Z" fill="#454545"/>
<path d="M279.007 81.0478H277.788V67.1823H279.007V81.0478ZM277.272 77.812C276.073 77.9579 274.823 78.0621 273.52 78.1246C272.217 78.1871 270.81 78.2184 269.299 78.2184H267.783V77.1242H271.738V74.6074H272.957V77.1085C273.291 77.1085 273.645 77.0981 274.02 77.0773C274.406 77.0564 274.786 77.0304 275.161 76.9991C275.547 76.9679 275.917 76.9366 276.271 76.9053C276.636 76.8636 276.969 76.8167 277.272 76.7646V77.812ZM274.255 68.4641H270.394V67.4324H274.255V68.4641ZM275.896 70.8558H273.051V70.887C273.051 71.2935 273.16 71.6582 273.379 71.9813C273.609 72.3043 273.885 72.5909 274.208 72.841C274.541 73.112 274.906 73.336 275.302 73.5132C275.698 73.6904 276.073 73.8258 276.428 73.9196C276.282 74.0551 276.141 74.2062 276.005 74.373C275.87 74.5397 275.755 74.6856 275.662 74.8107C275.37 74.7169 275.068 74.597 274.755 74.4511C274.442 74.3052 274.145 74.1385 273.864 73.9509C273.572 73.7633 273.301 73.5497 273.051 73.31C272.801 73.0599 272.582 72.7733 272.395 72.4502C272.019 73.1276 271.597 73.6435 271.128 73.9978C270.816 74.2479 270.477 74.472 270.112 74.67C269.758 74.8575 269.393 75.0347 269.018 75.2014C268.893 75.0764 268.737 74.9253 268.549 74.7481C268.361 74.5605 268.205 74.4146 268.08 74.3104C268.559 74.1645 269.034 73.9613 269.503 73.7008C269.982 73.4403 270.399 73.1328 270.753 72.7785C271.337 72.247 271.66 71.6061 271.722 70.8558H268.862V69.8084H275.896V70.8558ZM287.59 77.1398C286.965 77.244 286.251 77.3326 285.448 77.4055C284.656 77.4681 283.854 77.4993 283.041 77.4993H282.306C282.171 77.4993 282.082 77.4785 282.04 77.4368C281.999 77.3951 281.978 77.3118 281.978 77.1867V68.3859C281.978 68.2609 281.999 68.1775 282.04 68.1358C282.093 68.0837 282.181 68.0577 282.306 68.0577H286.683V69.105H283.197V76.3738H283.494C283.776 76.3738 284.099 76.3686 284.463 76.3582C284.828 76.3478 285.198 76.3269 285.573 76.2957C285.948 76.2644 286.308 76.2332 286.652 76.2019C287.006 76.1602 287.319 76.1133 287.59 76.0612V77.1398ZM292.53 81.0321H291.326V73.3256H289.481V80.3756H288.293V67.4168H289.481V72.1376H291.326V67.1823H292.53V81.0321Z" fill="#454545"/>
<rect x="114" y="47" width="180" height="14" rx="7" fill="#BBBBBB"/>
<rect x="202" y="44" width="4" height="20" rx="2" fill="#454545"/>
<rect x="114.5" y="0.5" width="179" height="32" rx="16" stroke="#454545"/>
<rect x="114" width="92" height="33" rx="16.5" fill="#454545"/>
<path d="M147.645 15.4202C146.785 15.5636 145.864 15.6652 144.884 15.725C143.904 15.7728 142.93 15.7967 141.962 15.7967H137.408V14.6493H139.38L139.291 10.2568H137.856V9.09143H146.48V10.2568H144.938L144.884 14.5776C145.386 14.5537 145.864 14.5238 146.319 14.4879C146.773 14.4401 147.215 14.3804 147.645 14.3086V15.4202ZM150.173 24.2231H140.133C139.99 24.2231 139.888 24.1933 139.828 24.1335C139.781 24.0857 139.757 23.9901 139.757 23.8466V20.6554C139.757 20.5119 139.781 20.4163 139.828 20.3685C139.888 20.3087 139.99 20.2789 140.133 20.2789H148.309V18.5936H139.757V17.4282H149.42C149.564 17.4282 149.659 17.4581 149.707 17.5179C149.767 17.5657 149.797 17.6613 149.797 17.8047V20.996C149.797 21.1394 149.767 21.241 149.707 21.3008C149.659 21.3486 149.564 21.3725 149.42 21.3725H141.263V23.0757H150.173V24.2231ZM149.797 16.6035H148.362V8.48186H149.797V11.5297H151.948V12.7668H149.797V16.6035ZM140.725 14.6493H142.661C142.96 14.6493 143.241 14.6433 143.504 14.6314L143.593 10.2568H140.653L140.725 14.6493ZM160.896 9.18107C161.039 9.18107 161.135 9.21095 161.183 9.27071C161.242 9.31852 161.272 9.41414 161.272 9.55757C160.997 11.4102 160.215 12.9281 158.924 14.1114C157.609 15.3306 155.971 16.233 154.011 16.8186L153.151 15.7788C153.951 15.5756 154.704 15.3067 155.41 14.972C156.127 14.6373 156.772 14.2429 157.346 13.7887C157.92 13.3465 158.398 12.8445 158.78 12.2827C159.175 11.709 159.456 11.0815 159.623 10.4002H154.119V9.18107H160.896ZM166.059 16.6931H164.643V8.446H166.059V16.6931ZM166.4 24.1873H156.073C155.93 24.1873 155.828 24.1574 155.768 24.0976C155.72 24.0498 155.697 23.9542 155.697 23.8108V20.6733C155.697 20.5299 155.72 20.4342 155.768 20.3864C155.828 20.3267 155.93 20.2968 156.073 20.2968H164.517V18.7191H155.697V17.5537H165.665C165.808 17.5537 165.904 17.5836 165.952 17.6434C166.011 17.6912 166.041 17.7868 166.041 17.9302V21.0139C166.041 21.1574 166.011 21.259 165.952 21.3187C165.904 21.3665 165.808 21.3904 165.665 21.3904H157.22V23.0399H166.4V24.1873ZM175.867 19.4183C175.509 19.9203 175.091 20.2968 174.612 20.5478C174.146 20.7868 173.644 20.9064 173.106 20.9064C172.557 20.9064 172.043 20.7868 171.565 20.5478C171.086 20.3087 170.668 19.9382 170.31 19.4362C169.951 18.9342 169.67 18.3127 169.467 17.5716C169.264 16.8186 169.162 15.9162 169.162 14.8644C169.162 13.8126 169.264 12.9102 169.467 12.1572C169.67 11.4042 169.945 10.7767 170.292 10.2747C170.65 9.77271 171.063 9.40816 171.529 9.18107C172.007 8.94202 172.533 8.8225 173.106 8.8225C173.644 8.8225 174.146 8.948 174.612 9.199C175.091 9.43805 175.509 9.80857 175.867 10.3106C176.226 10.8126 176.507 11.4341 176.71 12.1751C176.925 12.9162 177.033 13.8126 177.033 14.8644C177.033 15.9162 176.925 16.8127 176.71 17.5537C176.507 18.2948 176.226 18.9163 175.867 19.4183ZM174.218 19.2569C174.385 19.1255 174.535 18.9701 174.666 18.7908C174.798 18.6115 174.911 18.4203 175.007 18.2171C175.21 17.7868 175.359 17.2848 175.455 16.7111C175.563 16.1254 175.616 15.5099 175.616 14.8644C175.616 14.219 175.563 13.6154 175.455 13.0536C175.359 12.4799 175.21 11.972 175.007 11.5297C174.804 11.0994 174.541 10.7528 174.218 10.4899C173.907 10.2269 173.537 10.0954 173.106 10.0954C172.664 10.0954 172.282 10.2269 171.959 10.4899C171.636 10.7528 171.373 11.1054 171.17 11.5476C170.955 11.9899 170.8 12.4979 170.704 13.0716C170.608 13.6453 170.561 14.2429 170.561 14.8644C170.561 15.5099 170.608 16.1254 170.704 16.7111C170.812 17.2848 170.967 17.7868 171.17 18.2171C171.385 18.6593 171.648 19.0059 171.959 19.2569C172.282 19.5079 172.664 19.6334 173.106 19.6334C173.537 19.6334 173.907 19.5079 174.218 19.2569ZM181.551 24.3666H180.134V8.446H181.551V24.3666Z" fill="white"/>
<path d="M225.567 22.5737H224.151V11.0277C223.828 11.3743 223.428 11.703 222.95 12.0138C222.471 12.3245 221.94 12.6293 221.354 12.9281V11.5656C221.892 11.3265 222.394 11.0337 222.86 10.6871C223.338 10.3285 223.786 9.92809 224.205 9.48586H225.227C225.358 9.48586 225.448 9.50976 225.495 9.55757C225.543 9.60538 225.567 9.69502 225.567 9.8265V22.5737ZM235.669 21.4263C236.207 21.1753 236.614 20.7868 236.889 20.2609C237.164 19.7231 237.301 19.1075 237.301 18.4143C237.301 17.984 237.241 17.5716 237.122 17.1772C237.002 16.7828 236.823 16.4362 236.584 16.1374C236.357 15.8385 236.07 15.6055 235.723 15.4381C235.377 15.2589 234.976 15.1692 234.522 15.1692C234.116 15.1692 233.745 15.2529 233.41 15.4202C233.076 15.5875 232.783 15.8146 232.532 16.1015C232.293 16.3884 232.102 16.717 231.958 17.0876C231.827 17.4581 231.761 17.8465 231.761 18.2529C231.761 18.743 231.827 19.1972 231.958 19.6155C232.09 20.0219 232.275 20.3805 232.514 20.6912C232.753 21.002 233.04 21.247 233.375 21.4263C233.709 21.5936 234.08 21.6773 234.486 21.6773C234.845 21.6773 235.239 21.5936 235.669 21.4263ZM237.104 12.6054C237.092 12.2708 237.02 11.966 236.889 11.6911C236.757 11.4162 236.578 11.1831 236.351 10.9919C236.136 10.8006 235.885 10.6572 235.598 10.5616C235.311 10.454 235.006 10.4002 234.683 10.4002C234.05 10.4002 233.524 10.5974 233.106 10.9919C232.687 11.3863 232.353 11.8823 232.102 12.4799C231.851 13.0656 231.671 13.705 231.564 14.3983C231.468 15.0915 231.42 15.737 231.42 16.3346C231.695 15.5457 232.138 14.972 232.747 14.6134C233.369 14.2429 234.08 14.0576 234.881 14.0576C235.466 14.0576 235.998 14.1652 236.476 14.3804C236.954 14.5835 237.355 14.8764 237.677 15.2589C238.012 15.6413 238.269 16.1075 238.448 16.6573C238.628 17.1951 238.717 17.7928 238.717 18.4501C238.717 19.0717 238.622 19.6514 238.43 20.1892C238.251 20.7271 237.982 21.1992 237.624 21.6056C237.277 22 236.853 22.3108 236.351 22.5379C235.849 22.765 235.281 22.8785 234.648 22.8785C233.632 22.8785 232.789 22.6155 232.12 22.0896C231.45 21.5757 230.972 20.9183 230.685 20.1175C230.518 19.6275 230.393 19.1015 230.309 18.5398C230.225 17.9661 230.183 17.2669 230.183 16.4421C230.183 15.2469 230.297 14.2011 230.524 13.3046C230.751 12.3963 231.062 11.6373 231.456 11.0277C231.851 10.4181 232.323 9.96395 232.873 9.66514C233.422 9.35438 234.02 9.199 234.665 9.199C235.789 9.199 236.679 9.50378 237.337 10.1134C238.006 10.7229 238.401 11.5536 238.52 12.6054H237.104ZM246.507 14.5059C246.746 14.3027 246.937 14.0576 247.081 13.7708C247.224 13.472 247.296 13.1313 247.296 12.7489C247.296 12.3903 247.224 12.0676 247.081 11.7807C246.937 11.4819 246.746 11.2309 246.507 11.0277C246.268 10.8126 245.981 10.6512 245.646 10.5436C245.312 10.4361 244.959 10.3823 244.589 10.3823C244.218 10.3823 243.865 10.4361 243.531 10.5436C243.208 10.6512 242.921 10.8126 242.67 11.0277C242.431 11.2309 242.24 11.4819 242.096 11.7807C241.953 12.0676 241.881 12.3903 241.881 12.7489C241.881 13.1313 241.947 13.472 242.079 13.7708C242.222 14.0576 242.413 14.3027 242.652 14.5059C242.891 14.6971 243.178 14.8465 243.513 14.9541C243.847 15.0616 244.206 15.1154 244.589 15.1154C244.959 15.1154 245.312 15.0616 245.646 14.9541C245.981 14.8465 246.268 14.6971 246.507 14.5059ZM246.686 20.9422C247.2 20.4641 247.457 19.8306 247.457 19.0418C247.457 18.6115 247.373 18.235 247.206 17.9123C247.039 17.5776 246.818 17.3027 246.543 17.0876C246.28 16.8605 245.975 16.6931 245.628 16.5856C245.294 16.478 244.947 16.4242 244.589 16.4242C244.23 16.4242 243.877 16.478 243.531 16.5856C243.184 16.6931 242.873 16.8605 242.598 17.0876C242.336 17.3027 242.12 17.5776 241.953 17.9123C241.798 18.235 241.72 18.6115 241.72 19.0418C241.72 19.8306 241.971 20.4641 242.473 20.9422C242.987 21.4203 243.692 21.6594 244.589 21.6594C245.473 21.6594 246.172 21.4203 246.686 20.9422ZM247.35 15.3844C247.063 15.5995 246.74 15.7549 246.381 15.8505C247.17 16.0656 247.786 16.4541 248.228 17.0159C248.67 17.5657 248.891 18.235 248.891 19.0239C248.891 19.6334 248.784 20.1773 248.569 20.6554C248.365 21.1335 248.073 21.5398 247.69 21.8745C247.308 22.1972 246.848 22.4422 246.31 22.6096C245.784 22.7769 245.204 22.8606 244.571 22.8606C243.937 22.8606 243.357 22.7769 242.832 22.6096C242.306 22.4422 241.851 22.1972 241.469 21.8745C241.098 21.5398 240.806 21.1335 240.59 20.6554C240.387 20.1773 240.286 19.6334 240.286 19.0239C240.286 18.5099 240.405 18.0199 240.644 17.5537C240.895 17.0876 241.254 16.6812 241.72 16.3346C241.804 16.2748 241.881 16.221 241.953 16.1732C242.037 16.1254 242.126 16.0776 242.222 16.0298C242.318 15.982 242.413 15.9401 242.509 15.9043C242.616 15.8565 242.718 15.8146 242.814 15.7788C242.443 15.7071 242.108 15.5756 241.81 15.3844C241.523 15.1812 241.278 14.9421 241.075 14.6672C240.871 14.3923 240.716 14.0875 240.608 13.7529C240.501 13.4182 240.447 13.0775 240.447 12.7309C240.447 12.1692 240.549 11.6672 240.752 11.2249C240.955 10.7827 241.236 10.4122 241.594 10.1134C241.965 9.80259 242.401 9.56952 242.903 9.41414C243.417 9.25876 243.979 9.18107 244.589 9.18107C245.198 9.18107 245.754 9.25876 246.256 9.41414C246.77 9.56952 247.206 9.80259 247.565 10.1134C247.935 10.4122 248.222 10.7827 248.425 11.2249C248.628 11.6672 248.73 12.1692 248.73 12.7309C248.73 13.209 248.605 13.6871 248.354 14.1652C248.103 14.6433 247.768 15.0497 247.35 15.3844ZM258.115 19.6334C257.96 20.757 257.553 21.5876 256.896 22.1255C256.251 22.6753 255.42 22.9502 254.404 22.9502C253.723 22.9502 253.125 22.8187 252.611 22.5558C252.109 22.2928 251.691 21.9402 251.356 21.498C251.021 21.0438 250.77 20.5239 250.603 19.9382C250.436 19.3525 250.352 18.743 250.352 18.1095C250.352 17.488 250.436 16.8844 250.603 16.2987C250.782 15.713 251.045 15.1991 251.392 14.7569C251.739 14.3027 252.169 13.9441 252.683 13.6811C253.209 13.4062 253.812 13.2688 254.494 13.2688C254.972 13.2688 255.426 13.3465 255.856 13.5019C256.287 13.6453 256.663 13.8545 256.986 14.1294C257.308 14.4043 257.565 14.7449 257.757 15.1513C257.96 15.5577 258.073 16.0178 258.097 16.5318H256.627C256.591 15.7788 256.376 15.2409 255.982 14.9182C255.587 14.5835 255.032 14.4162 254.314 14.4162C253.932 14.4162 253.585 14.5118 253.275 14.7031C252.976 14.8824 252.719 15.1393 252.504 15.474C252.288 15.7967 252.121 16.1852 252.002 16.6394C251.882 17.0816 251.822 17.5657 251.822 18.0916C251.822 18.6175 251.882 19.1075 252.002 19.5617C252.121 20.004 252.288 20.3924 252.504 20.7271C252.719 21.0617 252.976 21.3247 253.275 21.5159C253.585 21.6952 253.932 21.7849 254.314 21.7849C254.972 21.7849 255.498 21.6175 255.892 21.2829C256.298 20.9362 256.543 20.3864 256.627 19.6334H258.115ZM272.742 22.6634H271.398V16.9979C271.398 16.1015 271.248 15.4501 270.95 15.0437C270.663 14.6254 270.143 14.4162 269.39 14.4162C269.139 14.4162 268.882 14.47 268.619 14.5776C268.368 14.6732 268.135 14.8226 267.92 15.0258C267.716 15.217 267.537 15.462 267.382 15.7609C267.238 16.0597 267.143 16.4063 267.095 16.8007V22.6634H265.786V16.9979C265.786 16.1015 265.631 15.4501 265.32 15.0437C265.021 14.6254 264.507 14.4162 263.778 14.4162C263.491 14.4162 263.204 14.482 262.918 14.6134C262.631 14.733 262.374 14.9182 262.147 15.1692C261.931 15.4083 261.752 15.713 261.609 16.0836C261.477 16.4541 261.412 16.8844 261.412 17.3744V22.6634H260.121V13.5556H261.447L261.412 14.721C261.83 14.1831 262.254 13.8066 262.684 13.5915C263.127 13.3764 263.635 13.2688 264.208 13.2688C265.607 13.2688 266.497 13.8604 266.88 15.0437L267.023 14.721C267.43 14.1831 267.854 13.8066 268.296 13.5915C268.75 13.3764 269.264 13.2688 269.838 13.2688C270.818 13.2688 271.547 13.5556 272.025 14.1294C272.503 14.7031 272.742 15.5338 272.742 16.6214V22.6634Z" fill="#454545"/>
<path d="M202 61L193 61C189.134 61 186 57.866 186 54C186 50.134 189.134 47 193 47L202 47L202 61Z" fill="#FF7A00"/>
</g>
<defs>
<clipPath id="clip0_322_4659">
<rect width="294" height="81" fill="white"/>
</clipPath>
<clipPath id="clip1_322_4659">
<rect width="76" height="76" fill="white" transform="translate(0 3)"/>
</clipPath>
</defs>
</svg>
