<svg width="294" height="81" viewBox="0 0 294 81" fill="none" xmlns="http://www.w3.org/2000/svg">
<g clip-path="url(#clip0_322_4807)">
<path d="M95 80V1C95 0.447715 94.5523 0 94 0C93.4477 0 93 0.447715 93 0.999999V80C93 80.5523 93.4477 81 94 81C94.5523 81 95 80.5523 95 80Z" fill="#BBBBBB"/>
<path d="M215.365 35H220.757L218.047 39.695L215.365 44.3898L212.682 39.695L210 35H215.365Z" fill="#454545"/>
<g clip-path="url(#clip1_322_4807)">
<path d="M32.7605 73.1098C31.9275 73.1301 31.0968 73.0153 30.3005 72.7698C29.5005 72.4198 27.9205 71.7698 28.0705 70.4598C28.2205 69.1498 29.7605 68.9698 30.4205 68.8498C32.0532 68.6007 33.6143 68.0076 35.0005 67.1098C35.9978 66.5471 36.8132 65.7109 37.3505 64.6998C37.8305 63.0898 36.0305 48.0498 34.1105 34.6998C32.2481 29.6516 32.1249 24.1259 33.7605 18.9998C31.3805 13.0798 31.7605 4.99976 31.8105 4.59976C31.81 4.46051 31.8385 4.32268 31.8943 4.19509C31.95 4.0675 32.0319 3.95297 32.1345 3.85883C32.2371 3.76469 32.3582 3.69302 32.4901 3.64841C32.6221 3.6038 32.7618 3.58723 32.9005 3.59976C33.0398 3.5992 33.1776 3.62772 33.3052 3.68351C33.4328 3.73929 33.5473 3.82111 33.6415 3.92372C33.7356 4.02633 33.8073 4.14748 33.8519 4.27939C33.8965 4.4113 33.9131 4.55108 33.9005 4.68976C33.9005 4.76976 33.4705 13.0498 35.8305 18.5498L36.0005 18.9998L35.8405 19.3998C34.274 24.2436 34.3796 29.4732 36.1405 34.2498C36.8805 39.1798 40.2405 62.8498 39.3405 65.4098C38.6757 66.8542 37.5785 68.0563 36.2005 68.8498C34.6405 69.858 32.8917 70.5384 31.0605 70.8498H31.1105C31.1105 70.8498 33.4005 71.5898 37.2205 70.1198C39.7005 69.1198 40.1505 68.9898 40.5505 69.9698C40.598 70.0862 40.6349 70.2067 40.6605 70.3298C41.2615 70.3625 41.8636 70.2915 42.4405 70.1198C42.2901 69.4234 42.2196 68.7121 42.2305 67.9998C42.2305 67.7298 42.2305 67.4498 42.2305 66.9998V66.6298C41.9105 64.9998 40.7405 56.9998 42.3005 54.2498C42.7005 52.8198 46.3005 39.6598 44.0305 33.1198C43.9417 32.8545 43.9618 32.5649 44.0865 32.3145C44.2112 32.0642 44.4303 31.8736 44.6955 31.7848C44.9607 31.6959 45.2504 31.7161 45.5007 31.8408C45.7511 31.9655 45.9417 32.1845 46.0305 32.4498C48.5605 39.9998 44.4305 54.3498 44.2505 54.9998L44.1205 55.2798C43.1905 56.6898 43.6105 62.5898 44.2005 66.3398V66.8098C44.2273 67.2127 44.2273 67.6169 44.2005 68.0198C44.1877 68.6915 44.2515 69.3625 44.3905 70.0198V70.1698V70.5698C44.365 70.8092 44.2896 71.0406 44.169 71.2491C44.0484 71.4575 43.8854 71.6383 43.6905 71.7798C42.2705 72.8698 38.6905 72.4298 37.5905 72.2598H37.5205C35.9943 72.8137 34.3842 73.1012 32.7605 73.1098Z" fill="#454545"/>
<path d="M45.35 34.1999L44 32.6399C44.443 31.2689 44.6822 29.8404 44.71 28.3999C44.8 27.2899 45.71 26.2799 47.28 25.3999C48.0853 24.9778 48.7889 24.3852 49.3416 23.6632C49.8942 22.9413 50.2828 22.1074 50.48 21.2199C51.3 16.7299 48 12.9999 48 12.9099C45.63 9.72988 44.75 7.39988 45.25 5.70988C45.3454 5.35923 45.5192 5.03482 45.7582 4.76112C45.9973 4.48742 46.2954 4.27158 46.63 4.12988L47.33 6.05988L46.98 5.05988L47.4 5.99988C47.2936 6.08741 47.2254 6.21295 47.21 6.34988C47.12 6.81988 47.15 8.27988 49.6 11.5699C49.71 11.6799 53.55 16.0499 52.55 21.5099C52.3003 22.6943 51.7939 23.8096 51.0665 24.7771C50.3391 25.7446 49.4084 26.5409 48.34 27.1099C47.17 27.7799 46.83 28.2999 46.81 28.4999C46.65 30.6599 46.3 33.3899 45.35 34.1999Z" fill="#454545"/>
<path d="M38 79C30.4843 79 23.1374 76.7714 16.8883 72.5959C10.6393 68.4204 5.76872 62.4856 2.89259 55.542C0.0164647 48.5984 -0.736062 40.9579 0.730176 33.5866C2.19641 26.2153 5.81556 19.4444 11.13 14.13C16.4444 8.81556 23.2153 5.19641 30.5866 3.73018C37.9579 2.26394 45.5984 3.01646 52.542 5.89259C59.4856 8.76872 65.4204 13.6393 69.5959 19.8883C73.7714 26.1374 76 33.4843 76 41C76 51.0782 71.9965 60.7437 64.8701 67.8701C57.7437 74.9965 48.0782 79 38 79ZM38 5.37002C30.9531 5.37002 24.0644 7.45968 18.205 11.3748C12.3457 15.2898 7.77894 20.8545 5.08219 27.365C2.38544 33.8755 1.67985 41.0395 3.05464 47.9511C4.42943 54.8626 7.82286 61.2113 12.8058 66.1942C17.7887 71.1772 24.1374 74.5706 31.0489 75.9454C37.9605 77.3202 45.1245 76.6146 51.635 73.9178C58.1456 71.2211 63.7102 66.6543 67.6253 60.795C71.5404 54.9357 73.63 48.047 73.63 41C73.6194 31.5536 69.8622 22.4971 63.1825 15.8175C56.5029 9.13787 47.4464 5.3806 38 5.37002Z" fill="#454545"/>
<path d="M47.3498 16.0001C47.3498 15.7687 47.2811 15.5425 47.1526 15.3501C47.024 15.1577 46.8413 15.0077 46.6275 14.9191C46.4137 14.8306 46.1785 14.8074 45.9515 14.8526C45.7246 14.8977 45.5161 15.0091 45.3524 15.1728C45.1888 15.3364 45.0774 15.5449 45.0322 15.7718C44.9871 15.9988 45.0103 16.234 45.0988 16.4478C45.1874 16.6616 45.3373 16.8443 45.5297 16.9729C45.7222 17.1015 45.9484 17.1701 46.1798 17.1701C46.4901 17.1701 46.7877 17.0468 47.0071 16.8274C47.2265 16.608 47.3498 16.3104 47.3498 16.0001Z" fill="#FE3347"/>
<path d="M51.6291 16.0001C51.6291 15.7687 51.5604 15.5425 51.4319 15.3501C51.3033 15.1577 51.1206 15.0077 50.9068 14.9191C50.693 14.8306 50.4578 14.8074 50.2308 14.8526C50.0038 14.8977 49.7954 15.0091 49.6317 15.1728C49.4681 15.3364 49.3567 15.5449 49.3115 15.7718C49.2664 15.9988 49.2896 16.234 49.3781 16.4478C49.4667 16.6616 49.6166 16.8443 49.809 16.9729C50.0015 17.1015 50.2277 17.1701 50.4591 17.1701C50.7694 17.1701 51.067 17.0468 51.2864 16.8274C51.5058 16.608 51.6291 16.3104 51.6291 16.0001Z" fill="#FE3347"/>
<path d="M55.9107 16C55.9127 15.7658 55.8449 15.5363 55.716 15.3407C55.5871 15.1451 55.403 14.9923 55.1869 14.9018C54.9709 14.8112 54.7328 14.787 54.503 14.8322C54.2732 14.8775 54.062 14.99 53.8964 15.1557C53.7308 15.3213 53.6182 15.5325 53.573 15.7623C53.5278 15.9921 53.552 16.2302 53.6425 16.4462C53.7331 16.6622 53.8859 16.8464 54.0814 16.9753C54.277 17.1042 54.5065 17.172 54.7407 17.17C55.051 17.17 55.3486 17.0467 55.5681 16.8273C55.7875 16.6079 55.9107 16.3103 55.9107 16Z" fill="#FE3347"/>
<path d="M43.0807 16.0001C43.0826 15.7663 43.0151 15.5371 42.8867 15.3418C42.7582 15.1464 42.5746 14.9936 42.3592 14.9028C42.1438 14.8119 41.9062 14.7871 41.6766 14.8315C41.4471 14.8759 41.2359 14.9875 41.0699 15.1521C40.9038 15.3168 40.7905 15.527 40.7441 15.7562C40.6978 15.9853 40.7206 16.2231 40.8096 16.4393C40.8986 16.6555 41.0498 16.8404 41.2441 16.9705C41.4383 17.1006 41.6669 17.1701 41.9007 17.1701C42.0551 17.1714 42.2084 17.1421 42.3515 17.0839C42.4946 17.0257 42.6247 16.9397 42.7344 16.8309C42.8442 16.7222 42.9312 16.5927 42.9907 16.4501C43.0501 16.3075 43.0807 16.1546 43.0807 16.0001Z" fill="#FE3347"/>
<path d="M38.7994 16C38.8014 15.7658 38.7336 15.5363 38.6047 15.3407C38.4758 15.1451 38.2916 14.9923 38.0756 14.9018C37.8596 14.8112 37.6215 14.787 37.3917 14.8322C37.1619 14.8775 36.9507 14.99 36.7851 15.1557C36.6194 15.3213 36.5069 15.5325 36.4616 15.7623C36.4164 15.9921 36.4406 16.2302 36.5312 16.4462C36.6217 16.6622 36.7745 16.8464 36.9701 16.9753C37.1657 17.1042 37.3952 17.172 37.6294 17.17C37.9397 17.17 38.2373 17.0467 38.4567 16.8273C38.6761 16.6079 38.7994 16.3103 38.7994 16Z" fill="#FE3347"/>
<path d="M34.5197 16.0001C34.5197 15.7687 34.4511 15.5425 34.3225 15.3501C34.1939 15.1577 34.0112 15.0077 33.7974 14.9191C33.5836 14.8306 33.3484 14.8074 33.1214 14.8526C32.8945 14.8977 32.686 15.0091 32.5224 15.1728C32.3587 15.3364 32.2473 15.5449 32.2022 15.7718C32.157 15.9988 32.1802 16.234 32.2688 16.4478C32.3573 16.6616 32.5073 16.8443 32.6997 16.9729C32.8921 17.1015 33.1183 17.1701 33.3497 17.1701C33.66 17.1701 33.9576 17.0468 34.177 16.8274C34.3964 16.608 34.5197 16.3104 34.5197 16.0001Z" fill="#FE3347"/>
<path d="M30.2404 16.0001C30.2404 15.7687 30.1718 15.5425 30.0432 15.3501C29.9146 15.1577 29.7319 15.0077 29.5181 14.9191C29.3043 14.8306 29.0691 14.8074 28.8421 14.8526C28.6152 14.8977 28.4067 15.0091 28.2431 15.1728C28.0794 15.3364 27.968 15.5449 27.9229 15.7718C27.8777 15.9988 27.9009 16.234 27.9895 16.4478C28.078 16.6616 28.228 16.8443 28.4204 16.9729C28.6128 17.1015 28.839 17.1701 29.0704 17.1701C29.3807 17.1701 29.6783 17.0468 29.8977 16.8274C30.1171 16.608 30.2404 16.3104 30.2404 16.0001Z" fill="#FE3347"/>
<path d="M23.8695 44.5099C24.1004 44.5079 24.3256 44.4376 24.5167 44.3079C24.7078 44.1781 24.8562 43.9947 24.9432 43.7807C25.0303 43.5668 25.052 43.3318 25.0057 43.1056C24.9595 42.8793 24.8473 42.6717 24.6832 42.5091C24.5192 42.3465 24.3107 42.236 24.0841 42.1917C23.8574 42.1473 23.6226 42.1711 23.4094 42.2599C23.1962 42.3488 23.0141 42.4987 22.886 42.6909C22.7578 42.8831 22.6895 43.1089 22.6895 43.3399C22.6894 43.4944 22.72 43.6473 22.7795 43.7899C22.8389 43.9325 22.926 44.062 23.0357 44.1708C23.1454 44.2795 23.2755 44.3655 23.4186 44.4237C23.5617 44.4819 23.715 44.5112 23.8695 44.5099Z" fill="#FE3347"/>
<path d="M23.8695 48.4C24.1004 48.398 24.3256 48.3277 24.5167 48.198C24.7078 48.0682 24.8562 47.8848 24.9432 47.6709C25.0303 47.4569 25.052 47.222 25.0057 46.9957C24.9595 46.7694 24.8473 46.5619 24.6832 46.3992C24.5192 46.2366 24.3107 46.1262 24.0841 46.0818C23.8574 46.0375 23.6226 46.0612 23.4094 46.1501C23.1962 46.2389 23.0141 46.3889 22.886 46.5811C22.7578 46.7732 22.6895 46.999 22.6895 47.23C22.6894 47.3845 22.72 47.5375 22.7795 47.6801C22.8389 47.8227 22.926 47.9521 23.0357 48.0609C23.1454 48.1697 23.2755 48.2556 23.4186 48.3138C23.5617 48.3721 23.715 48.4013 23.8695 48.4Z" fill="#FE3347"/>
<path d="M23.8695 52.2902C24.1004 52.2882 24.3256 52.2179 24.5167 52.0881C24.7078 51.9584 24.8562 51.775 24.9432 51.561C25.0303 51.3471 25.052 51.1121 25.0057 50.8858C24.9595 50.6595 24.8473 50.452 24.6832 50.2894C24.5192 50.1267 24.3107 50.0163 24.0841 49.972C23.8574 49.9276 23.6226 49.9514 23.4094 50.0402C23.1962 50.129 23.0141 50.279 22.886 50.4712C22.7578 50.6634 22.6895 50.8892 22.6895 51.1202C22.6894 51.2746 22.72 51.4276 22.7795 51.5702C22.8389 51.7128 22.926 51.8422 23.0357 51.951C23.1454 52.0598 23.2755 52.1458 23.4186 52.204C23.5617 52.2622 23.715 52.2915 23.8695 52.2902Z" fill="#FE3347"/>
<path d="M23.8695 56.1798C24.1 56.1778 24.3249 56.1078 24.5157 55.9785C24.7066 55.8491 24.855 55.6663 24.9423 55.4529C25.0296 55.2396 25.0519 55.0051 25.0065 54.7791C24.961 54.5531 24.8498 54.3456 24.6868 54.1825C24.5237 54.0195 24.3162 53.9083 24.0902 53.8628C23.8641 53.8174 23.6297 53.8397 23.4164 53.927C23.203 54.0143 23.0202 54.1627 22.8908 54.3536C22.7615 54.5444 22.6915 54.7693 22.6895 54.9998C22.6882 55.1551 22.7178 55.3092 22.7766 55.4529C22.8354 55.5967 22.9223 55.7273 23.0321 55.8372C23.142 55.947 23.2726 56.0339 23.4164 56.0927C23.5601 56.1515 23.7142 56.1811 23.8695 56.1798Z" fill="#FE3347"/>
<path d="M23.8695 60.07C24.1033 60.07 24.3318 60.0005 24.5261 59.8704C24.7204 59.7403 24.8716 59.5554 24.9606 59.3392C25.0496 59.123 25.0724 58.8852 25.026 58.6561C24.9797 58.4269 24.8663 58.2167 24.7003 58.052C24.5343 57.8874 24.3231 57.7758 24.0935 57.7314C23.864 57.687 23.6264 57.7118 23.411 57.8027C23.1955 57.8935 23.0119 58.0463 22.8835 58.2417C22.755 58.437 22.6875 58.6662 22.6895 58.9C22.6921 59.2112 22.8176 59.5088 23.0386 59.7279C23.2596 59.947 23.5583 60.07 23.8695 60.07Z" fill="#FE3347"/>
<path d="M23.8695 64.0001C24.1033 64.0001 24.3318 63.9307 24.5261 63.8006C24.7204 63.6704 24.8716 63.4856 24.9606 63.2694C25.0496 63.0532 25.0724 62.8154 25.026 62.5862C24.9797 62.3571 24.8663 62.1468 24.7003 61.9822C24.5343 61.8176 24.3231 61.706 24.0935 61.6616C23.864 61.6172 23.6264 61.642 23.411 61.7329C23.1955 61.8237 23.0119 61.9765 22.8835 62.1719C22.755 62.3672 22.6875 62.5963 22.6895 62.8301C22.6921 63.1414 22.8176 63.4389 23.0386 63.6581C23.2596 63.8772 23.5583 64.0001 23.8695 64.0001Z" fill="#FE3347"/>
<path d="M23.8695 40.63C24.1028 40.63 24.331 40.5608 24.525 40.4312C24.7191 40.3015 24.8703 40.1172 24.9596 39.9016C25.0489 39.686 25.0723 39.4487 25.0268 39.2198C24.9812 38.9909 24.8689 38.7807 24.7038 38.6156C24.5388 38.4506 24.3286 38.3382 24.0997 38.2927C23.8708 38.2472 23.6335 38.2705 23.4179 38.3598C23.2023 38.4492 23.018 38.6004 22.8883 38.7944C22.7587 38.9885 22.6895 39.2166 22.6895 39.45C22.6895 39.763 22.8138 40.0631 23.0351 40.2844C23.2564 40.5057 23.5565 40.63 23.8695 40.63Z" fill="#FE3347"/>
<path d="M23.8695 36.7399C24.1028 36.7399 24.331 36.6707 24.525 36.541C24.7191 36.4114 24.8703 36.2271 24.9596 36.0114C25.0489 35.7958 25.0723 35.5586 25.0268 35.3297C24.9812 35.1008 24.8689 34.8905 24.7038 34.7255C24.5388 34.5605 24.3286 34.4481 24.0997 34.4026C23.8708 34.357 23.6335 34.3804 23.4179 34.4697C23.2023 34.559 23.018 34.7103 22.8883 34.9043C22.7587 35.0984 22.6895 35.3265 22.6895 35.5599C22.6895 35.8728 22.8138 36.173 23.0351 36.3943C23.2564 36.6156 23.5565 36.7399 23.8695 36.7399Z" fill="#FE3347"/>
<path d="M23.8695 32.8502C24.1033 32.8502 24.3318 32.7808 24.5261 32.6507C24.7204 32.5205 24.8716 32.3357 24.9606 32.1195C25.0496 31.9033 25.0724 31.6655 25.026 31.4363C24.9797 31.2072 24.8663 30.9969 24.7003 30.8323C24.5343 30.6677 24.3231 30.5561 24.0935 30.5117C23.864 30.4673 23.6264 30.4921 23.411 30.583C23.1955 30.6738 23.0119 30.8266 22.8835 31.022C22.755 31.2173 22.6875 31.4464 22.6895 31.6802C22.6921 31.9915 22.8176 32.289 23.0386 32.5082C23.2596 32.7273 23.5583 32.8502 23.8695 32.8502Z" fill="#FE3347"/>
<path d="M23.8695 29.0001C24.1033 29.0001 24.3318 28.9307 24.5261 28.8006C24.7204 28.6704 24.8716 28.4856 24.9606 28.2694C25.0496 28.0532 25.0724 27.8154 25.026 27.5862C24.9797 27.3571 24.8663 27.1468 24.7003 26.9822C24.5343 26.8176 24.3231 26.706 24.0935 26.6616C23.864 26.6172 23.6264 26.642 23.411 26.7329C23.1955 26.8237 23.0119 26.9765 22.8835 27.1719C22.755 27.3672 22.6875 27.5963 22.6895 27.8301C22.6921 28.1414 22.8176 28.4389 23.0386 28.6581C23.2596 28.8772 23.5583 29.0001 23.8695 29.0001Z" fill="#FE3347"/>
<path d="M23.8695 25.0699C24.1004 25.068 24.3256 24.9977 24.5167 24.8679C24.7078 24.7382 24.8562 24.5547 24.9432 24.3408C25.0303 24.1268 25.052 23.8919 25.0057 23.6656C24.9595 23.4393 24.8473 23.2318 24.6832 23.0692C24.5192 22.9065 24.3107 22.7961 24.0841 22.7517C23.8574 22.7074 23.6226 22.7311 23.4094 22.82C23.1962 22.9088 23.0141 23.0588 22.886 23.251C22.7578 23.4432 22.6895 23.669 22.6895 23.8999C22.6894 24.0544 22.72 24.2074 22.7795 24.35C22.8389 24.4926 22.926 24.622 23.0357 24.7308C23.1454 24.8396 23.2755 24.9256 23.4186 24.9838C23.5617 25.042 23.715 25.0713 23.8695 25.0699Z" fill="#FE3347"/>
<path d="M19.8301 20.1999C19.8339 20.3206 19.884 20.4352 19.9701 20.5199L20.4801 21.0299C20.5219 21.0722 20.5718 21.1058 20.6267 21.1288C20.6816 21.1517 20.7406 21.1635 20.8001 21.1635C20.8596 21.1635 20.9185 21.1517 20.9735 21.1288C21.0284 21.1058 21.0782 21.0722 21.1201 21.0299L23.8601 18.2899L26.6101 21.0499C26.6963 21.136 26.8132 21.1844 26.9351 21.1844C27.0569 21.1844 27.1738 21.136 27.2601 21.0499L27.7701 20.5399C27.8516 20.4513 27.8968 20.3353 27.8968 20.2149C27.8968 20.0945 27.8516 19.9785 27.7701 19.8899L24.7701 16.8899L24.2501 16.3699C24.1631 16.2891 24.0488 16.2441 23.9301 16.2441C23.8114 16.2441 23.697 16.2891 23.6101 16.3699L20.0001 19.8699C19.9508 19.9105 19.9103 19.9607 19.8811 20.0174C19.8519 20.0741 19.8345 20.1362 19.8301 20.1999Z" fill="#FE3347"/>
<path d="M27.8997 66.4902C27.8976 66.3711 27.8513 66.257 27.7697 66.1702L27.2497 65.6502C27.1628 65.5694 27.0485 65.5244 26.9297 65.5244C26.811 65.5244 26.6967 65.5694 26.6097 65.6502L23.8697 68.3902L21.1197 65.6302C21.0311 65.5487 20.9151 65.5034 20.7947 65.5034C20.6743 65.5034 20.5583 65.5487 20.4697 65.6302L19.9597 66.1502C19.8789 66.2371 19.834 66.3515 19.834 66.4702C19.834 66.5889 19.8789 66.7032 19.9597 66.7902L22.9597 69.7902L23.4697 70.3002C23.5116 70.3425 23.5614 70.3761 23.6164 70.3991C23.6713 70.422 23.7302 70.4338 23.7897 70.4338C23.8493 70.4338 23.9082 70.422 23.9631 70.3991C24.0181 70.3761 24.0679 70.3425 24.1097 70.3002L27.6897 66.7302C27.7841 66.6752 27.8578 66.591 27.8997 66.4902Z" fill="#FE3347"/>
</g>
<path d="M124.99 79.834H123.898V67.416H124.99V79.834ZM123.436 76.936C122.363 77.0667 121.243 77.16 120.076 77.216C118.909 77.272 117.649 77.3 116.296 77.3H114.938V76.32H118.48V74.066H119.572V76.306C119.871 76.306 120.188 76.2967 120.524 76.278C120.869 76.2593 121.21 76.236 121.546 76.208C121.891 76.18 122.223 76.152 122.54 76.124C122.867 76.0867 123.165 76.0447 123.436 75.998V76.936ZM120.734 68.564H117.276V67.64H120.734V68.564ZM122.204 70.706H119.656V70.734C119.656 71.098 119.754 71.4247 119.95 71.714C120.155 72.0033 120.403 72.26 120.692 72.484C120.991 72.7267 121.317 72.9273 121.672 73.086C122.027 73.2447 122.363 73.366 122.68 73.45C122.549 73.5713 122.423 73.7067 122.302 73.856C122.181 74.0053 122.078 74.136 121.994 74.248C121.733 74.164 121.462 74.0567 121.182 73.926C120.902 73.7953 120.636 73.646 120.384 73.478C120.123 73.31 119.88 73.1187 119.656 72.904C119.432 72.68 119.236 72.4233 119.068 72.134C118.732 72.7407 118.354 73.2027 117.934 73.52C117.654 73.744 117.351 73.9447 117.024 74.122C116.707 74.29 116.38 74.4487 116.044 74.598C115.932 74.486 115.792 74.3507 115.624 74.192C115.456 74.024 115.316 73.8933 115.204 73.8C115.633 73.6693 116.058 73.4873 116.478 73.254C116.907 73.0207 117.281 72.7453 117.598 72.428C118.121 71.952 118.41 71.378 118.466 70.706H115.904V69.768H122.204V70.706ZM136.681 74.626C136.233 74.458 135.785 74.2527 135.337 74.01C134.898 73.758 134.483 73.4733 134.091 73.156C133.699 72.8293 133.344 72.4793 133.027 72.106C132.719 71.7327 132.476 71.322 132.299 70.874C132.103 71.3127 131.851 71.7233 131.543 72.106C131.244 72.4793 130.904 72.8247 130.521 73.142C130.138 73.4593 129.723 73.744 129.275 73.996C128.836 74.248 128.379 74.4627 127.903 74.64L127.077 73.786C127.637 73.618 128.192 73.38 128.743 73.072C129.294 72.764 129.784 72.4 130.213 71.98C130.661 71.56 131.016 71.098 131.277 70.594C131.548 70.0807 131.683 69.53 131.683 68.942V67.92H132.873V68.942C132.873 69.5113 133.008 70.0573 133.279 70.58C133.559 71.0933 133.923 71.5647 134.371 71.994C134.819 72.414 135.309 72.7827 135.841 73.1C136.382 73.408 136.919 73.6367 137.451 73.786L136.681 74.626ZM137.983 78.252H126.587V77.3H131.711V74.178H132.845V77.3H137.983V78.252Z" fill="#454545"/>
<path d="M198.795 79.6878C198.472 80.1984 197.925 80.5892 197.154 80.8602C196.393 81.1416 195.46 81.2823 194.356 81.2823C193.616 81.2823 192.949 81.2197 192.355 81.0947C191.771 80.9696 191.271 80.7872 190.854 80.5476C190.448 80.3079 190.135 80.0161 189.916 79.6722C189.697 79.3387 189.588 78.9583 189.588 78.531C189.588 78.1142 189.697 77.7338 189.916 77.3899C190.135 77.046 190.453 76.7594 190.87 76.5302C191.286 76.2905 191.787 76.1081 192.37 75.983C192.954 75.8476 193.616 75.7798 194.356 75.7798C195.815 75.7798 196.977 76.0299 197.841 76.5302C198.706 77.0304 199.139 77.7026 199.139 78.5467C199.139 78.9844 199.024 79.3647 198.795 79.6878ZM196.482 74.201C195.731 74.3261 194.939 74.4146 194.105 74.4667C193.272 74.5084 192.433 74.5293 191.589 74.5293H187.681V73.4819H189.385L189.306 68.8549H188.072V67.8232H195.544V68.8549H194.231L194.168 73.4194C194.606 73.3986 195.007 73.3725 195.372 73.3413C195.736 73.2996 196.106 73.2475 196.482 73.1849V74.201ZM194.356 80.2974C195.293 80.2974 196.127 80.1463 196.857 79.8441C197.513 79.5523 197.841 79.1251 197.841 78.5623C197.841 77.9996 197.513 77.5619 196.857 77.2492C196.2 76.9366 195.366 76.7803 194.356 76.7803C193.407 76.7803 192.574 76.9314 191.854 77.2336C191.208 77.5358 190.885 77.9631 190.885 78.5154C190.885 79.0782 191.208 79.5159 191.854 79.8285C192.49 80.1411 193.324 80.2974 194.356 80.2974ZM199.014 75.7329H197.779V72.4502H195.606V71.4498H197.779V70.1836H195.606V69.1832H197.779V67.1823H199.014V75.7329ZM190.557 73.4819H192.214C192.475 73.4819 192.725 73.4767 192.964 73.4663L193.058 68.8549H190.494L190.557 73.4819ZM210.426 78.1402H209.191V74.1072H206.675V78.1402H205.455V74.1072H200.953V73.0442H210.317C210.379 72.7003 210.442 72.3356 210.504 71.95C210.567 71.5644 210.624 71.1788 210.676 70.7933C210.739 70.4077 210.786 70.0325 210.817 69.6678C210.859 69.303 210.89 68.9643 210.911 68.6517H202.407V67.5887H211.849C211.974 67.5887 212.057 67.6148 212.099 67.6669C212.151 67.7086 212.177 67.7919 212.177 67.917C212.146 68.3234 212.109 68.7507 212.068 69.1988C212.026 69.6469 211.974 70.095 211.911 70.5431C211.849 70.9913 211.781 71.4289 211.708 71.8562C211.646 72.2835 211.578 72.6795 211.505 73.0442H213.631V74.1072H210.426V78.1402ZM212.427 80.7508H203.001C202.876 80.7508 202.787 80.7247 202.735 80.6726C202.694 80.6309 202.673 80.5476 202.673 80.4225V76.28H203.876V79.6878H212.427V80.7508Z" fill="#454545"/>
<path d="M279.007 81.0478H277.788V67.1823H279.007V81.0478ZM277.272 77.812C276.073 77.9579 274.823 78.0621 273.52 78.1246C272.217 78.1871 270.81 78.2184 269.299 78.2184H267.783V77.1242H271.738V74.6074H272.957V77.1085C273.291 77.1085 273.645 77.0981 274.02 77.0773C274.406 77.0564 274.786 77.0304 275.161 76.9991C275.547 76.9679 275.917 76.9366 276.271 76.9053C276.636 76.8636 276.969 76.8167 277.272 76.7646V77.812ZM274.255 68.4641H270.394V67.4324H274.255V68.4641ZM275.896 70.8558H273.051V70.887C273.051 71.2935 273.16 71.6582 273.379 71.9813C273.609 72.3043 273.885 72.5909 274.208 72.841C274.541 73.112 274.906 73.336 275.302 73.5132C275.698 73.6904 276.073 73.8258 276.428 73.9196C276.282 74.0551 276.141 74.2062 276.005 74.373C275.87 74.5397 275.755 74.6856 275.662 74.8107C275.37 74.7169 275.068 74.597 274.755 74.4511C274.442 74.3052 274.145 74.1385 273.864 73.9509C273.572 73.7633 273.301 73.5497 273.051 73.31C272.801 73.0599 272.582 72.7733 272.395 72.4502C272.019 73.1276 271.597 73.6435 271.128 73.9978C270.816 74.2479 270.477 74.472 270.112 74.67C269.758 74.8575 269.393 75.0347 269.018 75.2014C268.893 75.0764 268.737 74.9253 268.549 74.7481C268.361 74.5605 268.205 74.4146 268.08 74.3104C268.559 74.1645 269.034 73.9613 269.503 73.7008C269.982 73.4403 270.399 73.1328 270.753 72.7785C271.337 72.247 271.66 71.6061 271.722 70.8558H268.862V69.8084H275.896V70.8558ZM287.59 77.1398C286.965 77.244 286.251 77.3326 285.448 77.4055C284.656 77.4681 283.854 77.4993 283.041 77.4993H282.306C282.171 77.4993 282.082 77.4785 282.04 77.4368C281.999 77.3951 281.978 77.3118 281.978 77.1867V68.3859C281.978 68.2609 281.999 68.1775 282.04 68.1358C282.093 68.0837 282.181 68.0577 282.306 68.0577H286.683V69.105H283.197V76.3738H283.494C283.776 76.3738 284.099 76.3686 284.463 76.3582C284.828 76.3478 285.198 76.3269 285.573 76.2957C285.948 76.2644 286.308 76.2332 286.652 76.2019C287.006 76.1602 287.319 76.1133 287.59 76.0612V77.1398ZM292.53 81.0321H291.326V73.3256H289.481V80.3756H288.293V67.4168H289.481V72.1376H291.326V67.1823H292.53V81.0321Z" fill="#454545"/>
<rect x="114" y="47" width="180" height="14" rx="7" fill="#BBBBBB"/>
<rect x="202" y="44" width="4" height="20" rx="2" fill="#454545"/>
<rect x="114.5" y="0.5" width="179" height="32" rx="16" stroke="#454545"/>
<rect x="114" width="92" height="33" rx="16.5" fill="#454545"/>
<path d="M141.746 24.3486H140.33V8.446H141.746V13.968H144.077V15.2409H141.746V24.3486ZM139.541 19.5796C139.147 19.6753 138.698 19.7649 138.196 19.8486C137.706 19.9203 137.186 19.986 136.637 20.0458C136.099 20.0936 135.555 20.1354 135.005 20.1713C134.455 20.2071 133.941 20.2251 133.463 20.2251L130.756 20.243C130.613 20.243 130.511 20.2191 130.451 20.1713C130.403 20.1115 130.379 20.0099 130.379 19.8665V9.75478C130.379 9.61135 130.403 9.51574 130.451 9.46793C130.511 9.40816 130.613 9.37828 130.756 9.37828H137.533V10.5795H131.796V19.0059L134.682 18.9521C135.041 18.9521 135.423 18.9342 135.83 18.8984C136.248 18.8505 136.672 18.8027 137.103 18.7549C137.533 18.6952 137.957 18.6354 138.376 18.5756C138.794 18.5159 139.182 18.4501 139.541 18.3784V19.5796ZM155.821 19.8306C155.451 19.9024 155.021 19.9741 154.531 20.0458C154.052 20.1175 153.509 20.1832 152.899 20.243C152.289 20.3028 151.644 20.3506 150.963 20.3864C150.293 20.4223 149.612 20.4402 148.919 20.4402H146.624C146.481 20.4402 146.379 20.4163 146.319 20.3685C146.271 20.3087 146.248 20.2071 146.248 20.0637V14.5417C146.248 14.3983 146.271 14.3027 146.319 14.2549C146.379 14.1951 146.481 14.1652 146.624 14.1652H151.967V10.454H146.248V9.21693H152.989C153.132 9.21693 153.228 9.24681 153.276 9.30657C153.335 9.35438 153.365 9.45 153.365 9.59343V15.0079C153.365 15.1513 153.335 15.2529 153.276 15.3126C153.228 15.3605 153.132 15.3844 152.989 15.3844H147.664V19.1673H149.403C150.048 19.1673 150.682 19.1494 151.303 19.1135C151.925 19.0776 152.523 19.0358 153.096 18.988C153.67 18.9282 154.184 18.8685 154.638 18.8087C155.104 18.737 155.499 18.6653 155.821 18.5936V19.8306ZM158.045 24.3307H156.628V8.446H158.045V24.3307ZM168.713 9.18107C168.857 9.18107 168.952 9.21095 169 9.27071C169.06 9.31852 169.09 9.41414 169.09 9.55757C168.815 11.4102 168.032 12.9281 166.741 14.1114C165.426 15.3306 163.789 16.233 161.829 16.8186L160.968 15.7788C161.769 15.5756 162.522 15.3067 163.227 14.972C163.944 14.6373 164.59 14.2429 165.163 13.7887C165.737 13.3465 166.215 12.8445 166.598 12.2827C166.992 11.709 167.273 11.0815 167.44 10.4002H161.936V9.18107H168.713ZM173.877 16.6931H172.46V8.446H173.877V16.6931ZM174.217 24.1873H163.891C163.747 24.1873 163.645 24.1574 163.586 24.0976C163.538 24.0498 163.514 23.9542 163.514 23.8108V20.6733C163.514 20.5299 163.538 20.4342 163.586 20.3864C163.645 20.3267 163.747 20.2968 163.891 20.2968H172.335V18.7191H163.514V17.5537H173.482C173.626 17.5537 173.721 17.5836 173.769 17.6434C173.829 17.6912 173.859 17.7868 173.859 17.9302V21.0139C173.859 21.1574 173.829 21.259 173.769 21.3187C173.721 21.3665 173.626 21.3904 173.482 21.3904H165.038V23.0399H174.217V24.1873ZM183.685 19.4183C183.326 19.9203 182.908 20.2968 182.43 20.5478C181.964 20.7868 181.462 20.9064 180.924 20.9064C180.374 20.9064 179.86 20.7868 179.382 20.5478C178.904 20.3087 178.486 19.9382 178.127 19.4362C177.768 18.9342 177.488 18.3127 177.284 17.5716C177.081 16.8186 176.98 15.9162 176.98 14.8644C176.98 13.8126 177.081 12.9102 177.284 12.1572C177.488 11.4042 177.763 10.7767 178.109 10.2747C178.468 9.77271 178.88 9.40816 179.346 9.18107C179.824 8.94202 180.35 8.8225 180.924 8.8225C181.462 8.8225 181.964 8.948 182.43 9.199C182.908 9.43805 183.326 9.80857 183.685 10.3106C184.043 10.8126 184.324 11.4341 184.528 12.1751C184.743 12.9162 184.85 13.8126 184.85 14.8644C184.85 15.9162 184.743 16.8127 184.528 17.5537C184.324 18.2948 184.043 18.9163 183.685 19.4183ZM182.035 19.2569C182.203 19.1255 182.352 18.9701 182.484 18.7908C182.615 18.6115 182.729 18.4203 182.824 18.2171C183.028 17.7868 183.177 17.2848 183.273 16.7111C183.38 16.1254 183.434 15.5099 183.434 14.8644C183.434 14.219 183.38 13.6154 183.273 13.0536C183.177 12.4799 183.028 11.972 182.824 11.5297C182.621 11.0994 182.358 10.7528 182.035 10.4899C181.725 10.2269 181.354 10.0954 180.924 10.0954C180.482 10.0954 180.099 10.2269 179.776 10.4899C179.454 10.7528 179.191 11.1054 178.988 11.5476C178.772 11.9899 178.617 12.4979 178.521 13.0716C178.426 13.6453 178.378 14.2429 178.378 14.8644C178.378 15.5099 178.426 16.1254 178.521 16.7111C178.629 17.2848 178.784 17.7868 178.988 18.2171C179.203 18.6593 179.466 19.0059 179.776 19.2569C180.099 19.5079 180.482 19.6334 180.924 19.6334C181.354 19.6334 181.725 19.5079 182.035 19.2569ZM189.368 24.3666H187.952V8.446H189.368V24.3666Z" fill="white"/>
<path d="M231.353 14.5059C231.592 14.3027 231.784 14.0576 231.927 13.7708C232.071 13.472 232.142 13.1313 232.142 12.7489C232.142 12.3903 232.071 12.0676 231.927 11.7807C231.784 11.4819 231.592 11.2309 231.353 11.0277C231.114 10.8126 230.827 10.6512 230.493 10.5436C230.158 10.4361 229.806 10.3823 229.435 10.3823C229.065 10.3823 228.712 10.4361 228.377 10.5436C228.055 10.6512 227.768 10.8126 227.517 11.0277C227.278 11.2309 227.086 11.4819 226.943 11.7807C226.8 12.0676 226.728 12.3903 226.728 12.7489C226.728 13.1313 226.794 13.472 226.925 13.7708C227.068 14.0576 227.26 14.3027 227.499 14.5059C227.738 14.6971 228.025 14.8465 228.359 14.9541C228.694 15.0616 229.053 15.1154 229.435 15.1154C229.806 15.1154 230.158 15.0616 230.493 14.9541C230.827 14.8465 231.114 14.6971 231.353 14.5059ZM231.533 20.9422C232.047 20.4641 232.304 19.8306 232.304 19.0418C232.304 18.6115 232.22 18.235 232.053 17.9123C231.885 17.5776 231.664 17.3027 231.389 17.0876C231.126 16.8605 230.822 16.6931 230.475 16.5856C230.14 16.478 229.794 16.4242 229.435 16.4242C229.076 16.4242 228.724 16.478 228.377 16.5856C228.031 16.6931 227.72 16.8605 227.445 17.0876C227.182 17.3027 226.967 17.5776 226.8 17.9123C226.644 18.235 226.566 18.6115 226.566 19.0418C226.566 19.8306 226.817 20.4641 227.319 20.9422C227.833 21.4203 228.539 21.6594 229.435 21.6594C230.32 21.6594 231.019 21.4203 231.533 20.9422ZM232.196 15.3844C231.909 15.5995 231.586 15.7549 231.228 15.8505C232.017 16.0656 232.632 16.4541 233.075 17.0159C233.517 17.5657 233.738 18.235 233.738 19.0239C233.738 19.6334 233.63 20.1773 233.415 20.6554C233.212 21.1335 232.919 21.5398 232.537 21.8745C232.154 22.1972 231.694 22.4422 231.156 22.6096C230.63 22.7769 230.051 22.8606 229.417 22.8606C228.784 22.8606 228.204 22.7769 227.678 22.6096C227.152 22.4422 226.698 22.1972 226.315 21.8745C225.945 21.5398 225.652 21.1335 225.437 20.6554C225.234 20.1773 225.132 19.6334 225.132 19.0239C225.132 18.5099 225.252 18.0199 225.491 17.5537C225.742 17.0876 226.1 16.6812 226.566 16.3346C226.65 16.2748 226.728 16.221 226.8 16.1732C226.883 16.1254 226.973 16.0776 227.068 16.0298C227.164 15.982 227.26 15.9401 227.355 15.9043C227.463 15.8565 227.564 15.8146 227.66 15.7788C227.29 15.7071 226.955 15.5756 226.656 15.3844C226.369 15.1812 226.124 14.9421 225.921 14.6672C225.718 14.3923 225.562 14.0875 225.455 13.7529C225.347 13.4182 225.294 13.0775 225.294 12.7309C225.294 12.1692 225.395 11.6672 225.598 11.2249C225.802 10.7827 226.082 10.4122 226.441 10.1134C226.811 9.80259 227.248 9.56952 227.75 9.41414C228.264 9.25876 228.825 9.18107 229.435 9.18107C230.045 9.18107 230.6 9.25876 231.102 9.41414C231.616 9.56952 232.053 9.80259 232.411 10.1134C232.782 10.4122 233.069 10.7827 233.272 11.2249C233.475 11.6672 233.577 12.1692 233.577 12.7309C233.577 13.209 233.451 13.6871 233.2 14.1652C232.949 14.6433 232.614 15.0497 232.196 15.3844ZM240.595 16.6394C241.097 16.3884 241.498 16.0059 241.796 15.4919C242.095 14.978 242.245 14.4162 242.245 13.8066C242.245 13.3285 242.179 12.8803 242.047 12.462C241.916 12.0437 241.725 11.6791 241.474 11.3684C241.235 11.0576 240.948 10.8185 240.613 10.6512C240.278 10.4719 239.908 10.3823 239.502 10.3823C239.047 10.3823 238.647 10.466 238.3 10.6333C237.954 10.8006 237.661 11.0337 237.422 11.3325C237.195 11.6194 237.015 11.966 236.884 12.3724C236.764 12.7668 236.705 13.1911 236.705 13.6453C236.705 14.0756 236.764 14.4879 236.884 14.8824C237.003 15.2768 237.177 15.6234 237.404 15.9222C237.643 16.221 237.936 16.4601 238.282 16.6394C238.629 16.8067 239.029 16.8904 239.484 16.8904C239.794 16.8904 240.165 16.8067 240.595 16.6394ZM236.938 19.4541C236.95 19.8008 237.027 20.1115 237.171 20.3864C237.314 20.6494 237.499 20.8765 237.727 21.0677C237.954 21.259 238.211 21.4084 238.498 21.5159C238.796 21.6115 239.107 21.6594 239.43 21.6594C240.063 21.6594 240.583 21.4801 240.99 21.1215C241.396 20.7629 241.719 20.2968 241.958 19.7231C242.197 19.1494 242.358 18.5099 242.442 17.8047C242.537 17.0995 242.585 16.4063 242.585 15.725C242.31 16.5139 241.874 17.0935 241.276 17.4641C240.691 17.8226 239.998 18.0019 239.197 18.0019C238.599 18.0019 238.061 17.9003 237.583 17.6971C237.105 17.482 236.693 17.1832 236.346 16.8007C236.011 16.4182 235.748 15.9581 235.557 15.4202C235.378 14.8824 235.288 14.2788 235.288 13.6094C235.288 12.9879 235.384 12.4082 235.575 11.8704C235.766 11.3325 236.041 10.8664 236.4 10.4719C236.758 10.0655 237.189 9.74881 237.691 9.52171C238.205 9.29462 238.778 9.18107 239.412 9.18107C239.986 9.18107 240.535 9.27071 241.061 9.45C241.599 9.62928 242.071 9.95797 242.478 10.4361C242.884 10.9142 243.207 11.5715 243.446 12.4082C243.697 13.2449 243.822 14.3266 243.822 15.6533C243.822 18.0557 243.422 19.8605 242.621 21.0677C241.832 22.263 240.745 22.8606 239.358 22.8606C238.235 22.8606 237.344 22.5558 236.687 21.9462C236.029 21.3366 235.641 20.506 235.521 19.4541H236.938ZM253.064 19.6334C252.909 20.757 252.502 21.5876 251.845 22.1255C251.199 22.6753 250.369 22.9502 249.353 22.9502C248.672 22.9502 248.074 22.8187 247.56 22.5558C247.058 22.2928 246.64 21.9402 246.305 21.498C245.97 21.0438 245.719 20.5239 245.552 19.9382C245.385 19.3525 245.301 18.743 245.301 18.1095C245.301 17.488 245.385 16.8844 245.552 16.2987C245.731 15.713 245.994 15.1991 246.341 14.7569C246.687 14.3027 247.118 13.9441 247.632 13.6811C248.158 13.4062 248.761 13.2688 249.442 13.2688C249.921 13.2688 250.375 13.3465 250.805 13.5019C251.235 13.6453 251.612 13.8545 251.935 14.1294C252.257 14.4043 252.514 14.7449 252.705 15.1513C252.909 15.5577 253.022 16.0178 253.046 16.5318H251.576C251.54 15.7788 251.325 15.2409 250.931 14.9182C250.536 14.5835 249.98 14.4162 249.263 14.4162C248.881 14.4162 248.534 14.5118 248.223 14.7031C247.925 14.8824 247.668 15.1393 247.452 15.474C247.237 15.7967 247.07 16.1852 246.95 16.6394C246.831 17.0816 246.771 17.5657 246.771 18.0916C246.771 18.6175 246.831 19.1075 246.95 19.5617C247.07 20.004 247.237 20.3924 247.452 20.7271C247.668 21.0617 247.925 21.3247 248.223 21.5159C248.534 21.6952 248.881 21.7849 249.263 21.7849C249.921 21.7849 250.446 21.6175 250.841 21.2829C251.247 20.9362 251.492 20.3864 251.576 19.6334H253.064ZM267.691 22.6634H266.347V16.9979C266.347 16.1015 266.197 15.4501 265.898 15.0437C265.612 14.6254 265.092 14.4162 264.339 14.4162C264.088 14.4162 263.831 14.47 263.568 14.5776C263.317 14.6732 263.084 14.8226 262.868 15.0258C262.665 15.217 262.486 15.462 262.331 15.7609C262.187 16.0597 262.092 16.4063 262.044 16.8007V22.6634H260.735V16.9979C260.735 16.1015 260.58 15.4501 260.269 15.0437C259.97 14.6254 259.456 14.4162 258.727 14.4162C258.44 14.4162 258.153 14.482 257.866 14.6134C257.58 14.733 257.323 14.9182 257.095 15.1692C256.88 15.4083 256.701 15.713 256.558 16.0836C256.426 16.4541 256.36 16.8844 256.36 17.3744V22.6634H255.07V13.5556H256.396L256.36 14.721C256.779 14.1831 257.203 13.8066 257.633 13.5915C258.076 13.3764 258.584 13.2688 259.157 13.2688C260.556 13.2688 261.446 13.8604 261.829 15.0437L261.972 14.721C262.378 14.1831 262.803 13.8066 263.245 13.5915C263.699 13.3764 264.213 13.2688 264.787 13.2688C265.767 13.2688 266.496 13.5556 266.974 14.1294C267.452 14.7031 267.691 15.5338 267.691 16.6214V22.6634Z" fill="#454545"/>
<path d="M206 47H208C211.866 47 215 50.134 215 54C215 57.866 211.866 61 208 61H206V47Z" fill="#FF7A00"/>
</g>
<defs>
<clipPath id="clip0_322_4807">
<rect width="294" height="81" fill="white"/>
</clipPath>
<clipPath id="clip1_322_4807">
<rect width="76" height="76" fill="white" transform="translate(0 3)"/>
</clipPath>
</defs>
</svg>
