<svg width="294" height="81" viewBox="0 0 294 81" fill="none" xmlns="http://www.w3.org/2000/svg">
<g clip-path="url(#clip0_377_1875)">
<path d="M95 80V1C95 0.447715 94.5523 0 94 0C93.4477 0 93 0.447715 93 0.999999V80C93 80.5523 93.4477 81 94 81C94.5523 81 95 80.5523 95 80Z" fill="#BBBBBB"/>
<path d="M288.365 35H293.757L291.047 39.695L288.365 44.3898L285.682 39.695L283 35H288.365Z" fill="#454545"/>
<g clip-path="url(#clip1_377_1875)">
<circle cx="38" cy="41" r="37" fill="#454545"/>
<path d="M31.8055 7.33008C27.8678 7.33273 24.0922 8.89813 21.3079 11.6825C18.5235 14.4668 16.9581 18.2424 16.9555 22.1801V29.7401C16.9569 30.2444 16.9836 30.7484 17.0355 31.2501C17.3455 32.1801 17.4155 33.5601 17.6955 34.3801C18.3487 36.3462 19.4044 38.1547 20.7955 39.6901L18.6455 52.4401C17.8455 54.09 17.28 55.8436 16.9655 57.6501V57.7701C16.9155 58.4001 16.3855 62.2501 15.8555 70.7701L18.3755 71.7701C18.9355 62.8701 19.3755 58.7701 19.3755 58.0401C20.1055 53.8701 21.7655 50.9701 24.2955 49.4101C27.9755 47.1301 32.4155 48.4101 32.4555 48.4101C32.6119 48.4653 32.7779 48.4883 32.9434 48.4777C33.1089 48.4671 33.2706 48.4232 33.4188 48.3485C33.5669 48.2738 33.6983 48.1699 33.8053 48.0431C33.9122 47.9163 33.9924 47.7692 34.041 47.6105C34.0896 47.4519 34.1056 47.2852 34.088 47.1202C34.0705 46.9553 34.0198 46.7956 33.9389 46.6507C33.8581 46.5059 33.7488 46.3789 33.6176 46.2774C33.4864 46.1759 33.336 46.102 33.1755 46.0601C32.9555 45.9901 27.6755 44.4101 23.0255 47.2601C22.5994 47.5649 22.1951 47.899 21.8155 48.2601L22.9455 41.5301C23.2027 41.6023 23.4754 41.5972 23.7297 41.5154C23.9841 41.4336 24.2086 41.2787 24.3755 41.0701C24.4879 40.9322 24.5718 40.7732 24.6222 40.6026C24.6725 40.4319 24.6884 40.2529 24.6689 40.076C24.6493 39.8992 24.5947 39.728 24.5083 39.5724C24.4219 39.4169 24.3053 39.2801 24.1655 39.1701C22.749 38.0342 21.6063 36.594 20.8222 34.9564C20.038 33.3188 19.6324 31.5257 19.6355 29.7101V22.1801C19.6355 18.9604 20.9145 15.8725 23.1912 13.5958C25.4679 11.3191 28.5557 10.0401 31.7755 10.0401C34.9952 10.0401 38.0831 11.3191 40.3597 13.5958C42.6364 15.8725 43.9155 18.9604 43.9155 22.1801V38.0001C43.9128 39.038 43.4987 40.0325 42.7638 40.7655C42.0289 41.4985 41.0334 41.9101 39.9955 41.9101H28.8155H28.6455H28.5555H28.4055H28.3055H28.1955L28.0655 41.9801L27.9955 42.0401C27.9497 42.0773 27.9063 42.1174 27.8655 42.1601L25.6755 44.4401L28.7455 45.1601L29.4155 44.4601H40.0255C41.7548 44.4606 43.4159 43.7855 44.6545 42.5787C45.8931 41.3718 46.6111 39.7288 46.6555 38.0001V22.1801C46.6528 18.2424 45.0874 14.4668 42.3031 11.6825C39.5187 8.89813 35.7431 7.33273 31.8055 7.33008V7.33008Z" fill="#6C6C6C"/>
<path d="M45.225 11.1802C41.2925 11.1828 37.5215 12.7441 34.738 15.522C31.9545 18.2998 30.3856 22.0677 30.375 26.0002V33.5602C30.375 34.0602 30.375 34.5602 30.455 35.0702L13.375 51.6402C10.9085 54.2806 9.53298 57.7569 9.525 61.3702L9.375 64.0602C10.1609 65.1072 11.0056 66.1088 11.905 67.0602L12.235 61.4802V61.4002C12.2324 58.4696 13.3401 55.6469 15.335 53.5002L31.105 38.2302C32.004 40.9543 33.6708 43.3608 35.905 45.1602C36.0414 45.276 36.1994 45.3638 36.3699 45.4185C36.5403 45.4732 36.7198 45.4937 36.8982 45.4788C37.0766 45.4639 37.2503 45.414 37.4093 45.3319C37.5684 45.2498 37.7096 45.137 37.825 45.0002C37.9375 44.8623 38.0213 44.7034 38.0717 44.5327C38.1221 44.362 38.1379 44.183 38.1184 44.0062C38.0988 43.8293 38.0443 43.6581 37.9578 43.5025C37.8714 43.347 37.7549 43.2102 37.615 43.1002C36.1956 41.957 35.0527 40.508 34.2718 38.8612C33.4909 37.2145 33.092 35.4127 33.105 33.5902V26.0002C33.105 22.7805 34.384 19.6926 36.6607 17.4159C38.9374 15.1392 42.0253 13.8602 45.245 13.8602C48.4647 13.8602 51.5526 15.1392 53.8293 17.4159C56.106 19.6926 57.385 22.7805 57.385 26.0002V41.8102C57.3824 42.8481 56.9682 43.8426 56.2333 44.5756C55.4985 45.3086 54.5029 45.7202 53.465 45.7202H41.975H41.825H41.725L41.615 45.7802L41.485 45.8502L41.415 45.9102L41.285 46.0202L37.175 50.3002C36.7463 50.7456 36.4105 51.2719 36.1872 51.8483C35.9639 52.4248 35.8576 53.0399 35.8743 53.6579C35.8911 54.2759 36.0306 54.8843 36.2848 55.4478C36.539 56.0113 36.9028 56.5186 37.355 56.9402C38.5044 58.0186 39.7609 58.9769 41.105 59.8002C42.2478 60.6303 43.1684 61.7294 43.785 63.0002C44.545 64.5702 44.785 65.7402 44.785 68.6702V77.5702C45.715 77.5002 46.615 77.3802 47.495 77.2302V68.6602C47.495 65.6602 47.325 63.9902 46.275 61.8202C45.4597 60.1328 44.2402 58.6729 42.725 57.5702L42.595 57.4902C41.3975 56.7969 40.272 55.9862 39.235 55.0702C39.0467 54.8986 38.8955 54.6903 38.7906 54.4582C38.6857 54.226 38.6294 53.9749 38.625 53.7202C38.6063 53.4635 38.6391 53.2056 38.7215 52.9617C38.8039 52.7178 38.9343 52.4929 39.105 52.3002L42.805 48.4302H53.445C54.3173 48.4341 55.1819 48.2659 55.9891 47.9351C56.7963 47.6043 57.5303 47.1175 58.149 46.5025C58.7677 45.8875 59.2589 45.1565 59.5946 44.3513C59.9302 43.5461 60.1037 42.6825 60.105 41.8102V26.0002C60.0944 22.0625 58.5214 18.2901 55.7314 15.5114C52.9414 12.7326 49.1627 11.1749 45.225 11.1802V11.1802Z" fill="white"/>
<path d="M33.6859 68.4699V68.2599L33.7759 59.9399C33.792 59.7522 33.769 59.5631 33.7082 59.3848C33.6474 59.2064 33.5503 59.0426 33.4229 58.9038C33.2955 58.765 33.1406 58.6542 32.9681 58.5784C32.7956 58.5025 32.6093 58.4634 32.4209 58.4634C32.2324 58.4634 32.0461 58.5025 31.8736 58.5784C31.7011 58.6542 31.5462 58.765 31.4188 58.9038C31.2915 59.0426 31.1943 59.2064 31.1335 59.3848C31.0728 59.5631 31.0497 59.7522 31.0659 59.9399L30.9759 68.2299V68.3199C30.8059 70.8899 30.6659 73.0999 28.9759 74.5899L28.3859 75.1299C27.9782 75.5139 27.6004 75.9284 27.2559 76.3699C28.2939 76.6234 29.3456 76.8171 30.4059 76.9499L30.7959 76.5999C33.3059 74.3399 33.4959 71.3599 33.6859 68.4699Z" fill="white"/>
<path d="M24.3959 58.56H24.4759C24.7292 58.6508 25.0034 58.6655 25.265 58.6023C25.5265 58.5392 25.7638 58.4011 25.9479 58.2048C26.1319 58.0086 26.2545 57.7628 26.3007 57.4978C26.3469 57.2328 26.3146 56.96 26.2079 56.7131C26.1011 56.4662 25.9245 56.2559 25.6997 56.108C25.475 55.9601 25.2119 55.8812 24.9429 55.8809C24.6739 55.8805 24.4106 55.9588 24.1855 56.1062C23.9604 56.2535 23.7833 56.4634 23.6759 56.71C23.5998 56.8785 23.5581 57.0605 23.5532 57.2453C23.5483 57.4301 23.5803 57.614 23.6474 57.7863C23.7144 57.9585 23.8152 58.1157 23.9437 58.2486C24.0722 58.3814 24.226 58.4873 24.3959 58.56Z" fill="#FE3347"/>
<path d="M26.6551 53.24H26.7951C27.1255 53.3498 27.4852 53.3306 27.8021 53.1862C28.1189 53.0419 28.3695 52.7832 28.5036 52.4619C28.6377 52.1405 28.6454 51.7804 28.5251 51.4537C28.4048 51.1269 28.1655 50.8577 27.8551 50.7C27.6916 50.6212 27.5142 50.5754 27.333 50.5652C27.1518 50.555 26.9703 50.5805 26.799 50.6404C26.6277 50.7003 26.4698 50.7934 26.3345 50.9143C26.1991 51.0352 26.0889 51.1815 26.0101 51.345C25.9313 51.5085 25.8855 51.6859 25.8752 51.8671C25.865 52.0483 25.8906 52.2298 25.9505 52.4011C26.0104 52.5724 26.1034 52.7303 26.2243 52.8656C26.3452 53.001 26.4916 53.1112 26.6551 53.19V53.24Z" fill="#FE3347"/>
<path d="M40.216 42.9998C40.3905 43.0642 40.5764 43.0921 40.7622 43.0818C40.9479 43.0714 41.1296 43.0231 41.296 42.9398C41.5841 42.7988 41.8145 42.5625 41.9483 42.2709C42.0821 41.9794 42.1109 41.6506 42.0299 41.3402C41.9489 41.0299 41.763 40.7571 41.5038 40.5681C41.2446 40.3791 40.9281 40.2856 40.6078 40.3034C40.2876 40.3212 39.9833 40.4492 39.7467 40.6657C39.51 40.8822 39.3555 41.1739 39.3094 41.4914C39.2632 41.8088 39.3283 42.1324 39.4935 42.4073C39.6588 42.6822 39.914 42.8915 40.216 42.9998V42.9998Z" fill="#FE3347"/>
<path d="M29.656 48.2998C29.7773 48.4355 29.9246 48.5454 30.0892 48.6232C30.2538 48.7009 30.4323 48.7447 30.6141 48.7522C30.7959 48.7597 30.9774 48.7305 31.1478 48.6666C31.3182 48.6026 31.474 48.5051 31.606 48.3798C31.8068 48.1949 31.9482 47.9546 32.0123 47.6893C32.0765 47.424 32.0606 47.1457 31.9665 46.8895C31.8725 46.6332 31.7046 46.4106 31.4841 46.2498C31.2636 46.089 31.0003 45.9972 30.7276 45.986C30.4549 45.9748 30.185 46.0448 29.952 46.187C29.719 46.3292 29.5335 46.5373 29.4188 46.7849C29.3041 47.0326 29.2654 47.3087 29.3076 47.5784C29.3499 47.848 29.4711 48.0991 29.656 48.2998V48.2998Z" fill="#FE3347"/>
<path d="M35.0462 45.55C35.3937 45.6699 35.7744 45.6484 36.1062 45.49C36.3506 45.3684 36.5534 45.177 36.689 44.9401C36.8246 44.7032 36.8869 44.4314 36.868 44.1591C36.8492 43.8868 36.7499 43.6262 36.5829 43.4102C36.4159 43.1943 36.1887 43.0328 35.9298 42.946C35.671 42.8593 35.3923 42.8513 35.1289 42.923C34.8655 42.9946 34.6293 43.1428 34.4502 43.3488C34.271 43.5547 34.1569 43.8092 34.1224 44.0799C34.0879 44.3507 34.1344 44.6257 34.2562 44.87C34.3348 45.031 34.4454 45.1743 34.5812 45.2913C34.717 45.4082 34.8752 45.4962 35.0462 45.55Z" fill="#FE3347"/>
<path d="M44.926 41.0002C45.1828 41.0959 45.4623 41.1131 45.7289 41.0494C45.9954 40.9857 46.237 40.844 46.4228 40.6425C46.6085 40.441 46.7301 40.1887 46.7719 39.9179C46.8138 39.647 46.774 39.3698 46.6577 39.1216C46.5414 38.8734 46.3539 38.6655 46.119 38.5243C45.884 38.3831 45.6124 38.3151 45.3387 38.3289C45.0649 38.3427 44.8015 38.4377 44.582 38.6018C44.3624 38.7658 44.1967 38.9916 44.106 39.2502C43.9836 39.591 44.0012 39.9665 44.1548 40.2944C44.3085 40.6223 44.5857 40.8761 44.926 41.0002Z" fill="#FE3347"/>
<path d="M38.1055 79C30.5898 79 23.2429 76.7714 16.9938 72.5959C10.7447 68.4204 5.87419 62.4856 2.99806 55.542C0.121933 48.5984 -0.630593 40.9579 0.835645 33.5866C2.30188 26.2153 5.92103 19.4444 11.2354 14.13C16.5498 8.81556 23.3208 5.19641 30.6921 3.73018C38.0633 2.26394 45.7039 3.01646 52.6475 5.89259C59.591 8.76872 65.5258 13.6393 69.7013 19.8883C73.8768 26.1374 76.1055 33.4843 76.1055 41C76.1055 51.0782 72.1019 60.7437 64.9755 67.8701C57.8492 74.9965 48.1837 79 38.1055 79V79ZM38.1055 5.37002C31.0585 5.37002 24.1698 7.45968 18.3105 11.3748C12.4512 15.2898 7.88441 20.8545 5.18766 27.365C2.49091 33.8755 1.78532 41.0395 3.16011 47.9511C4.5349 54.8626 7.92833 61.2113 12.9113 66.1942C17.8942 71.1772 24.2429 74.5706 31.1544 75.9454C38.066 77.3202 45.23 76.6146 51.7405 73.9178C58.251 71.2211 63.8157 66.6543 67.7307 60.795C71.6458 54.9357 73.7355 48.047 73.7355 41C73.7249 31.5536 69.9676 22.4971 63.288 15.8175C56.6084 9.13787 47.5519 5.3806 38.1055 5.37002V5.37002Z" fill="#454545"/>
<path opacity="0.5" d="M23.9752 47.86C26.7034 47.86 28.9152 45.6483 28.9152 42.92C28.9152 40.1917 26.7034 37.98 23.9752 37.98C21.2469 37.98 19.0352 40.1917 19.0352 42.92C19.0352 45.6483 21.2469 47.86 23.9752 47.86Z" fill="#FE3347"/>
<path opacity="0.2" d="M23.9753 49.6899C22.6359 49.6919 21.326 49.2965 20.2114 48.5538C19.0968 47.8111 18.2275 46.7545 17.7135 45.5176C17.1996 44.2807 17.0641 42.9192 17.3242 41.6053C17.5843 40.2914 18.2283 39.0841 19.1747 38.1363C20.1211 37.1885 21.3273 36.5428 22.6409 36.2807C23.9544 36.0187 25.3161 36.1522 26.5538 36.6643C27.7914 37.1764 28.8493 38.0441 29.5937 39.1577C30.338 40.2712 30.7353 41.5805 30.7353 42.9199C30.7327 44.7129 30.0199 46.4318 28.753 47.7006C27.4862 48.9693 25.7683 49.6846 23.9753 49.6899V49.6899ZM23.9753 37.2799C22.8598 37.2799 21.7694 37.6107 20.8419 38.2304C19.9144 38.8501 19.1915 39.731 18.7646 40.7616C18.3378 41.7921 18.2261 42.9262 18.4437 44.0202C18.6613 45.1143 19.1985 46.1192 19.9872 46.908C20.776 47.6967 21.781 48.2339 22.875 48.4515C23.9691 48.6692 25.1031 48.5575 26.1336 48.1306C27.1642 47.7037 28.0451 46.9808 28.6648 46.0533C29.2845 45.1258 29.6153 44.0354 29.6153 42.9199C29.6127 41.4249 29.0176 39.9919 27.9605 38.9347C26.9033 37.8776 25.4703 37.2825 23.9753 37.2799V37.2799Z" fill="#FE3347"/>
<path d="M23.9754 45.3702C25.3285 45.3702 26.4254 44.2733 26.4254 42.9202C26.4254 41.5671 25.3285 40.4702 23.9754 40.4702C22.6223 40.4702 21.5254 41.5671 21.5254 42.9202C21.5254 44.2733 22.6223 45.3702 23.9754 45.3702Z" fill="#FE3347"/>
</g>
<path d="M121.462 74.178C121.219 74.0753 120.953 73.94 120.664 73.772C120.375 73.5947 120.09 73.394 119.81 73.17C119.53 72.946 119.264 72.694 119.012 72.414C118.76 72.134 118.55 71.826 118.382 71.49C118.27 71.8167 118.111 72.1293 117.906 72.428C117.701 72.7173 117.463 72.9927 117.192 73.254C116.921 73.5153 116.623 73.758 116.296 73.982C115.979 74.1967 115.647 74.388 115.302 74.556L114.476 73.814C114.924 73.6367 115.349 73.4127 115.75 73.142C116.151 72.862 116.501 72.5353 116.8 72.162C117.099 71.798 117.337 71.3873 117.514 70.93C117.701 70.4727 117.794 69.964 117.794 69.404V68.928H115.33V67.99H121.392V68.928H118.956V69.432C118.956 69.9453 119.045 70.412 119.222 70.832C119.399 71.252 119.637 71.63 119.936 71.966C120.235 72.2927 120.575 72.5773 120.958 72.82C121.341 73.0533 121.742 73.2353 122.162 73.366L121.462 74.178ZM124.934 74.934H123.842V71.168H121.266V70.244H123.842V67.416H124.934V74.934ZM125.158 77.524C125.158 78.2987 124.771 78.91 123.996 79.358C123.221 79.806 122.195 80.03 120.916 80.03C120.272 80.03 119.689 79.9693 119.166 79.848C118.653 79.736 118.214 79.5727 117.85 79.358C117.477 79.1433 117.192 78.882 116.996 78.574C116.8 78.266 116.702 77.916 116.702 77.524C116.702 77.1507 116.8 76.81 116.996 76.502C117.201 76.1847 117.491 75.9187 117.864 75.704C118.237 75.48 118.676 75.3073 119.18 75.186C119.693 75.0647 120.272 75.004 120.916 75.004C122.195 75.004 123.221 75.2373 123.996 75.704C124.771 76.1707 125.158 76.7773 125.158 77.524ZM123.114 78.728C123.385 78.588 123.599 78.4153 123.758 78.21C123.917 78.014 123.996 77.79 123.996 77.538C123.996 77.0433 123.702 76.6467 123.114 76.348C122.545 76.0587 121.812 75.914 120.916 75.914C120.039 75.914 119.315 76.0587 118.746 76.348C118.475 76.4787 118.261 76.6467 118.102 76.852C117.953 77.048 117.878 77.272 117.878 77.524C117.878 77.776 117.953 78.0047 118.102 78.21C118.261 78.4153 118.48 78.588 118.76 78.728C119.301 79.0173 120.02 79.162 120.916 79.162C121.812 79.162 122.545 79.0173 123.114 78.728ZM133.293 73.898C133.032 73.7673 132.752 73.6133 132.453 73.436C132.164 73.2587 131.879 73.0533 131.599 72.82C131.319 72.596 131.058 72.344 130.815 72.064C130.572 71.784 130.372 71.476 130.213 71.14C130.082 71.4947 129.905 71.826 129.681 72.134C129.457 72.442 129.205 72.7313 128.925 73.002C128.645 73.2633 128.346 73.5013 128.029 73.716C127.721 73.9307 127.413 74.1173 127.105 74.276L126.251 73.492C126.727 73.2773 127.166 73.03 127.567 72.75C127.978 72.4607 128.337 72.12 128.645 71.728C128.944 71.3547 129.177 70.9347 129.345 70.468C129.522 69.992 129.611 69.46 129.611 68.872V67.724H130.773V68.886C130.773 69.418 130.862 69.908 131.039 70.356C131.216 70.7947 131.454 71.1867 131.753 71.532C132.052 71.8867 132.397 72.19 132.789 72.442C133.181 72.6847 133.587 72.8807 134.007 73.03L133.293 73.898ZM136.429 74.906H135.337V67.416H136.429V70.314H138.165V71.266H136.429V74.906ZM136.709 77.566C136.709 78.35 136.331 78.9567 135.575 79.386C134.819 79.834 133.797 80.058 132.509 80.058C131.23 80.058 130.208 79.834 129.443 79.386C128.687 78.938 128.309 78.3313 128.309 77.566C128.309 77.1927 128.407 76.852 128.603 76.544C128.808 76.2267 129.093 75.9607 129.457 75.746C129.821 75.5313 130.255 75.3633 130.759 75.242C131.272 75.1207 131.851 75.06 132.495 75.06C133.802 75.06 134.824 75.2887 135.561 75.746C136.326 76.2033 136.709 76.81 136.709 77.566ZM132.495 79.19C133.382 79.19 134.11 79.0453 134.679 78.756C135.258 78.476 135.547 78.084 135.547 77.58C135.547 77.076 135.258 76.684 134.679 76.404C134.11 76.1147 133.382 75.97 132.495 75.97C132.066 75.97 131.664 76.0073 131.291 76.082C130.927 76.1567 130.61 76.2593 130.339 76.39C129.77 76.6793 129.485 77.0713 129.485 77.566C129.485 77.818 129.56 78.042 129.709 78.238C129.868 78.4433 130.082 78.616 130.353 78.756C130.894 79.0453 131.608 79.19 132.495 79.19Z" fill="#454545"/>
<path d="M198.561 73.607C198.154 73.5132 197.711 73.3777 197.232 73.2006C196.763 73.0234 196.304 72.8046 195.856 72.544C195.408 72.2835 194.986 71.9761 194.59 71.6217C194.204 71.2674 193.897 70.8558 193.668 70.3868C193.418 70.8245 193.11 71.2153 192.745 71.5592C192.381 71.9031 191.98 72.2053 191.542 72.4659C191.104 72.7368 190.646 72.9661 190.166 73.1537C189.697 73.3308 189.228 73.4819 188.759 73.607L187.868 72.6691C188.525 72.5336 189.15 72.346 189.744 72.1063C190.338 71.8666 190.87 71.5853 191.339 71.2622C191.808 70.9287 192.178 70.5536 192.448 70.1367C192.73 69.7199 192.897 69.2561 192.949 68.7455H188.869V67.6825H198.435V68.7611H194.34C194.382 69.3239 194.564 69.8189 194.887 70.2461C195.221 70.6734 195.627 71.0486 196.106 71.3716C196.607 71.7051 197.138 71.9813 197.701 72.2001C198.274 72.4085 198.831 72.5649 199.373 72.6691L198.561 73.607ZM199.999 76.0456H194.309V81.0634H193.042V76.0456H187.321V74.9826H199.999V76.0456ZM209.441 71.1059C209.441 71.5332 209.353 71.9865 209.176 72.4659C208.999 72.8931 208.759 73.2579 208.457 73.5601C208.134 73.8727 207.748 74.1228 207.3 74.3104C206.862 74.4876 206.372 74.5762 205.83 74.5762C205.257 74.5762 204.747 74.4876 204.299 74.3104C203.85 74.1228 203.47 73.8727 203.157 73.5601C202.845 73.2475 202.605 72.8827 202.438 72.4659C202.282 72.0386 202.204 71.5853 202.204 71.1059C202.204 70.6369 202.282 70.194 202.438 69.7772C202.605 69.3603 202.845 68.9956 203.157 68.6829C203.47 68.3703 203.85 68.1202 204.299 67.9326C204.747 67.745 205.257 67.6512 205.83 67.6512C206.393 67.6512 206.899 67.745 207.347 67.9326C207.795 68.1202 208.175 68.3703 208.488 68.6829C208.79 68.9956 209.025 69.3603 209.191 69.7772C209.358 70.194 209.441 70.6369 209.441 71.1059ZM205.83 73.5288C206.633 73.5288 207.232 73.2944 207.628 72.8254C208.014 72.346 208.207 71.7729 208.207 71.1059C208.207 70.4598 208.009 69.8918 207.613 69.402C207.227 68.9226 206.633 68.6829 205.83 68.6829C205.049 68.6829 204.45 68.9226 204.033 69.402C203.626 69.8918 203.423 70.4598 203.423 71.1059C203.423 71.7624 203.621 72.3356 204.017 72.8254C204.403 73.2944 205.007 73.5288 205.83 73.5288ZM210.911 77.4368C209.869 77.5931 208.696 77.7182 207.394 77.812C206.091 77.8953 204.642 77.937 203.048 77.937H201.485V76.8584H203.048L205.674 76.8272C205.935 76.8272 206.273 76.8167 206.69 76.7959C207.118 76.7646 207.581 76.7282 208.081 76.6865C208.582 76.6448 209.077 76.5979 209.567 76.5458C210.056 76.4937 210.504 76.4364 210.911 76.3738V77.4368ZM212.677 81.0321H211.458V67.1823H212.677V81.0321Z" fill="#454545"/>
<path d="M275.49 70.4025C275.49 70.861 275.406 71.2518 275.24 71.5748C275.073 71.9604 274.849 72.2783 274.567 72.5284C274.265 72.7993 273.9 73.013 273.473 73.1693C273.046 73.3256 272.561 73.4038 272.019 73.4038C271.457 73.4038 270.962 73.3256 270.534 73.1693C270.117 73.013 269.758 72.7993 269.456 72.5284C269.153 72.2574 268.924 71.9396 268.768 71.5748C268.612 71.2101 268.533 70.8193 268.533 70.4025C268.533 69.996 268.612 69.6104 268.768 69.2457C268.924 68.8809 269.148 68.5579 269.44 68.2765C269.742 67.9951 270.107 67.7711 270.534 67.6043C270.962 67.4376 271.457 67.3542 272.019 67.3542C272.561 67.3542 273.046 67.4376 273.473 67.6043C273.911 67.7711 274.276 67.9951 274.567 68.2765C274.87 68.5579 275.099 68.8809 275.255 69.2457C275.411 69.6104 275.49 69.996 275.49 70.4025ZM274.317 70.3868C274.317 69.8553 274.13 69.3864 273.754 68.98C273.4 68.5631 272.822 68.3547 272.019 68.3547C271.238 68.3547 270.659 68.5631 270.284 68.98C269.909 69.3864 269.721 69.8553 269.721 70.3868C269.721 70.8975 269.904 71.3664 270.269 71.7937C270.644 72.2001 271.227 72.4033 272.019 72.4033C272.811 72.4033 273.39 72.2001 273.754 71.7937C274.13 71.3873 274.317 70.9183 274.317 70.3868ZM278.897 81.0321H277.662V67.1823H278.897V81.0321ZM272.41 80.7351H271.238V75.9049H267.658V74.8263H271.66C271.931 74.8263 272.301 74.8211 272.77 74.8107C273.239 74.7898 273.739 74.7638 274.27 74.7325C274.802 74.7012 275.312 74.6648 275.802 74.6231C276.302 74.5814 276.714 74.5345 277.037 74.4824V75.5141C276.381 75.6287 275.656 75.7121 274.864 75.7642C274.083 75.8163 273.265 75.858 272.41 75.8893V80.7351ZM289.262 69.8553H281.321V68.8862H289.262V69.8553ZM287.308 68.1046H283.197V67.1354H287.308V68.1046ZM281.822 72.8254C281.822 72.1168 282.139 71.554 282.775 71.1372C283.411 70.6995 284.245 70.4806 285.276 70.4806C286.287 70.4806 287.116 70.6995 287.762 71.1372C288.408 71.5644 288.731 72.1272 288.731 72.8254C288.731 73.1797 288.642 73.5028 288.465 73.7946C288.288 74.0864 288.048 74.3365 287.746 74.5449C287.1 74.9826 286.277 75.2014 285.276 75.2014C284.255 75.2014 283.427 74.9826 282.791 74.5449C282.489 74.3365 282.249 74.0864 282.072 73.7946C281.905 73.5028 281.822 73.1797 281.822 72.8254ZM286.871 73.8884C287.256 73.6278 287.449 73.2735 287.449 72.8254C287.449 72.3877 287.256 72.0438 286.871 71.7937C286.496 71.5332 285.964 71.4029 285.276 71.4029C284.588 71.4029 284.052 71.5332 283.666 71.7937C283.291 72.0438 283.103 72.3877 283.103 72.8254C283.103 73.2631 283.291 73.6174 283.666 73.8884C284.052 74.1489 284.588 74.2792 285.276 74.2792C285.985 74.2792 286.516 74.1489 286.871 73.8884ZM292.608 75.5922H291.404V72.7472H289.2V71.6843H291.404V67.1823H292.608V75.5922ZM291.388 79.8754V77.343H284.823V79.8754H291.388ZM292.592 80.5632C292.592 80.6882 292.566 80.7716 292.514 80.8133C292.472 80.8654 292.389 80.8915 292.264 80.8915H283.932C283.807 80.8915 283.718 80.8654 283.666 80.8133C283.625 80.7716 283.604 80.6882 283.604 80.5632V76.6865C283.604 76.5614 283.625 76.4781 283.666 76.4364C283.718 76.3843 283.807 76.3582 283.932 76.3582H292.264C292.389 76.3582 292.472 76.3843 292.514 76.4364C292.566 76.4781 292.592 76.5614 292.592 76.6865V80.5632Z" fill="#454545"/>
<rect x="114" y="47" width="180" height="14" rx="7" fill="#BBBBBB"/>
<rect x="114.5" y="0.5" width="179" height="32" rx="16" fill="#C4C4C4" stroke="#454545"/>
<rect x="114" width="92" height="33" rx="16.5" fill="#454545"/>
<path d="M137.587 20.0816C138.52 19.6035 139.362 19.0418 140.115 18.3964C140.868 17.739 141.52 17.0099 142.07 16.2091C142.619 15.4083 143.056 14.5417 143.378 13.6094C143.713 12.6652 143.922 11.6612 144.006 10.5974H138.502V9.36035H145.207C145.35 9.36035 145.446 9.39024 145.494 9.45C145.554 9.49781 145.584 9.59343 145.584 9.73686C145.524 11.0038 145.321 12.1871 144.974 13.2867C144.627 14.3744 144.149 15.4023 143.54 16.3704C142.918 17.3505 142.207 18.229 141.406 19.0059C140.605 19.7709 139.715 20.4462 138.735 21.0319L137.587 20.0816ZM150.353 24.3307H148.918V15.5636H145.476V14.2728H148.918V8.446H150.353V24.3307ZM163.926 13.466V11.5656H155.983V13.466H163.926ZM165.324 14.2907C165.324 14.4341 165.294 14.5357 165.235 14.5955C165.187 14.6433 165.091 14.6672 164.948 14.6672H154.979C154.836 14.6672 154.734 14.6433 154.675 14.5955C154.627 14.5357 154.603 14.4341 154.603 14.2907V8.60735H155.983V10.4181H163.926V8.60735H165.324V14.2907ZM165.288 24.4383H163.836V20.6912H154.442V19.4721H159.193V17.5537H152.685V16.3525H167.243V17.5537H160.663V19.4721H164.912C165.055 19.4721 165.151 19.502 165.199 19.5617C165.258 19.6095 165.288 19.7051 165.288 19.8486V24.4383ZM179.561 13.0178V10.0954H171.618V13.0178H179.561ZM182.877 17.5537H168.319V16.3346H174.881V14.2011H170.614C170.471 14.2011 170.369 14.1772 170.31 14.1294C170.262 14.0696 170.238 13.968 170.238 13.8246V9.27071C170.238 9.12728 170.262 9.03166 170.31 8.98386C170.369 8.92409 170.471 8.89421 170.614 8.89421H180.583C180.726 8.89421 180.822 8.92409 180.869 8.98386C180.929 9.03166 180.959 9.12728 180.959 9.27071V13.8246C180.959 13.968 180.929 14.0696 180.869 14.1294C180.822 14.1772 180.726 14.2011 180.583 14.2011H176.316V16.3346H182.877V17.5537ZM180.923 24.4383H179.471V20.4402H170.076V19.2031H180.547C180.69 19.2031 180.786 19.233 180.834 19.2928C180.893 19.3406 180.923 19.4362 180.923 19.5796V24.4383Z" fill="white"/>
<path d="M244.423 19.3824C244.543 20.1115 244.847 20.6793 245.337 21.0856C245.839 21.4801 246.455 21.6773 247.184 21.6773C247.555 21.6773 247.901 21.6056 248.224 21.4621C248.559 21.3068 248.839 21.0856 249.066 20.7988C249.306 20.5119 249.491 20.1713 249.622 19.7769C249.766 19.3705 249.837 18.9163 249.837 18.4143C249.837 17.3027 249.586 16.478 249.084 15.9401C248.594 15.3903 247.967 15.1154 247.202 15.1154C246.592 15.1154 246.066 15.2648 245.624 15.5636C245.182 15.8625 244.883 16.2808 244.728 16.8186C244.692 16.9143 244.656 16.992 244.62 17.0517C244.584 17.0995 244.501 17.1234 244.369 17.1234H243.509C243.401 17.1234 243.335 17.1115 243.311 17.0876C243.288 17.0517 243.276 16.974 243.276 16.8545L243.473 9.8265C243.485 9.69502 243.509 9.60538 243.544 9.55757C243.58 9.50976 243.652 9.48586 243.76 9.48586H250.59V10.705H244.853L244.602 15.1154C244.877 14.733 245.266 14.4401 245.768 14.2369C246.282 14.0337 246.861 13.9321 247.507 13.9321C248.021 13.9321 248.505 14.0278 248.959 14.219C249.425 14.3983 249.825 14.6732 250.16 15.0437C250.507 15.4023 250.776 15.8625 250.967 16.4242C251.17 16.986 251.272 17.6434 251.272 18.3964C251.272 19.0537 251.17 19.6573 250.967 20.2071C250.776 20.757 250.501 21.2291 250.142 21.6235C249.784 22.0179 249.347 22.3227 248.833 22.5379C248.319 22.765 247.752 22.8785 247.13 22.8785C246.568 22.8785 246.043 22.8008 245.552 22.6454C245.062 22.502 244.632 22.2809 244.262 21.9821C243.903 21.6833 243.61 21.3187 243.383 20.8884C243.168 20.4462 243.042 19.9442 243.007 19.3824H244.423Z" fill="#454545"/>
<rect x="114" y="47" width="180" height="14" rx="7" fill="#FF1027"/>
<circle cx="265.5" cy="8.5" r="2" stroke="#454545"/>
</g>
<defs>
<clipPath id="clip0_377_1875">
<rect width="294" height="81" fill="white"/>
</clipPath>
<clipPath id="clip1_377_1875">
<rect width="76" height="76" fill="white" transform="translate(0.105469 3)"/>
</clipPath>
</defs>
</svg>
