<svg width="294" height="81" viewBox="0 0 294 81" fill="none" xmlns="http://www.w3.org/2000/svg">
<g clip-path="url(#clip0_377_2741)">
<path d="M95 80V1C95 0.447715 94.5523 0 94 0C93.4477 0 93 0.447715 93 0.999999V80C93 80.5523 93.4477 81 94 81C94.5523 81 95 80.5523 95 80Z" fill="#BBBBBB"/>
<path d="M121.365 35H126.757L124.047 39.695L121.365 44.3898L118.682 39.695L116 35H121.365Z" fill="#454545"/>
<g clip-path="url(#clip1_377_2741)">
<circle cx="38" cy="41" r="37" fill="#454545"/>
<path d="M37.9966 3.16211C30.4797 3.16076 23.1311 5.38864 16.8805 9.56399C10.6298 13.7393 5.75773 19.6746 2.88049 26.6191C0.00325224 33.5636 -0.749914 41.2054 0.716238 48.578C2.18239 55.9505 5.802 62.7227 11.1173 68.038C16.4326 73.3533 23.2048 76.9729 30.5773 78.4391C37.9499 79.9052 45.5917 79.152 52.5362 76.2748C59.4807 73.3976 65.416 68.5255 69.5913 62.2748C73.7667 56.0242 75.9945 48.6756 75.9932 41.1587C75.9823 31.0847 71.9756 21.4264 64.8522 14.303C57.7289 7.17966 48.0706 3.17297 37.9966 3.16211V3.16211ZM37.9966 76.7886C30.9497 76.7886 24.061 74.699 18.2017 70.7839C12.3424 66.8688 7.77559 61.3042 5.07885 54.7937C2.3821 48.2832 1.67651 41.1192 3.0513 34.2076C4.42609 27.2961 7.81952 20.9475 12.8024 15.9645C17.7854 10.9816 24.134 7.58818 31.0455 6.21339C37.9571 4.8386 45.1211 5.5442 51.6316 8.24094C58.1421 10.9377 63.7067 15.5045 67.6218 21.3638C71.5369 27.2231 73.6265 34.1118 73.6265 41.1587C73.6157 50.605 69.8583 59.6613 63.1788 66.3409C56.4992 73.0204 47.4429 76.7777 37.9966 76.7886V76.7886Z" fill="#454545"/>
<path d="M46.7798 23.361C47.4639 20.1119 47.1287 13.9422 47.0808 13.1624C47.076 13.0566 47.0528 12.9525 47.0124 12.8546C46.0685 10.2075 44.42 9.87918 43.5171 9.91338C42.7286 9.9694 41.9742 10.2574 41.3488 10.741C40.8425 10.3688 40.2489 10.1332 39.6251 10.057C39.1538 9.98251 38.6737 9.98251 38.2024 10.057C37.6527 10.1195 37.1272 10.318 36.6735 10.6345C36.2197 10.9509 35.8518 11.3754 35.6032 11.8696C35.4346 12.3468 35.3753 12.8558 35.4298 13.3589C35.4842 13.8621 35.651 14.3466 35.9178 14.7767L36.9985 16.8287V18.9423L36.3624 24.7974L36.3077 25.2762C35.7353 30.1274 33.9756 34.7627 31.1845 38.7716L27.3746 44.2437C27.2378 44.4489 26.6358 45.2492 26.0476 46.0289C24.7275 47.7937 23.8451 48.977 23.6057 49.4079C22.2377 51.802 21.6631 53.7445 22.7575 56.5695C24.0777 59.9895 28.9478 61.6311 31.8001 61.8979L32.9082 64.8254C32.1022 65.6295 31.616 66.6991 31.5402 67.8351C31.4905 68.2457 31.5255 68.6621 31.6432 69.0586C31.7608 69.455 31.9586 69.8232 32.2242 70.1402C32.412 70.3337 32.6362 70.4883 32.8838 70.5951C33.1315 70.7019 33.3978 70.7588 33.6674 70.7626C34.3514 71.0636 35.9725 71.4466 40.1518 72.1306C40.6669 72.2197 41.1886 72.2655 41.7114 72.2674C42.356 72.2676 42.9986 72.1941 43.6266 72.0486C43.9694 71.967 44.3055 71.8595 44.6321 71.7271C45.0796 71.5369 45.4624 71.2211 45.7343 70.818C46.0062 70.4149 46.1555 69.9416 46.1642 69.4554C46.1729 68.9693 46.0405 68.491 45.7832 68.0784C45.5259 67.6658 45.1546 67.3366 44.7141 67.1305C43.6745 66.6449 42.2038 65.7625 41.6772 65.4137C41.5481 65.1681 41.5048 64.8864 41.554 64.6134C42.5288 64.8155 43.5204 64.9254 44.5158 64.9417C45.9385 64.9417 47.3339 64.6476 47.9358 63.6353C48.8592 62.0279 47.0876 60.0853 46.5131 59.4492L46.39 59.3397C47.628 57.9271 48.6871 56.3672 49.5432 54.6953C50.152 53.4778 49.9878 51.0017 49.5911 49.9073C49.4512 49.5388 49.2576 49.1931 49.0165 48.8812C49.0205 48.8357 49.0205 48.79 49.0165 48.7444C49.4064 46.2547 48.9618 44.5241 47.7033 43.6007C46.781 42.9967 45.6588 42.7781 44.5773 42.9919C46.7183 37.6841 45.3229 34.736 45.2613 34.606C45.247 34.5821 45.231 34.5593 45.2135 34.5376C45.1832 34.3228 45.0885 34.1223 44.942 33.9623C44.7955 33.8024 44.604 33.6906 44.3927 33.6416C43.7394 33.4948 43.1584 33.1234 42.7509 32.5922C42.3434 32.0609 42.1353 31.4035 42.1628 30.7345L42.2859 27.8822C42.3215 27.1274 42.653 26.417 43.2086 25.9049C43.7643 25.3928 44.4993 25.1202 45.2545 25.1462C46.0112 25.18 46.7237 25.5119 47.2364 26.0694C47.7491 26.627 48.0202 27.3648 47.9905 28.1216L47.8674 30.9739C47.799 32.5198 47.1082 33.026 46.4994 33.2996C46.2327 33.4148 46.0227 33.6312 45.9156 33.9012C45.8085 34.1712 45.8131 34.4727 45.9283 34.7394C46.0435 35.0061 46.2599 35.2161 46.5299 35.3232C46.7999 35.4303 47.1014 35.4257 47.3681 35.3106C48.1678 34.95 48.8428 34.3607 49.3079 33.6169C49.7729 32.873 50.0071 32.0081 49.981 31.1313L50.0973 28.2721C50.1455 27.2022 49.8475 26.1451 49.2474 25.258C48.6473 24.3708 47.7772 23.7008 46.7662 23.3473L46.7798 23.361ZM42.6758 62.705C42.8726 62.4958 43.0804 62.2971 43.2983 62.1099C43.3686 62.0526 43.4307 61.9858 43.4829 61.9116C43.5578 61.8811 43.629 61.8421 43.695 61.7953C44.0837 61.5156 44.4581 61.2165 44.8167 60.8993L44.851 60.9471C45.3751 61.414 45.7707 62.0074 46.0001 62.6708C45.6034 62.8965 44.1875 62.9102 42.7032 62.705H42.6758ZM46.3968 45.3997C46.8414 45.728 47.0329 46.5146 46.9577 47.6569C45.9291 47.3578 44.8455 47.2992 43.7907 47.4859C43.1173 47.6045 42.4557 47.7831 41.814 48.0194L43.182 45.6664C44.0917 45.2902 45.6923 44.8866 46.4242 45.3997H46.3968ZM43.2983 35.632C43.394 35.8646 44.3243 38.4023 42.2312 43.0193L38.606 49.2985C37.0738 49.9825 35.3911 50.7349 33.6948 51.5352C33.1065 51.8088 32.4978 52.0961 32.3268 52.1713C32.0737 52.2368 31.8535 52.3929 31.7079 52.61C31.5623 52.827 31.5014 53.09 31.5368 53.349C31.5723 53.608 31.7015 53.8449 31.9001 54.0149C32.0987 54.1849 32.3527 54.2761 32.6141 54.2712C32.9082 54.2712 32.9082 54.2712 34.6182 53.4709C36.9165 52.3902 42.2928 49.8594 44.1122 49.6063H44.1601C44.1601 49.6063 46.8961 49.1343 47.5117 50.7349C47.7966 51.7344 47.8131 52.7913 47.5596 53.7993C46.3468 56.24 44.6034 58.3784 42.4569 60.0579C42.3661 60.1236 42.2874 60.2046 42.2244 60.2973C42.1306 60.334 42.0429 60.3847 41.9644 60.4478C40.3844 61.7132 38.2024 64.4971 40.0013 66.9048C40.081 67.0052 40.1756 67.0929 40.2818 67.1647C40.3707 67.2195 42.3338 68.478 43.7429 69.1347C43.814 69.1634 43.8742 69.214 43.9148 69.2792C43.9553 69.3443 43.9742 69.4207 43.9686 69.4972C43.9701 69.5669 43.9498 69.6353 43.9105 69.6929C43.8713 69.7506 43.8151 69.7945 43.7497 69.8187C43.528 69.9082 43.2992 69.9791 43.0657 70.0307C42.2058 70.2299 41.3142 70.2509 40.4459 70.0923C38.4521 69.7998 36.4766 69.3933 34.5293 68.8748C34.3112 68.7187 34.0435 68.6481 33.7769 68.6764H33.6948C33.6335 68.4539 33.6149 68.2218 33.6401 67.9924C33.6658 67.6361 33.7655 67.2892 33.9327 66.9736C34.0999 66.6579 34.3311 66.3806 34.6114 66.1593C36.6224 64.4766 38.8932 60.0032 38.989 59.8527C39.0274 59.7812 39.0573 59.7055 39.0779 59.627C40.4459 54.066 45.1588 53.895 45.3708 53.8882C45.6399 53.8667 45.8911 53.7445 46.0742 53.5462C46.2573 53.3478 46.359 53.0877 46.359 52.8177C46.359 52.5477 46.2573 52.2876 46.0742 52.0893C45.8911 51.8909 45.6399 51.7688 45.3708 51.7472V51.7472C43.1204 51.7472 38.5307 53.3136 37.0464 58.984C37.0054 59.0729 36.9507 59.1756 36.8891 59.285C35.3398 59.7573 33.7163 59.9382 32.1011 59.8185C29.2214 59.5791 25.5893 57.9922 24.7548 55.8376C23.9203 53.683 24.3444 52.4723 25.4388 50.5092C25.6304 50.1603 26.8958 48.4572 27.7371 47.3559C28.4827 46.3641 28.9546 45.728 29.1051 45.4749L32.9082 40.0028C35.8968 35.7028 37.7766 30.7309 38.3802 25.5293L38.476 25.0504L39.119 19.1475C39.1223 19.1088 39.1223 19.0699 39.119 19.0312V16.5893C39.1187 16.4154 39.0765 16.2441 38.9958 16.09L37.792 13.7643C37.7933 13.7438 37.7933 13.7233 37.792 13.7028C37.604 13.4087 37.5355 13.0539 37.6005 12.711C37.7031 12.4852 38.093 12.28 38.6675 12.1638C38.9192 12.1261 39.1751 12.1261 39.4268 12.1638C39.5978 12.1638 41.0684 12.4237 41.3967 15.4812L41.2804 16.6166C41.1996 17.4326 41.1631 18.2523 41.171 19.0722L41.212 24.6948C41.218 24.7825 41.2317 24.8694 41.2531 24.9547C40.5872 25.782 40.2037 26.8007 40.1587 27.8617L40.0355 30.7209C39.9885 31.7833 40.2824 32.833 40.8744 33.7166C41.4663 34.6001 42.3252 35.2713 43.3256 35.632H43.2983ZM34.0847 61.9868C34.5293 61.9868 34.9739 61.9047 35.4185 61.8295C35.1312 62.2809 34.8302 62.7255 34.5224 63.136L34.0847 61.9868ZM43.2641 19.0585C43.2571 18.3162 43.2914 17.5741 43.3666 16.8355L43.4966 15.5906C43.5034 15.5201 43.5034 15.4491 43.4966 15.3786C43.4188 14.3816 43.164 13.4065 42.7442 12.4989C43.0401 12.2592 43.4187 12.1461 43.7976 12.1843C44.1738 12.28 44.5295 12.7315 44.8167 13.4702C44.9878 16.3704 45.0356 21.1516 44.5021 23.1216C44.0898 23.167 43.6851 23.2659 43.2983 23.4157L43.2641 19.0585Z" fill="white"/>
<path opacity="0.5" d="M37.1612 50.5157C39.8887 50.5157 42.0997 48.3047 42.0997 45.5772C42.0997 42.8497 39.8887 40.6387 37.1612 40.6387C34.4337 40.6387 32.2227 42.8497 32.2227 45.5772C32.2227 48.3047 34.4337 50.5157 37.1612 50.5157Z" fill="#E81D2B"/>
<path opacity="0.2" d="M37.1555 52.4654C35.7916 52.4667 34.4579 52.0635 33.3231 51.3067C32.1884 50.5499 31.3036 49.4736 30.7807 48.2138C30.2578 46.9541 30.1203 45.5676 30.3856 44.2297C30.6508 42.8918 31.3069 41.6626 32.2709 40.6976C33.2349 39.7327 34.4634 39.0754 35.8011 38.8088C37.1387 38.5422 38.5254 38.6783 39.7856 39.2C41.0459 39.7216 42.1231 40.6053 42.881 41.7393C43.6389 42.8733 44.0435 44.2066 44.0435 45.5706C44.0435 47.398 43.318 49.1507 42.0265 50.4435C40.7349 51.7363 38.983 52.4635 37.1555 52.4654V52.4654ZM37.1555 40.0506C36.0619 40.0493 34.9924 40.3724 34.0825 40.9792C33.1725 41.586 32.4631 42.4491 32.0439 43.4592C31.6248 44.4694 31.5148 45.5812 31.7278 46.6539C31.9408 47.7267 32.4673 48.7121 33.2407 49.4854C34.014 50.2588 34.9994 50.7853 36.0722 50.9983C37.1449 51.2114 38.2567 51.1013 39.2669 50.6822C40.277 50.263 41.1401 49.5536 41.7469 48.6437C42.3537 47.7337 42.6768 46.6642 42.6755 45.5706C42.6737 44.1071 42.0915 42.7042 41.0567 41.6694C40.0219 40.6346 38.619 40.0524 37.1555 40.0506Z" fill="#E6202C"/>
<path d="M37.1616 48.0259C38.514 48.0259 39.6104 46.9296 39.6104 45.5772C39.6104 44.2248 38.514 43.1284 37.1616 43.1284C35.8092 43.1284 34.7129 44.2248 34.7129 45.5772C34.7129 46.9296 35.8092 48.0259 37.1616 48.0259Z" fill="#E81D2B"/>
<path d="M39.5076 38.915C39.7389 38.915 39.965 38.8464 40.1574 38.7179C40.3497 38.5893 40.4996 38.4067 40.5882 38.1929C40.6767 37.9792 40.6999 37.744 40.6547 37.5171C40.6096 37.2903 40.4982 37.0818 40.3346 36.9183C40.171 36.7547 39.9626 36.6433 39.7357 36.5982C39.5089 36.553 39.2737 36.5762 39.0599 36.6647C38.8462 36.7532 38.6635 36.9032 38.535 37.0955C38.4065 37.2879 38.3379 37.514 38.3379 37.7453C38.337 37.8992 38.3666 38.0517 38.4251 38.194C38.4836 38.3363 38.5697 38.4656 38.6785 38.5744C38.7873 38.6832 38.9166 38.7693 39.0589 38.8278C39.2012 38.8863 39.3537 38.9159 39.5076 38.915V38.915Z" fill="#E81D2B"/>
<path d="M30.4392 51.4804C30.6705 51.4804 30.8967 51.4118 31.089 51.2833C31.2814 51.1548 31.4313 50.9721 31.5198 50.7584C31.6083 50.5446 31.6315 50.3095 31.5864 50.0826C31.5412 49.8557 31.4298 49.6473 31.2663 49.4837C31.1027 49.3201 30.8943 49.2087 30.6674 49.1636C30.4405 49.1185 30.2053 49.1416 29.9916 49.2302C29.7779 49.3187 29.5952 49.4686 29.4667 49.6609C29.3381 49.8533 29.2695 50.0794 29.2695 50.3108C29.2695 50.621 29.3928 50.9185 29.6121 51.1378C29.8315 51.3572 30.129 51.4804 30.4392 51.4804V51.4804Z" fill="#E81D2B"/>
</g>
<path d="M121.462 74.178C121.219 74.0753 120.953 73.94 120.664 73.772C120.375 73.5947 120.09 73.394 119.81 73.17C119.53 72.946 119.264 72.694 119.012 72.414C118.76 72.134 118.55 71.826 118.382 71.49C118.27 71.8167 118.111 72.1293 117.906 72.428C117.701 72.7173 117.463 72.9927 117.192 73.254C116.921 73.5153 116.623 73.758 116.296 73.982C115.979 74.1967 115.647 74.388 115.302 74.556L114.476 73.814C114.924 73.6367 115.349 73.4127 115.75 73.142C116.151 72.862 116.501 72.5353 116.8 72.162C117.099 71.798 117.337 71.3873 117.514 70.93C117.701 70.4727 117.794 69.964 117.794 69.404V68.928H115.33V67.99H121.392V68.928H118.956V69.432C118.956 69.9453 119.045 70.412 119.222 70.832C119.399 71.252 119.637 71.63 119.936 71.966C120.235 72.2927 120.575 72.5773 120.958 72.82C121.341 73.0533 121.742 73.2353 122.162 73.366L121.462 74.178ZM124.934 74.934H123.842V71.168H121.266V70.244H123.842V67.416H124.934V74.934ZM125.158 77.524C125.158 78.2987 124.771 78.91 123.996 79.358C123.221 79.806 122.195 80.03 120.916 80.03C120.272 80.03 119.689 79.9693 119.166 79.848C118.653 79.736 118.214 79.5727 117.85 79.358C117.477 79.1433 117.192 78.882 116.996 78.574C116.8 78.266 116.702 77.916 116.702 77.524C116.702 77.1507 116.8 76.81 116.996 76.502C117.201 76.1847 117.491 75.9187 117.864 75.704C118.237 75.48 118.676 75.3073 119.18 75.186C119.693 75.0647 120.272 75.004 120.916 75.004C122.195 75.004 123.221 75.2373 123.996 75.704C124.771 76.1707 125.158 76.7773 125.158 77.524ZM123.114 78.728C123.385 78.588 123.599 78.4153 123.758 78.21C123.917 78.014 123.996 77.79 123.996 77.538C123.996 77.0433 123.702 76.6467 123.114 76.348C122.545 76.0587 121.812 75.914 120.916 75.914C120.039 75.914 119.315 76.0587 118.746 76.348C118.475 76.4787 118.261 76.6467 118.102 76.852C117.953 77.048 117.878 77.272 117.878 77.524C117.878 77.776 117.953 78.0047 118.102 78.21C118.261 78.4153 118.48 78.588 118.76 78.728C119.301 79.0173 120.02 79.162 120.916 79.162C121.812 79.162 122.545 79.0173 123.114 78.728ZM133.293 73.898C133.032 73.7673 132.752 73.6133 132.453 73.436C132.164 73.2587 131.879 73.0533 131.599 72.82C131.319 72.596 131.058 72.344 130.815 72.064C130.572 71.784 130.372 71.476 130.213 71.14C130.082 71.4947 129.905 71.826 129.681 72.134C129.457 72.442 129.205 72.7313 128.925 73.002C128.645 73.2633 128.346 73.5013 128.029 73.716C127.721 73.9307 127.413 74.1173 127.105 74.276L126.251 73.492C126.727 73.2773 127.166 73.03 127.567 72.75C127.978 72.4607 128.337 72.12 128.645 71.728C128.944 71.3547 129.177 70.9347 129.345 70.468C129.522 69.992 129.611 69.46 129.611 68.872V67.724H130.773V68.886C130.773 69.418 130.862 69.908 131.039 70.356C131.216 70.7947 131.454 71.1867 131.753 71.532C132.052 71.8867 132.397 72.19 132.789 72.442C133.181 72.6847 133.587 72.8807 134.007 73.03L133.293 73.898ZM136.429 74.906H135.337V67.416H136.429V70.314H138.165V71.266H136.429V74.906ZM136.709 77.566C136.709 78.35 136.331 78.9567 135.575 79.386C134.819 79.834 133.797 80.058 132.509 80.058C131.23 80.058 130.208 79.834 129.443 79.386C128.687 78.938 128.309 78.3313 128.309 77.566C128.309 77.1927 128.407 76.852 128.603 76.544C128.808 76.2267 129.093 75.9607 129.457 75.746C129.821 75.5313 130.255 75.3633 130.759 75.242C131.272 75.1207 131.851 75.06 132.495 75.06C133.802 75.06 134.824 75.2887 135.561 75.746C136.326 76.2033 136.709 76.81 136.709 77.566ZM132.495 79.19C133.382 79.19 134.11 79.0453 134.679 78.756C135.258 78.476 135.547 78.084 135.547 77.58C135.547 77.076 135.258 76.684 134.679 76.404C134.11 76.1147 133.382 75.97 132.495 75.97C132.066 75.97 131.664 76.0073 131.291 76.082C130.927 76.1567 130.61 76.2593 130.339 76.39C129.77 76.6793 129.485 77.0713 129.485 77.566C129.485 77.818 129.56 78.042 129.709 78.238C129.868 78.4433 130.082 78.616 130.353 78.756C130.894 79.0453 131.608 79.19 132.495 79.19Z" fill="#454545"/>
<path d="M198.561 73.607C198.154 73.5132 197.711 73.3777 197.232 73.2006C196.763 73.0234 196.304 72.8046 195.856 72.544C195.408 72.2835 194.986 71.9761 194.59 71.6217C194.204 71.2674 193.897 70.8558 193.668 70.3868C193.418 70.8245 193.11 71.2153 192.745 71.5592C192.381 71.9031 191.98 72.2053 191.542 72.4659C191.104 72.7368 190.646 72.9661 190.166 73.1537C189.697 73.3308 189.228 73.4819 188.759 73.607L187.868 72.6691C188.525 72.5336 189.15 72.346 189.744 72.1063C190.338 71.8666 190.87 71.5853 191.339 71.2622C191.808 70.9287 192.178 70.5536 192.448 70.1367C192.73 69.7199 192.897 69.2561 192.949 68.7455H188.869V67.6825H198.435V68.7611H194.34C194.382 69.3239 194.564 69.8189 194.887 70.2461C195.221 70.6734 195.627 71.0486 196.106 71.3716C196.607 71.7051 197.138 71.9813 197.701 72.2001C198.274 72.4085 198.831 72.5649 199.373 72.6691L198.561 73.607ZM199.999 76.0456H194.309V81.0634H193.042V76.0456H187.321V74.9826H199.999V76.0456ZM209.441 71.1059C209.441 71.5332 209.353 71.9865 209.176 72.4659C208.999 72.8931 208.759 73.2579 208.457 73.5601C208.134 73.8727 207.748 74.1228 207.3 74.3104C206.862 74.4876 206.372 74.5762 205.83 74.5762C205.257 74.5762 204.747 74.4876 204.299 74.3104C203.85 74.1228 203.47 73.8727 203.157 73.5601C202.845 73.2475 202.605 72.8827 202.438 72.4659C202.282 72.0386 202.204 71.5853 202.204 71.1059C202.204 70.6369 202.282 70.194 202.438 69.7772C202.605 69.3603 202.845 68.9956 203.157 68.6829C203.47 68.3703 203.85 68.1202 204.299 67.9326C204.747 67.745 205.257 67.6512 205.83 67.6512C206.393 67.6512 206.899 67.745 207.347 67.9326C207.795 68.1202 208.175 68.3703 208.488 68.6829C208.79 68.9956 209.025 69.3603 209.191 69.7772C209.358 70.194 209.441 70.6369 209.441 71.1059ZM205.83 73.5288C206.633 73.5288 207.232 73.2944 207.628 72.8254C208.014 72.346 208.207 71.7729 208.207 71.1059C208.207 70.4598 208.009 69.8918 207.613 69.402C207.227 68.9226 206.633 68.6829 205.83 68.6829C205.049 68.6829 204.45 68.9226 204.033 69.402C203.626 69.8918 203.423 70.4598 203.423 71.1059C203.423 71.7624 203.621 72.3356 204.017 72.8254C204.403 73.2944 205.007 73.5288 205.83 73.5288ZM210.911 77.4368C209.869 77.5931 208.696 77.7182 207.394 77.812C206.091 77.8953 204.642 77.937 203.048 77.937H201.485V76.8584H203.048L205.674 76.8272C205.935 76.8272 206.273 76.8167 206.69 76.7959C207.118 76.7646 207.581 76.7282 208.081 76.6865C208.582 76.6448 209.077 76.5979 209.567 76.5458C210.056 76.4937 210.504 76.4364 210.911 76.3738V77.4368ZM212.677 81.0321H211.458V67.1823H212.677V81.0321Z" fill="#454545"/>
<path d="M275.49 70.4025C275.49 70.861 275.406 71.2518 275.24 71.5748C275.073 71.9604 274.849 72.2783 274.567 72.5284C274.265 72.7993 273.9 73.013 273.473 73.1693C273.046 73.3256 272.561 73.4038 272.019 73.4038C271.457 73.4038 270.962 73.3256 270.534 73.1693C270.117 73.013 269.758 72.7993 269.456 72.5284C269.153 72.2574 268.924 71.9396 268.768 71.5748C268.612 71.2101 268.533 70.8193 268.533 70.4025C268.533 69.996 268.612 69.6104 268.768 69.2457C268.924 68.8809 269.148 68.5579 269.44 68.2765C269.742 67.9951 270.107 67.7711 270.534 67.6043C270.962 67.4376 271.457 67.3542 272.019 67.3542C272.561 67.3542 273.046 67.4376 273.473 67.6043C273.911 67.7711 274.276 67.9951 274.567 68.2765C274.87 68.5579 275.099 68.8809 275.255 69.2457C275.411 69.6104 275.49 69.996 275.49 70.4025ZM274.317 70.3868C274.317 69.8553 274.13 69.3864 273.754 68.98C273.4 68.5631 272.822 68.3547 272.019 68.3547C271.238 68.3547 270.659 68.5631 270.284 68.98C269.909 69.3864 269.721 69.8553 269.721 70.3868C269.721 70.8975 269.904 71.3664 270.269 71.7937C270.644 72.2001 271.227 72.4033 272.019 72.4033C272.811 72.4033 273.39 72.2001 273.754 71.7937C274.13 71.3873 274.317 70.9183 274.317 70.3868ZM278.897 81.0321H277.662V67.1823H278.897V81.0321ZM272.41 80.7351H271.238V75.9049H267.658V74.8263H271.66C271.931 74.8263 272.301 74.8211 272.77 74.8107C273.239 74.7898 273.739 74.7638 274.27 74.7325C274.802 74.7012 275.312 74.6648 275.802 74.6231C276.302 74.5814 276.714 74.5345 277.037 74.4824V75.5141C276.381 75.6287 275.656 75.7121 274.864 75.7642C274.083 75.8163 273.265 75.858 272.41 75.8893V80.7351ZM289.262 69.8553H281.321V68.8862H289.262V69.8553ZM287.308 68.1046H283.197V67.1354H287.308V68.1046ZM281.822 72.8254C281.822 72.1168 282.139 71.554 282.775 71.1372C283.411 70.6995 284.245 70.4806 285.276 70.4806C286.287 70.4806 287.116 70.6995 287.762 71.1372C288.408 71.5644 288.731 72.1272 288.731 72.8254C288.731 73.1797 288.642 73.5028 288.465 73.7946C288.288 74.0864 288.048 74.3365 287.746 74.5449C287.1 74.9826 286.277 75.2014 285.276 75.2014C284.255 75.2014 283.427 74.9826 282.791 74.5449C282.489 74.3365 282.249 74.0864 282.072 73.7946C281.905 73.5028 281.822 73.1797 281.822 72.8254ZM286.871 73.8884C287.256 73.6278 287.449 73.2735 287.449 72.8254C287.449 72.3877 287.256 72.0438 286.871 71.7937C286.496 71.5332 285.964 71.4029 285.276 71.4029C284.588 71.4029 284.052 71.5332 283.666 71.7937C283.291 72.0438 283.103 72.3877 283.103 72.8254C283.103 73.2631 283.291 73.6174 283.666 73.8884C284.052 74.1489 284.588 74.2792 285.276 74.2792C285.985 74.2792 286.516 74.1489 286.871 73.8884ZM292.608 75.5922H291.404V72.7472H289.2V71.6843H291.404V67.1823H292.608V75.5922ZM291.388 79.8754V77.343H284.823V79.8754H291.388ZM292.592 80.5632C292.592 80.6882 292.566 80.7716 292.514 80.8133C292.472 80.8654 292.389 80.8915 292.264 80.8915H283.932C283.807 80.8915 283.718 80.8654 283.666 80.8133C283.625 80.7716 283.604 80.6882 283.604 80.5632V76.6865C283.604 76.5614 283.625 76.4781 283.666 76.4364C283.718 76.3843 283.807 76.3582 283.932 76.3582H292.264C292.389 76.3582 292.472 76.3843 292.514 76.4364C292.566 76.4781 292.592 76.5614 292.592 76.6865V80.5632Z" fill="#454545"/>
<rect x="114" y="47" width="180" height="14" rx="7" fill="#BBBBBB"/>
<rect x="114.5" y="0.5" width="179" height="32" rx="16" fill="#C4C4C4" stroke="#454545"/>
<rect x="114" width="92" height="33" rx="16.5" fill="#454545"/>
<path d="M132.88 18.7729C132.999 18.1274 133.119 17.4402 133.238 16.7111C133.358 15.97 133.471 15.2051 133.579 14.4162C132.79 14.5596 131.935 14.6553 131.015 14.7031C130.095 14.7509 129.15 14.7748 128.182 14.7748H124.148V13.5736H129.115C129.975 13.5736 130.764 13.5616 131.481 13.5377C132.21 13.5138 132.951 13.454 133.704 13.3584C133.716 13.1194 133.734 12.8863 133.758 12.6592C133.782 12.4202 133.806 12.1811 133.83 11.9421C133.842 11.715 133.854 11.4879 133.866 11.2608C133.89 11.0337 133.907 10.8126 133.919 10.5974H124.417V9.37828H135.013C135.156 9.37828 135.252 9.40816 135.3 9.46793C135.36 9.51574 135.39 9.61135 135.39 9.75478C135.342 10.448 135.282 11.1771 135.21 11.9421C135.15 12.6951 135.073 13.466 134.977 14.2549C134.894 15.0437 134.792 15.8206 134.672 16.5856C134.565 17.3505 134.445 18.0796 134.314 18.7729H132.88ZM137.218 22.3406H122.606V21.1036H128.111V16.8545H129.545V21.1036H137.218V22.3406ZM149.949 24.3666H148.55V15.2768H145.449C145.413 16.2449 145.281 17.0756 145.054 17.7689C144.839 18.4621 144.558 19.0418 144.212 19.5079C143.853 19.9741 143.441 20.3207 142.975 20.5478C142.52 20.7749 142.036 20.8884 141.522 20.8884C140.973 20.8884 140.459 20.7689 139.981 20.5299C139.502 20.2908 139.084 19.9203 138.726 19.4183C138.367 18.9163 138.086 18.2948 137.883 17.5537C137.68 16.8007 137.578 15.8983 137.578 14.8465C137.578 13.7947 137.68 12.8923 137.883 12.1393C138.086 11.3863 138.361 10.7588 138.708 10.2568C139.066 9.75478 139.479 9.39024 139.945 9.16314C140.423 8.92409 140.949 8.80457 141.522 8.80457C142.024 8.80457 142.496 8.91214 142.939 9.12728C143.381 9.33047 143.775 9.64721 144.122 10.0775C144.481 10.5078 144.773 11.0456 145.001 11.6911C145.228 12.3365 145.371 13.1074 145.431 14.0039H148.55V8.446H149.949V24.3666ZM142.634 19.239C142.801 19.1075 142.951 18.9521 143.082 18.7729C143.214 18.5936 143.327 18.4023 143.423 18.1991C143.626 17.7689 143.775 17.2669 143.871 16.6931C143.979 16.1075 144.032 15.4919 144.032 14.8465C144.032 14.2011 143.979 13.5975 143.871 13.0357C143.775 12.462 143.626 11.954 143.423 11.5118C143.22 11.0815 142.957 10.7349 142.634 10.4719C142.323 10.209 141.953 10.0775 141.522 10.0775C141.08 10.0775 140.698 10.209 140.375 10.4719C140.052 10.7349 139.789 11.0875 139.586 11.5297C139.371 11.972 139.216 12.4799 139.12 13.0536C139.024 13.6274 138.977 14.225 138.977 14.8465C138.977 15.4919 139.024 16.1075 139.12 16.6931C139.228 17.2669 139.383 17.7689 139.586 18.1991C139.801 18.6414 140.064 18.988 140.375 19.239C140.698 19.49 141.08 19.6155 141.522 19.6155C141.953 19.6155 142.323 19.49 142.634 19.239ZM162.16 15.9043C161.79 16.2987 161.347 16.6095 160.833 16.8366C160.331 17.0517 159.776 17.1593 159.166 17.1593C158.545 17.1593 157.977 17.0517 157.463 16.8366C156.949 16.6095 156.507 16.2987 156.136 15.9043C155.766 15.5218 155.479 15.0736 155.276 14.5596C155.072 14.0457 154.971 13.4959 154.971 12.9102C154.971 12.3245 155.072 11.7747 155.276 11.2608C155.479 10.7468 155.766 10.2926 156.136 9.89821C156.507 9.51574 156.949 9.21095 157.463 8.98386C157.977 8.75676 158.545 8.64321 159.166 8.64321C159.776 8.64321 160.331 8.75676 160.833 8.98386C161.347 9.21095 161.79 9.51574 162.16 9.89821C162.531 10.2926 162.817 10.7468 163.021 11.2608C163.236 11.7747 163.343 12.3245 163.343 12.9102C163.343 13.4959 163.236 14.0457 163.021 14.5596C162.817 15.0736 162.531 15.5218 162.16 15.9043ZM159.166 15.8684C160.027 15.8684 160.69 15.5816 161.156 15.0079C161.634 14.458 161.873 13.7588 161.873 12.9102C161.873 12.0855 161.634 11.3803 161.156 10.7946C160.69 10.209 160.027 9.91614 159.166 9.91614C158.305 9.91614 157.636 10.209 157.158 10.7946C156.68 11.3803 156.441 12.0855 156.441 12.9102C156.441 13.7588 156.68 14.458 157.158 15.0079C157.636 15.5816 158.305 15.8684 159.166 15.8684ZM167.216 20.1354H165.835V8.446H167.216V12.3724H169.403V13.6274H167.216V20.1354ZM167.736 24.008H157.606C157.463 24.008 157.361 23.9781 157.301 23.9184C157.254 23.8705 157.23 23.7749 157.23 23.6315V18.8446H158.664V22.7889H167.736V24.008ZM177.688 17.1055C177.377 16.974 177.036 16.8007 176.666 16.5856C176.295 16.3585 175.931 16.1015 175.572 15.8146C175.213 15.5278 174.873 15.2051 174.55 14.8465C174.227 14.4879 173.958 14.0935 173.743 13.6632C173.6 14.0815 173.397 14.482 173.134 14.8644C172.871 15.235 172.566 15.5875 172.219 15.9222C171.873 16.2569 171.49 16.5676 171.072 16.8545C170.665 17.1294 170.241 17.3744 169.799 17.5896L168.741 16.6394C169.315 16.4123 169.859 16.1254 170.373 15.7788C170.887 15.4202 171.335 15.0019 171.717 14.5238C172.1 14.0576 172.405 13.5317 172.632 12.9461C172.871 12.3604 172.99 11.709 172.99 10.9919V10.3823H169.835V9.18107H177.598V10.3823H174.478V11.0277C174.478 11.6851 174.592 12.2827 174.819 12.8206C175.046 13.3584 175.351 13.8425 175.733 14.2728C176.116 14.6911 176.552 15.0557 177.042 15.3664C177.532 15.6652 178.046 15.8983 178.584 16.0656L177.688 17.1055ZM182.134 18.0736H180.735V13.2509H177.437V12.0676H180.735V8.446H182.134V18.0736ZM182.421 21.3904C182.421 22.3825 181.925 23.1654 180.933 23.7391C179.941 24.3128 178.626 24.5996 176.988 24.5996C176.164 24.5996 175.417 24.522 174.747 24.3666C174.09 24.2231 173.528 24.014 173.062 23.7391C172.584 23.4642 172.219 23.1295 171.968 22.7351C171.717 22.3406 171.592 21.8924 171.592 21.3904C171.592 20.9123 171.717 20.4761 171.968 20.0816C172.231 19.6753 172.602 19.3346 173.08 19.0597C173.558 18.7729 174.12 18.5517 174.765 18.3964C175.423 18.241 176.164 18.1633 176.988 18.1633C178.626 18.1633 179.941 18.4621 180.933 19.0597C181.925 19.6573 182.421 20.4342 182.421 21.3904ZM179.803 22.9323C180.15 22.753 180.425 22.5319 180.628 22.2689C180.831 22.0179 180.933 21.7311 180.933 21.4084C180.933 20.7749 180.556 20.2669 179.803 19.8844C179.074 19.5139 178.136 19.3286 176.988 19.3286C175.865 19.3286 174.938 19.5139 174.209 19.8844C173.863 20.0518 173.588 20.2669 173.385 20.5299C173.193 20.7809 173.098 21.0677 173.098 21.3904C173.098 21.7131 173.193 22.006 173.385 22.2689C173.588 22.5319 173.869 22.753 174.227 22.9323C174.921 23.3028 175.841 23.4881 176.988 23.4881C178.136 23.4881 179.074 23.3028 179.803 22.9323ZM191.655 16.8007C191.309 16.6453 190.944 16.4541 190.561 16.227C190.191 15.988 189.826 15.725 189.468 15.4381C189.109 15.1393 188.775 14.8166 188.464 14.47C188.153 14.1114 187.89 13.717 187.675 13.2867C187.508 13.7409 187.281 14.1652 186.994 14.5596C186.719 14.9541 186.402 15.3186 186.043 15.6533C185.697 15.988 185.32 16.2927 184.914 16.5676C184.52 16.8306 184.125 17.0577 183.731 17.2489L182.637 16.2808C183.211 16.0298 183.755 15.719 184.269 15.3485C184.794 14.978 185.255 14.5596 185.649 14.0935C186.032 13.6154 186.336 13.0835 186.563 12.4979C186.802 11.9122 186.922 11.2608 186.922 10.5436V8.84043H188.41V10.3823C188.41 11.0636 188.524 11.6911 188.751 12.2648C188.978 12.8265 189.283 13.3345 189.665 13.7887C190.048 14.231 190.49 14.6134 190.992 14.9361C191.494 15.2589 192.02 15.5099 192.569 15.6891L191.655 16.8007ZM196.048 18.0378H194.649V12.6771H191.117V11.458H194.649V8.446H196.048V18.0378ZM196.352 21.4442C196.352 22.4243 195.856 23.1952 194.864 23.757C193.872 24.3307 192.54 24.6176 190.866 24.6176C190.018 24.6176 189.253 24.5399 188.571 24.3845C187.902 24.2411 187.328 24.0319 186.85 23.757C186.384 23.4821 186.026 23.1474 185.775 22.753C185.524 22.3586 185.398 21.9163 185.398 21.4263C185.398 20.4581 185.888 19.6812 186.868 19.0956C187.848 18.5099 189.181 18.2171 190.866 18.2171C192.54 18.2171 193.872 18.5159 194.864 19.1135C195.856 19.7111 196.352 20.488 196.352 21.4442ZM194.864 21.4621C194.864 20.8287 194.488 20.3207 193.735 19.9382C192.898 19.5557 191.942 19.3645 190.866 19.3645C189.683 19.3645 188.727 19.5438 187.998 19.9024C187.257 20.2609 186.886 20.7629 186.886 21.4084C186.886 22.0418 187.257 22.5498 187.998 22.9323C188.727 23.3028 189.683 23.4881 190.866 23.4881C192.026 23.4881 192.982 23.3088 193.735 22.9502C194.488 22.5916 194.864 22.0956 194.864 21.4621Z" fill="white"/>
<path d="M248.188 21.4263C248.726 21.1753 249.132 20.7868 249.407 20.2609C249.682 19.7231 249.819 19.1075 249.819 18.4143C249.819 17.984 249.76 17.5716 249.64 17.1772C249.521 16.7828 249.341 16.4362 249.102 16.1374C248.875 15.8385 248.588 15.6055 248.242 15.4381C247.895 15.2589 247.495 15.1692 247.041 15.1692C246.634 15.1692 246.264 15.2529 245.929 15.4202C245.594 15.5875 245.301 15.8146 245.05 16.1015C244.811 16.3884 244.62 16.717 244.477 17.0876C244.345 17.4581 244.28 17.8465 244.28 18.2529C244.28 18.743 244.345 19.1972 244.477 19.6155C244.608 20.0219 244.794 20.3805 245.033 20.6912C245.272 21.002 245.558 21.247 245.893 21.4263C246.228 21.5936 246.598 21.6773 247.005 21.6773C247.363 21.6773 247.758 21.5936 248.188 21.4263ZM249.622 12.6054C249.61 12.2708 249.539 11.966 249.407 11.6911C249.276 11.4162 249.096 11.1831 248.869 10.9919C248.654 10.8006 248.403 10.6572 248.116 10.5616C247.829 10.454 247.525 10.4002 247.202 10.4002C246.568 10.4002 246.043 10.5974 245.624 10.9919C245.206 11.3863 244.871 11.8823 244.62 12.4799C244.369 13.0656 244.19 13.705 244.082 14.3983C243.987 15.0915 243.939 15.737 243.939 16.3346C244.214 15.5457 244.656 14.972 245.266 14.6134C245.887 14.2429 246.598 14.0576 247.399 14.0576C247.985 14.0576 248.517 14.1652 248.995 14.3804C249.473 14.5835 249.873 14.8764 250.196 15.2589C250.531 15.6413 250.788 16.1075 250.967 16.6573C251.146 17.1951 251.236 17.7928 251.236 18.4501C251.236 19.0717 251.14 19.6514 250.949 20.1892C250.77 20.7271 250.501 21.1992 250.142 21.6056C249.796 22 249.371 22.3108 248.869 22.5379C248.367 22.765 247.8 22.8785 247.166 22.8785C246.15 22.8785 245.307 22.6155 244.638 22.0896C243.969 21.5757 243.491 20.9183 243.204 20.1175C243.037 19.6275 242.911 19.1015 242.827 18.5398C242.744 17.9661 242.702 17.2669 242.702 16.4421C242.702 15.2469 242.815 14.2011 243.042 13.3046C243.27 12.3963 243.58 11.6373 243.975 11.0277C244.369 10.4181 244.841 9.96395 245.391 9.66514C245.941 9.35438 246.539 9.199 247.184 9.199C248.308 9.199 249.198 9.50378 249.855 10.1134C250.525 10.7229 250.919 11.5536 251.039 12.6054H249.622Z" fill="#454545"/>
<rect x="114" y="47" width="14" height="14" rx="7" fill="#6FCF97"/>
<circle cx="265.5" cy="8.5" r="2" stroke="#454545"/>
</g>
<defs>
<clipPath id="clip0_377_2741">
<rect width="294" height="81" fill="white"/>
</clipPath>
<clipPath id="clip1_377_2741">
<rect width="76" height="76" fill="white" transform="translate(0 3.16211)"/>
</clipPath>
</defs>
</svg>
